  0
SECTION
  2
HEADER
  9
$ACADVER
  1
AC1015
  9
$ACADMAINTVER
 70
     6
  9
$DWGCODEPAGE
  3
ANSI_1252
  9
$INSBASE
 10
0.0
 20
0.0
 30
0.0
  9
$EXTMIN
 10
0.0
 20
0.0
 30
0.0
  9
$EXTMAX
 10
720.0
 20
420.0
 30
0.0
  9
$LIMMIN
 10
0.0
 20
0.0
  9
$LIMMAX
 10
720.0
 20
420.0
  9
$ORTHOMODE
 70
     0
  9
$REGENMODE
 70
     1
  9
$FILLMODE
 70
     1
  9
$QTEXTMODE
 70
     0
  9
$MIRRTEXT
 70
     1
  9
$LTSCALE
 40
1.0
  9
$ATTMODE
 70
     1
  9
$TEXTSIZE
 40
3.5
  9
$TRACEWID
 40
1.0
  9
$TEXTSTYLE
  7
Standard
  9
$CLAYER
  8
0
  9
$CELTYPE
  6
ByLayer
  9
$CECOLOR
 62
   256
  9
$CELTSCALE
 40
1.0
  9
$DISPSILH
 70
     0
  9
$DIMSCALE
 40
1.0
  9
$DIMASZ
 40
3.556
  9
$DIMEXO
 40
1.0
  9
$DIMDLI
 40
3.75
  9
$DIMRND
 40
0.0
  9
$DIMDLE
 40
0.0
  9
$DIMEXE
 40
1.0
  9
$DIMTP
 40
0.0
  9
$DIMTM
 40
0.0
  9
$DIMTXT
 40
3.5
  9
$DIMCEN
 40
2.5
  9
$DIMTSZ
 40
0.0
  9
$DIMTOL
 70
     0
  9
$DIMLIM
 70
     0
  9
$DIMTIH
 70
     1
  9
$DIMTOH
 70
     1
  9
$DIMSE1
 70
     0
  9
$DIMSE2
 70
     0
  9
$DIMTAD
 70
     1
  9
$DIMZIN
 70
     0
  9
$DIMBLK
  1

  9
$DIMASO
 70
     1
  9
$DIMSHO
 70
     1
  9
$DIMPOST
  1

  9
$DIMAPOST
  1

  9
$DIMALT
 70
     0
  9
$DIMALTD
 70
     3
  9
$DIMALTF
 40
0.0393700787
  9
$DIMLFAC
 40
1.0
  9
$DIMTOFL
 70
     1
  9
$DIMTVP
 40
0.0
  9
$DIMTIX
 70
     0
  9
$DIMSOXD
 70
     0
  9
$DIMSAH
 70
     0
  9
$DIMBLK1
  1

  9
$DIMBLK2
  1

  9
$DIMSTYLE
  2
ISO-25
  9
$DIMCLRD
 70
     0
  9
$DIMCLRE
 70
     0
  9
$DIMCLRT
 70
     0
  9
$DIMTFAC
 40
1.0
  9
$DIMGAP
 40
1.524
  9
$DIMJUST
 70
     0
  9
$DIMSD1
 70
     0
  9
$DIMSD2
 70
     0
  9
$DIMTOLJ
 70
     0
  9
$DIMTZIN
 70
     0
  9
$DIMALTZ
 70
     0
  9
$DIMALTTZ
 70
     0
  9
$DIMUPT
 70
     0
  9
$DIMDEC
 70
     2
  9
$DIMTDEC
 70
     2
  9
$DIMALTU
 70
     2
  9
$DIMALTTD
 70
     3
  9
$DIMTXSTY
  7
Standard
  9
$DIMAUNIT
 70
     0
  9
$DIMADEC
 70
     2
  9
$DIMALTRND
 40
0.0
  9
$DIMAZIN
 70
     0
  9
$DIMDSEP
 70
    44
  9
$DIMATFIT
 70
     3
  9
$DIMFRAC
 70
     0
  9
$DIMLDRBLK
  1

  9
$DIMLUNIT
 70
     2
  9
$DIMLWD
 70
    -2
  9
$DIMLWE
 70
    -2
  9
$DIMTMOVE
 70
     0
  9
$LUNITS
 70
     2
  9
$LUPREC
 70
     2
  9
$SKETCHINC
 40
1.0
  9
$FILLETRAD
 40
10.0
  9
$AUNITS
 70
     0
  9
$AUPREC
 70
     2
  9
$MENU
  1
.
  9
$ELEVATION
 40
0.0
  9
$PELEVATION
 40
0.0
  9
$THICKNESS
 40
0.0
  9
$LIMCHECK
 70
     0
  9
$CHAMFERA
 40
0.0
  9
$CHAMFERB
 40
0.0
  9
$CHAMFERC
 40
0.0
  9
$CHAMFERD
 40
0.0
  9
$SKPOLY
 70
     0
  9
$TDCREATE
 40
2457433.874788889
  9
$TDUCREATE
 40
2457433.833122222
  9
$TDUPDATE
 40
2457433.87479441
  9
$TDUUPDATE
 40
2457433.833127743
  9
$TDINDWG
 40
0.0000000116
  9
$TDUSRTIMER
 40
0.0000000116
  9
$USRTIMER
 70
     1
  9
$ANGBASE
 50
0.0
  9
$ANGDIR
 70
     0
  9
$PDMODE
 70
     0
  9
$PDSIZE
 40
-1.0
  9
$PLINEWID
 40
0.0
  9
$SPLFRAME
 70
     0
  9
$SPLINETYPE
 70
     6
  9
$SPLINESEGS
 70
     8
  9
$HANDSEED
  5
334
  9
$SURFTAB1
 70
     6
  9
$SURFTAB2
 70
     6
  9
$SURFTYPE
 70
     6
  9
$SURFU
 70
     6
  9
$SURFV
 70
     6
  9
$UCSBASE
  2

  9
$UCSNAME
  2

  9
$UCSORG
 10
0.0
 20
0.0
 30
0.0
  9
$UCSXDIR
 10
1.0
 20
0.0
 30
0.0
  9
$UCSYDIR
 10
0.0
 20
1.0
 30
0.0
  9
$UCSORTHOREF
  2

  9
$UCSORTHOVIEW
 70
     0
  9
$UCSORGTOP
 10
0.0
 20
0.0
 30
0.0
  9
$UCSORGBOTTOM
 10
0.0
 20
0.0
 30
0.0
  9
$UCSORGLEFT
 10
0.0
 20
0.0
 30
0.0
  9
$UCSORGRIGHT
 10
0.0
 20
0.0
 30
0.0
  9
$UCSORGFRONT
 10
0.0
 20
0.0
 30
0.0
  9
$UCSORGBACK
 10
0.0
 20
0.0
 30
0.0
  9
$PUCSBASE
  2

  9
$PUCSNAME
  2

  9
$PUCSORG
 10
0.0
 20
0.0
 30
0.0
  9
$PUCSXDIR
 10
1.0
 20
0.0
 30
0.0
  9
$PUCSYDIR
 10
0.0
 20
1.0
 30
0.0
  9
$PUCSORTHOREF
  2

  9
$PUCSORTHOVIEW
 70
     0
  9
$PUCSORGTOP
 10
0.0
 20
0.0
 30
0.0
  9
$PUCSORGBOTTOM
 10
0.0
 20
0.0
 30
0.0
  9
$PUCSORGLEFT
 10
0.0
 20
0.0
 30
0.0
  9
$PUCSORGRIGHT
 10
0.0
 20
0.0
 30
0.0
  9
$PUCSORGFRONT
 10
0.0
 20
0.0
 30
0.0
  9
$PUCSORGBACK
 10
0.0
 20
0.0
 30
0.0
  9
$USERI1
 70
     0
  9
$USERI2
 70
     0
  9
$USERI3
 70
     0
  9
$USERI4
 70
     0
  9
$USERI5
 70
     0
  9
$USERR1
 40
0.0
  9
$USERR2
 40
0.0
  9
$USERR3
 40
0.0
  9
$USERR4
 40
0.0
  9
$USERR5
 40
0.0
  9
$WORLDVIEW
 70
     1
  9
$SHADEDGE
 70
     3
  9
$SHADEDIF
 70
    70
  9
$TILEMODE
 70
     1
  9
$MAXACTVP
 70
    64
  9
$PINSBASE
 10
0.0
 20
0.0
 30
0.0
  9
$PLIMCHECK
 70
     0
  9
$PEXTMIN
 10
1.0000000000E+20
 20
1.0000000000E+20
 30
1.0000000000E+20
  9
$PEXTMAX
 10
-1.0000000000E+20
 20
-1.0000000000E+20
 30
-1.0000000000E+20
  9
$PLIMMIN
 10
0.0
 20
0.0
  9
$PLIMMAX
 10
420.0
 20
297.0
  9
$UNITMODE
 70
     0
  9
$VISRETAIN
 70
     1
  9
$PLINEGEN
 70
     0
  9
$PSLTSCALE
 70
     1
  9
$TREEDEPTH
 70
  3020
  9
$CMLSTYLE
  2
Standard
  9
$CMLJUST
 70
     0
  9
$CMLSCALE
 40
20.0
  9
$PROXYGRAPHICS
 70
     1
  9
$MEASUREMENT
 70
     1
  9
$CELWEIGHT
370
    -1
  9
$ENDCAPS
280
     0
  9
$JOINSTYLE
280
     0
  9
$LWDISPLAY
290
     1
  9
$INSUNITS
 70
     4
  9
$HYPERLINKBASE
  1

  9
$STYLESHEET
  1

  9
$XEDIT
290
     1
  9
$CEPSNTYPE
380
     0
  9
$PSTYLEMODE
290
     1
  9
$FINGERPRINTGUID
  2
{1C23347B-9BFB-4C37-A624-AD7BDC5BEA4A}
  9
$VERSIONGUID
  2
{FAEB1C32-E019-11D5-929B-00C0DF256EC4}
  9
$EXTNAMES
290
     1
  9
$PSVPSCALE
 40
0.0
  9
$OLESTARTUP
290
     0
  0
ENDSEC
  0
SECTION
  2
CLASSES
  0
CLASS
  1
ACDBDICTIONARYWDFLT
  2
AcDbDictionaryWithDefault
  3
ObjectDBX Classes
 90
        0
280
     0
281
     0
  0
CLASS
  1
VISUALSTYLE
  2
AcDbVisualStyle
  3
ObjectDBX Classes
 90
     4095
280
     0
281
     0
  0
CLASS
  1
MATERIAL
  2
AcDbMaterial
  3
ObjectDBX Classes
 90
     1153
280
     0
281
     0
  0
CLASS
  1
SCALE
  2
AcDbScale
  3
ObjectDBX Classes
 90
     1153
280
     0
281
     0
  0
CLASS
  1
TABLESTYLE
  2
AcDbTableStyle
  3
ObjectDBX Classes
 90
     4095
280
     0
281
     0
  0
CLASS
  1
MLEADERSTYLE
  2
AcDbMLeaderStyle
  3
ACDB_MLEADERSTYLE_CLASS
 90
     4095
280
     0
281
     0
  0
CLASS
  1
SUN
  2
AcDbSun
  3
SCENEOE
 90
     1153
280
     0
281
     0
  0
CLASS
  1
ACDBPLACEHOLDER
  2
AcDbPlaceHolder
  3
ObjectDBX Classes
 90
        0
280
     0
281
     0
  0
CLASS
  1
LAYOUT
  2
AcDbLayout
  3
ObjectDBX Classes
 90
        0
280
     0
281
     0
  0
ENDSEC
  0
SECTION
  2
TABLES
  0
TABLE
  2
VPORT
  5
8
330
0
100
AcDbSymbolTable
 70
     1
  0
VPORT
  5
29
330
8
100
AcDbSymbolTableRecord
100
AcDbViewportTableRecord
  2
*Active
 70
     0
 10
0.0
 20
0.0
 11
1.0
 21
1.0
 12
360.0
 22
210.0
 13
0.0
 23
0.0
 14
10.0
 24
10.0
 15
10.0
 25
10.0
 16
0.0
 26
0.0
 36
1.0
 17
0.0
 27
0.0
 37
0.0
 40
420.0
 41
1.7142857143
 42
50.0
 43
0.0
 44
0.0
 50
0.0
 51
0.0
 71
     0
 72
  2000
 73
     1
 74
     3
 75
     0
 76
     0
 77
     0
 78
     0
281
     0
 65
     1
110
0.0
120
0.0
130
0.0
111
1.0
121
0.0
131
0.0
112
0.0
122
1.0
132
0.0
 79
     0
146
0.0
  0
ENDTAB
  0
TABLE
  2
LTYPE
  5
5
330
0
100
AcDbSymbolTable
 70
     6
  0
LTYPE
  5
14
330
5
100
AcDbSymbolTableRecord
100
AcDbLinetypeTableRecord
  2
ByBlock
 70
     0
  3

 72
    65
 73
     0
 40
0.0
  0
LTYPE
  5
15
330
5
100
AcDbSymbolTableRecord
100
AcDbLinetypeTableRecord
  2
ByLayer
 70
     0
  3

 72
    65
 73
     0
 40
0.0
  0
LTYPE
  5
16
330
5
100
AcDbSymbolTableRecord
100
AcDbLinetypeTableRecord
  2
Continuous
 70
     0
  3
Solid line
 72
    65
 73
     0
 40
0.0
  0
LTYPE
  5
6E
330
5
100
AcDbSymbolTableRecord
100
AcDbLinetypeTableRecord
  2
HIDDEN
 70
     0
  3
Hidden __ __ __ __ __ __ __ __ __ __ __ __ __ __
 72
    65
 73
     2
 40
1.905
 49
1.27
 74
     0
 49
-0.635
 74
     0
  0
LTYPE
  5
6F
330
5
100
AcDbSymbolTableRecord
100
AcDbLinetypeTableRecord
  2
PHANTOM
 70
     0
  3
Phantom ______  __  __  ______  __  __  ______
 72
    65
 73
     6
 40
12.7
 49
6.35
 74
     0
 49
-1.27
 74
     0
 49
1.27
 74
     0
 49
-1.27
 74
     0
 49
1.27
 74
     0
 49
-1.27
 74
     0
  0
LTYPE
  5
70
330
5
100
AcDbSymbolTableRecord
100
AcDbLinetypeTableRecord
  2
CENTER
 70
     0
  3
Center ____ _ ____ _ ____ _ ____ _ ____ _ ____
 72
    65
 73
     4
 40
10.16
 49
6.35
 74
     0
 49
-1.27
 74
     0
 49
1.27
 74
     0
 49
-1.27
 74
     0
  0
LTYPE
  5
71
330
5
100
AcDbSymbolTableRecord
100
AcDbLinetypeTableRecord
  2
CENTERX2
 70
     0
  3
Center (2x) ________  __  ________  __  _____
 72
    65
 73
     4
 40
20.32
 49
12.7
 74
     0
 49
-2.54
 74
     0
 49
2.54
 74
     0
 49
-2.54
 74
     0
  0
LTYPE
  5
72
330
5
100
AcDbSymbolTableRecord
100
AcDbLinetypeTableRecord
  2
DOT2
 70
     0
  3
Dot (.5x) ........................................
 72
    65
 73
     2
 40
0.635
 49
0.0
 74
     0
 49
-0.635
 74
     0
  0
ENDTAB
  0
TABLE
  2
LAYER
  5
2
330
0
100
AcDbSymbolTable
 70
     1
  0
LAYER
  5
10
330
2
100
AcDbSymbolTableRecord
100
AcDbLayerTableRecord
  2
0
 70
     0
 62
     7
  6
Continuous
370
    -3
390
F
  0
ENDTAB
  0
TABLE
  2
STYLE
  5
3
330
0
100
AcDbSymbolTable
 70
     2
  0
STYLE
  5
11
330
3
100
AcDbSymbolTableRecord
100
AcDbTextStyleTableRecord
  2
Standard
 70
     0
 40
0.0
 41
1.0
 50
0.0
 71
     0
 42
3.5
  3
txt
  4

  0
STYLE
  5
331
330
3
100
AcDbSymbolTableRecord
100
AcDbTextStyleTableRecord
  2
SLDTEXTSTYLE0
 70
     0
 40
0.0
 41
0.7
 50
0.0
 71
     0
 42
3.5
  3
TXT
  4

  0
ENDTAB
  0
TABLE
  2
VIEW
  5
6
330
0
100
AcDbSymbolTable
 70
     0
  0
ENDTAB
  0
TABLE
  2
UCS
  5
7
330
0
100
AcDbSymbolTable
 70
     0
  0
ENDTAB
  0
TABLE
  2
APPID
  5
9
330
0
100
AcDbSymbolTable
 70
     1
  0
APPID
  5
12
330
9
100
AcDbSymbolTableRecord
100
AcDbRegAppTableRecord
  2
ACAD
 70
     0
  0
ENDTAB
  0
TABLE
  2
DIMSTYLE
  5
A
330
0
100
AcDbSymbolTable
 70
     1
100
AcDbDimStyleTable
  0
DIMSTYLE
105
27
330
A
100
AcDbSymbolTableRecord
100
AcDbDimStyleTableRecord
  2
ISO-25
 70
     0
 41
2.5
 42
0.625
 43
3.75
 44
1.25
 73
     0
 74
     0
 77
     1
 78
     8
140
2.5
141
2.5
143
0.0393700787
147
0.625
171
     3
172
     1
178
     0
271
     2
272
     2
274
     3
278
    44
283
     0
284
     8
340
11
  0
ENDTAB
  0
TABLE
  2
BLOCK_RECORD
  5
1
330
0
100
AcDbSymbolTable
 70
     2
  0
BLOCK_RECORD
  5
1F
330
1
100
AcDbSymbolTableRecord
100
AcDbBlockTableRecord
  2
*Model_Space
340
22
  0
BLOCK_RECORD
  5
1B
330
1
100
AcDbSymbolTableRecord
100
AcDbBlockTableRecord
  2
*Paper_Space
340
1E
  0
BLOCK_RECORD
  5
23
330
1
100
AcDbSymbolTableRecord
100
AcDbBlockTableRecord
  2
*Paper_Space0
340
26
  0
BLOCK_RECORD
  5
E2
330
1
100
AcDbSymbolTableRecord
100
AcDbBlockTableRecord
  2
SW_CENTERMARKSYMBOL_0
340
0
102
{BLKREFS
331
ED
102
}
  0
ENDTAB
  0
ENDSEC
  0
SECTION
  2
BLOCKS
  0
BLOCK
  5
20
330
1F
100
AcDbEntity
  8
0
100
AcDbBlockBegin
  2
*Model_Space
 70
     0
 10
0.0
 20
0.0
 30
0.0
  3
*Model_Space
  1

  0
ENDBLK
  5
21
330
1F
100
AcDbEntity
  8
0
100
AcDbBlockEnd
  0
BLOCK
  5
1C
330
1B
100
AcDbEntity
 67
     1
  8
0
100
AcDbBlockBegin
  2
*Paper_Space
 70
     0
 10
0.0
 20
0.0
 30
0.0
  3
*Paper_Space
  1

  0
ENDBLK
  5
1D
330
1B
100
AcDbEntity
 67
     1
  8
0
100
AcDbBlockEnd
  0
BLOCK
  5
24
330
23
100
AcDbEntity
  8
0
100
AcDbBlockBegin
  2
*Paper_Space0
 70
     0
 10
0.0
 20
0.0
 30
0.0
  3
*Paper_Space0
  1

  0
ENDBLK
  5
25
330
23
100
AcDbEntity
  8
0
100
AcDbBlockEnd
  0
BLOCK
  5
E3
330
E2
100
AcDbEntity
  8
0
100
AcDbBlockBegin
  2
SW_CENTERMARKSYMBOL_0
 70
     0
 10
0.0
 20
0.0
 30
0.0
  3
SW_CENTERMARKSYMBOL_0
  1

  0
LINE
  5
E5
330
E2
100
AcDbEntity
  8
0
  6
Continuous
 62
     0
370
     0
100
AcDbLine
 10
0.0
 20
0.0
 30
0.0
 11
0.0
 21
2.5
 31
0.0
  0
LINE
  5
E6
330
E2
100
AcDbEntity
  8
0
  6
Continuous
 62
     0
370
     0
100
AcDbLine
 10
0.0
 20
0.0
 30
0.0
 11
-2.5
 21
0.0
 31
0.0
  0
LINE
  5
E7
330
E2
100
AcDbEntity
  8
0
  6
Continuous
 62
     0
370
     0
100
AcDbLine
 10
0.0
 20
0.0
 30
0.0
 11
0.0
 21
-2.5
 31
0.0
  0
LINE
  5
E8
330
E2
100
AcDbEntity
  8
0
  6
Continuous
 62
     0
370
     0
100
AcDbLine
 10
0.0
 20
0.0
 30
0.0
 11
2.5
 21
0.0
 31
0.0
  0
LINE
  5
E9
330
E2
100
AcDbEntity
  8
0
  6
Continuous
 62
     0
370
     0
100
AcDbLine
 10
0.0
 20
5.0
 30
0.0
 11
0.0
 21
10.5
 31
0.0
  0
LINE
  5
EA
330
E2
100
AcDbEntity
  8
0
  6
Continuous
 62
     0
370
     0
100
AcDbLine
 10
-5.0
 20
0.0
 30
0.0
 11
-10.5
 21
0.0
 31
0.0
  0
LINE
  5
EB
330
E2
100
AcDbEntity
  8
0
  6
Continuous
 62
     0
370
     0
100
AcDbLine
 10
0.0
 20
-5.0
 30
0.0
 11
0.0
 21
-10.5
 31
0.0
  0
LINE
  5
EC
330
E2
100
AcDbEntity
  8
0
  6
Continuous
 62
     0
370
     0
100
AcDbLine
 10
5.0
 20
0.0
 30
0.0
 11
10.5
 21
0.0
 31
0.0
  0
ENDBLK
  5
E4
330
E2
100
AcDbEntity
  8
0
100
AcDbBlockEnd
  0
ENDSEC
  0
SECTION
  2
ENTITIES
  0
LINE
  5
73
330
1F
100
AcDbEntity
  8
0
  6
Continuous
 62
     7
370
    15
100
AcDbLine
 10
12.3604018269
 20
386.028095003
 30
0.0
 11
15.3604023186
 21
386.028095003
 31
0.0
  0
LINE
  5
74
330
1F
100
AcDbEntity
  8
0
  6
Continuous
 62
     7
370
    15
100
AcDbLine
 10
15.3604023186
 20
386.028095003
 30
0.0
 11
15.3604023186
 21
396.0280966421
 31
0.0
  0
LINE
  5
75
330
1F
100
AcDbEntity
  8
0
  6
Continuous
 62
     7
370
    15
100
AcDbLine
 10
12.3604018269
 20
396.0280966421
 30
0.0
 11
12.3604018269
 21
386.028095003
 31
0.0
  0
LINE
  5
76
330
1F
100
AcDbEntity
  8
0
  6
Continuous
 62
     7
370
    15
100
AcDbLine
 10
15.3604023186
 20
396.0280966421
 30
0.0
 11
12.3604018269
 21
396.0280966421
 31
0.0
  0
LINE
  5
77
330
1F
100
AcDbEntity
  8
0
  6
Continuous
 62
     7
370
    15
100
AcDbLine
 10
6.8689066945
 20
414.0280995925
 30
0.0
 11
7.8122470556
 21
396.0280966421
 31
0.0
  0
LINE
  5
78
330
1F
100
AcDbEntity
  8
0
  6
Continuous
 62
     7
370
    15
100
AcDbLine
 10
7.8122470556
 20
396.0280966421
 30
0.0
 11
8.813619989
 21
396.0280966421
 31
0.0
  0
LINE
  5
79
330
1F
100
AcDbEntity
  8
0
  6
Continuous
 62
     7
370
    15
100
AcDbLine
 10
8.813619989
 20
396.0280966421
 30
0.0
 11
9.336030486
 21
386.0598829051
 31
0.0
  0
ARC
  5
7A
330
1F
100
AcDbEntity
  8
0
  6
Continuous
 62
     7
370
    15
100
AcDbCircle
 10
13.8604025921
 20
386.2969965234
 30
0.0
 40
4.530580407619542
100
AcDbArc
 50
183.0
 51
357.0
  0
LINE
  5
7B
330
1F
100
AcDbEntity
  8
0
  6
Continuous
 62
     7
370
    15
100
AcDbLine
 10
18.3847736595
 20
386.0598829051
 30
0.0
 11
18.9071860192
 21
396.0280966421
 31
0.0
  0
LINE
  5
7C
330
1F
100
AcDbEntity
  8
0
  6
Continuous
 62
     7
370
    15
100
AcDbLine
 10
18.9071860192
 20
396.0280966421
 30
0.0
 11
19.9085589526
 21
396.0280966421
 31
0.0
  0
LINE
  5
7D
330
1F
100
AcDbEntity
  8
0
  6
Continuous
 62
     7
370
    15
100
AcDbLine
 10
19.9085589526
 20
396.0280966421
 30
0.0
 11
20.8518993137
 21
414.0280995925
 31
0.0
  0
LINE
  5
7E
330
1F
100
AcDbEntity
  8
0
  6
Continuous
 62
     7
370
    15
100
AcDbLine
 10
20.8518993137
 20
414.0280995925
 30
0.0
 11
6.8689066945
 21
414.0280995925
 31
0.0
  0
LINE
  5
7F
330
1F
100
AcDbEntity
  8
0
  6
Continuous
 62
     7
370
    15
100
AcDbLine
 10
40.6840760829
 20
390.9910574979
 30
0.0
 11
43.6840765747
 21
390.9910574979
 31
0.0
  0
LINE
  5
80
330
1F
100
AcDbEntity
  8
0
  6
Continuous
 62
     7
370
    15
100
AcDbLine
 10
43.6840765747
 20
390.9910574979
 30
0.0
 11
43.6840765747
 21
403.9910577661
 31
0.0
  0
LINE
  5
81
330
1F
100
AcDbEntity
  8
0
  6
Continuous
 62
     7
370
    15
100
AcDbLine
 10
43.6840765747
 20
403.9910577661
 30
0.0
 11
40.6840760829
 21
403.9910577661
 31
0.0
  0
LINE
  5
82
330
1F
100
AcDbEntity
  8
0
  6
Continuous
 62
     7
370
    15
100
AcDbLine
 10
40.6840760829
 20
403.9910577661
 30
0.0
 11
40.6840760829
 21
390.9910574979
 31
0.0
  0
LINE
  5
83
330
1F
100
AcDbEntity
  8
0
  6
Continuous
 62
     7
370
    15
100
AcDbLine
 10
24.4726799997
 20
413.9910594052
 30
0.0
 11
24.4726799997
 21
405.9910580939
 31
0.0
  0
LINE
  5
84
330
1F
100
AcDbEntity
  8
0
  6
Continuous
 62
     7
370
    15
100
AcDbLine
 10
59.8954717266
 20
413.9910594052
 30
0.0
 11
24.4726799997
 21
413.9910594052
 31
0.0
  0
LINE
  5
85
330
1F
100
AcDbEntity
  8
0
  6
Continuous
 62
     7
370
    15
100
AcDbLine
 10
59.8954717266
 20
405.9910580939
 30
0.0
 11
59.8954717266
 21
413.9910594052
 31
0.0
  0
LINE
  5
86
330
1F
100
AcDbEntity
  8
0
  6
Continuous
 62
     7
370
    15
100
AcDbLine
 10
57.8954713988
 20
405.9910580939
 30
0.0
 11
59.8954717266
 21
405.9910580939
 31
0.0
  0
LINE
  5
87
330
1F
100
AcDbEntity
  8
0
  6
Continuous
 62
     7
370
    15
100
AcDbLine
 10
57.8954713988
 20
380.9910577214
 30
0.0
 11
57.8954713988
 21
405.9910580939
 31
0.0
  0
LINE
  5
88
330
1F
100
AcDbEntity
  8
0
  6
Continuous
 62
     7
370
    15
100
AcDbLine
 10
26.4726803275
 20
380.9910577214
 30
0.0
 11
57.8954713988
 21
380.9910577214
 31
0.0
  0
LINE
  5
89
330
1F
100
AcDbEntity
  8
0
  6
Continuous
 62
     7
370
    15
100
AcDbLine
 10
26.4726803275
 20
405.9910580939
 30
0.0
 11
26.4726803275
 21
380.9910577214
 31
0.0
  0
LINE
  5
8A
330
1F
100
AcDbEntity
  8
0
  6
Continuous
 62
     7
370
    15
100
AcDbLine
 10
24.4726799997
 20
405.9910580939
 30
0.0
 11
26.4726803275
 21
405.9910580939
 31
0.0
  0
LINE
  5
8B
330
1F
100
AcDbEntity
  8
0
  6
Continuous
 62
     7
370
    15
100
AcDbLine
 10
42.4074077052
 20
361.4763375178
 30
0.0
 11
29.4074074369
 21
365.4076386981
 31
0.0
  0
LINE
  5
8C
330
1F
100
AcDbEntity
  8
0
  6
Continuous
 62
     7
370
    15
100
AcDbLine
 10
29.4074074369
 20
365.4076386981
 30
0.0
 11
29.4074074369
 21
365.6079130985
 31
0.0
  0
LINE
  5
8D
330
1F
100
AcDbEntity
  8
0
  6
Continuous
 62
     7
370
    15
100
AcDbLine
 10
29.4074074369
 20
365.6079130985
 30
0.0
 11
11.071863864
 21
366.5688382268
 31
0.0
  0
LINE
  5
8E
330
1F
100
AcDbEntity
  8
0
  6
Continuous
 62
     7
370
    15
100
AcDbLine
 10
42.4074077052
 20
377.6531163409
 30
0.0
 11
29.4074074369
 21
373.7218151607
 31
0.0
  0
LINE
  5
8F
330
1F
100
AcDbEntity
  8
0
  6
Continuous
 62
     7
370
    15
100
AcDbLine
 10
29.4074074369
 20
373.7218151607
 30
0.0
 11
29.4074074369
 21
373.5215407602
 31
0.0
  0
LINE
  5
90
330
1F
100
AcDbEntity
  8
0
  6
Continuous
 62
     7
370
    15
100
AcDbLine
 10
29.4074074369
 20
373.5215407602
 30
0.0
 11
11.071863864
 21
372.5606156319
 31
0.0
  0
ARC
  5
91
330
1F
100
AcDbEntity
  8
0
  6
Continuous
 62
     7
370
    15
100
AcDbCircle
 10
11.2288712137
 20
369.5647269294
 30
0.0
 40
2.99999999999999
100
AcDbArc
 50
93.0
 51
267.0
  0
LINE
  5
92
330
1F
100
AcDbEntity
  8
0
  6
Continuous
 62
     7
370
    15
100
AcDbLine
 10
42.4074077052
 20
361.4763375178
 30
0.0
 11
42.4074077052
 21
377.6531163409
 31
0.0
  0
LINE
  5
93
330
1F
100
AcDbEntity
  8
0
  6
Continuous
 62
     7
370
    15
100
AcDbLine
 10
93.56354795
 20
393.7622959203
 30
0.0
 11
93.56354795
 21
387.7622949369
 31
0.0
  0
LINE
  5
94
330
1F
100
AcDbEntity
  8
0
  6
Continuous
 62
     7
370
    15
100
AcDbLine
 10
65.5635433605
 20
396.7622945494
 30
0.0
 11
65.5635433605
 21
393.7622959203
 31
0.0
  0
LINE
  5
95
330
1F
100
AcDbEntity
  8
0
  6
Continuous
 62
     7
370
    15
100
AcDbLine
 10
67.5635436883
 20
400.2263972945
 30
0.0
 11
65.5635433605
 21
396.7622945494
 31
0.0
  0
LINE
  5
96
330
1F
100
AcDbEntity
  8
0
  6
Continuous
 62
     7
370
    15
100
AcDbLine
 10
78.5635436287
 20
387.7622949369
 30
0.0
 11
78.5635436287
 21
408.7622965164
 31
0.0
  0
LINE
  5
97
330
1F
100
AcDbEntity
  8
0
  6
Continuous
 62
     7
370
    15
100
AcDbLine
 10
78.5635436287
 20
408.7622965164
 30
0.0
 11
77.1635460069
 21
408.7622965164
 31
0.0
  0
LINE
  5
98
330
1F
100
AcDbEntity
  8
0
  6
Continuous
 62
     7
370
    15
100
AcDbLine
 10
77.1635460069
 20
411.7622951455
 30
0.0
 11
79.1836927047
 21
415.2612964101
 31
0.0
  0
LINE
  5
99
330
1F
100
AcDbEntity
  8
0
  6
Continuous
 62
     7
370
    15
100
AcDbLine
 10
79.1836927047
 20
415.2612964101
 30
0.0
 11
86.56354494
 21
415.2612964101
 31
0.0
  0
LINE
  5
9A
330
1F
100
AcDbEntity
  8
0
  6
Continuous
 62
     7
370
    15
100
AcDbLine
 10
86.56354494
 20
400.2263972945
 30
0.0
 11
88.5635452678
 21
396.7622945494
 31
0.0
  0
LINE
  5
9B
330
1F
100
AcDbEntity
  8
0
  6
Continuous
 62
     7
370
    15
100
AcDbLine
 10
88.5635452678
 20
396.7622945494
 30
0.0
 11
88.5635452678
 21
393.7622959203
 31
0.0
  0
LINE
  5
9C
330
1F
100
AcDbEntity
  8
0
  6
Continuous
 62
     7
370
    15
100
AcDbLine
 10
77.1635460069
 20
408.7622965164
 30
0.0
 11
77.1635460069
 21
411.7622951455
 31
0.0
  0
LINE
  5
9D
330
1F
100
AcDbEntity
  8
0
  6
Continuous
 62
     7
370
    15
100
AcDbLine
 10
75.5635449996
 20
408.7622965164
 30
0.0
 11
76.9635426214
 21
408.7622965164
 31
0.0
  0
LINE
  5
9E
330
1F
100
AcDbEntity
  8
0
  6
Continuous
 62
     7
370
    15
100
AcDbLine
 10
76.9635426214
 20
408.7622965164
 30
0.0
 11
76.9635426214
 21
411.7622951455
 31
0.0
  0
LINE
  5
9F
330
1F
100
AcDbEntity
  8
0
  6
Continuous
 62
     7
370
    15
100
AcDbLine
 10
76.9635426214
 20
411.7622951455
 30
0.0
 11
74.9433959236
 21
415.2612964101
 31
0.0
  0
LINE
  5
A0
330
1F
100
AcDbEntity
  8
0
  6
Continuous
 62
     7
370
    15
100
AcDbLine
 10
74.9433959236
 20
415.2612964101
 30
0.0
 11
67.5635436883
 21
415.2612964101
 31
0.0
  0
LINE
  5
A1
330
1F
100
AcDbEntity
  8
0
  6
Continuous
 62
     7
370
    15
100
AcDbLine
 10
67.5635436883
 20
415.2612964101
 30
0.0
 11
67.5635436883
 21
400.2263972945
 31
0.0
  0
LINE
  5
A2
330
1F
100
AcDbEntity
  8
0
  6
Continuous
 62
     7
370
    15
100
AcDbLine
 10
65.5635433605
 20
393.7622959203
 30
0.0
 11
60.5635444035
 21
393.7622959203
 31
0.0
  0
LINE
  5
A3
330
1F
100
AcDbEntity
  8
0
  6
Continuous
 62
     7
370
    15
100
AcDbLine
 10
60.5635444035
 20
393.7622959203
 30
0.0
 11
60.5635444035
 21
387.7622949369
 31
0.0
  0
ARC
  5
A4
330
1F
100
AcDbEntity
  8
0
  6
Continuous
 62
     7
370
    15
100
AcDbCircle
 10
77.0635442545
 20
387.7622952945
 30
0.0
 40
16.49999999999998
100
AcDbArc
 50
180.0
 51
0.0
  0
ARC
  5
A5
330
1F
100
AcDbEntity
  8
0
  6
Continuous
 62
     7
370
    15
100
AcDbCircle
 10
77.0635442545
 20
387.7622952945
 30
0.0
 40
1.5
100
AcDbArc
 50
180.0
 51
0.0
  0
LINE
  5
A6
330
1F
100
AcDbEntity
  8
0
  6
Continuous
 62
     7
370
    15
100
AcDbLine
 10
75.5635449996
 20
387.7622949369
 30
0.0
 11
75.5635449996
 21
408.7622965164
 31
0.0
  0
LINE
  5
A7
330
1F
100
AcDbEntity
  8
0
  6
Continuous
 62
     7
370
    15
100
AcDbLine
 10
86.56354494
 20
415.2612964101
 30
0.0
 11
86.56354494
 21
400.2263972945
 31
0.0
  0
LINE
  5
A8
330
1F
100
AcDbEntity
  8
0
  6
Continuous
 62
     7
370
    15
100
AcDbLine
 10
88.5635452678
 20
393.7622959203
 30
0.0
 11
93.56354795
 21
393.7622959203
 31
0.0
  0
LINE
  5
A9
330
1F
100
AcDbEntity
  8
0
  6
Continuous
 62
     7
370
    15
100
AcDbLine
 10
128.2078564606
 20
393.7504093033
 30
0.0
 11
128.2078564606
 21
387.7504083198
 31
0.0
  0
LINE
  5
AA
330
1F
100
AcDbEntity
  8
0
  6
Continuous
 62
     7
370
    15
100
AcDbLine
 10
100.2078518711
 20
396.7504079324
 30
0.0
 11
100.2078518711
 21
393.7504093033
 31
0.0
  0
LINE
  5
AB
330
1F
100
AcDbEntity
  8
0
  6
Continuous
 62
     7
370
    15
100
AcDbLine
 10
102.2078521989
 20
400.2145106775
 30
0.0
 11
100.2078518711
 21
396.7504079324
 31
0.0
  0
LINE
  5
AC
330
1F
100
AcDbEntity
  8
0
  6
Continuous
 62
     7
370
    15
100
AcDbLine
 10
113.2078521393
 20
387.7504083198
 30
0.0
 11
113.2078521393
 21
408.7504098994
 31
0.0
  0
LINE
  5
AD
330
1F
100
AcDbEntity
  8
0
  6
Continuous
 62
     7
370
    15
100
AcDbLine
 10
113.2078521393
 20
408.7504098994
 30
0.0
 11
111.8078545175
 21
408.7504098994
 31
0.0
  0
LINE
  5
AE
330
1F
100
AcDbEntity
  8
0
  6
Continuous
 62
     7
370
    15
100
AcDbLine
 10
111.8078545175
 20
411.7504085285
 30
0.0
 11
113.8280012153
 21
415.249409793
 31
0.0
  0
LINE
  5
AF
330
1F
100
AcDbEntity
  8
0
  6
Continuous
 62
     7
370
    15
100
AcDbLine
 10
113.8280012153
 20
415.249409793
 30
0.0
 11
121.2078534506
 21
415.249409793
 31
0.0
  0
LINE
  5
B0
330
1F
100
AcDbEntity
  8
0
  6
Continuous
 62
     7
370
    15
100
AcDbLine
 10
121.2078534506
 20
400.2145106775
 30
0.0
 11
123.2078537784
 21
396.7504079324
 31
0.0
  0
LINE
  5
B1
330
1F
100
AcDbEntity
  8
0
  6
Continuous
 62
     7
370
    15
100
AcDbLine
 10
123.2078537784
 20
396.7504079324
 30
0.0
 11
123.2078537784
 21
393.7504093033
 31
0.0
  0
LINE
  5
B2
330
1F
100
AcDbEntity
  8
0
  6
Continuous
 62
     7
370
    15
100
AcDbLine
 10
111.8078545175
 20
408.7504098994
 30
0.0
 11
111.8078545175
 21
411.7504085285
 31
0.0
  0
LINE
  5
B3
330
1F
100
AcDbEntity
  8
0
  6
Continuous
 62
     7
370
    15
100
AcDbLine
 10
110.2078535102
 20
408.7504098994
 30
0.0
 11
111.607851132
 21
408.7504098994
 31
0.0
  0
LINE
  5
B4
330
1F
100
AcDbEntity
  8
0
  6
Continuous
 62
     7
370
    15
100
AcDbLine
 10
111.607851132
 20
408.7504098994
 30
0.0
 11
111.607851132
 21
411.7504085285
 31
0.0
  0
LINE
  5
B5
330
1F
100
AcDbEntity
  8
0
  6
Continuous
 62
     7
370
    15
100
AcDbLine
 10
111.607851132
 20
411.7504085285
 30
0.0
 11
109.5877044342
 21
415.249409793
 31
0.0
  0
LINE
  5
B6
330
1F
100
AcDbEntity
  8
0
  6
Continuous
 62
     7
370
    15
100
AcDbLine
 10
109.5877044342
 20
415.249409793
 30
0.0
 11
102.2078521989
 21
415.249409793
 31
0.0
  0
LINE
  5
B7
330
1F
100
AcDbEntity
  8
0
  6
Continuous
 62
     7
370
    15
100
AcDbLine
 10
102.2078521989
 20
415.249409793
 30
0.0
 11
102.2078521989
 21
400.2145106775
 31
0.0
  0
LINE
  5
B8
330
1F
100
AcDbEntity
  8
0
  6
Continuous
 62
     7
370
    15
100
AcDbLine
 10
100.2078518711
 20
393.7504093033
 30
0.0
 11
95.2078529141
 21
393.7504093033
 31
0.0
  0
LINE
  5
B9
330
1F
100
AcDbEntity
  8
0
  6
Continuous
 62
     7
370
    15
100
AcDbLine
 10
95.2078529141
 20
393.7504093033
 30
0.0
 11
95.2078529141
 21
387.7504083198
 31
0.0
  0
ARC
  5
BA
330
1F
100
AcDbEntity
  8
0
  6
Continuous
 62
     7
370
    15
100
AcDbCircle
 10
111.7078527651
 20
387.7504086775
 30
0.0
 40
16.49999999999999
100
AcDbArc
 50
180.0
 51
0.0
  0
ARC
  5
BB
330
1F
100
AcDbEntity
  8
0
  6
Continuous
 62
     7
370
    15
100
AcDbCircle
 10
111.7078527651
 20
387.7504086775
 30
0.0
 40
1.5
100
AcDbArc
 50
180.0
 51
0.0
  0
LINE
  5
BC
330
1F
100
AcDbEntity
  8
0
  6
Continuous
 62
     7
370
    15
100
AcDbLine
 10
110.2078535102
 20
387.7504083198
 30
0.0
 11
110.2078535102
 21
408.7504098994
 31
0.0
  0
LINE
  5
BD
330
1F
100
AcDbEntity
  8
0
  6
Continuous
 62
     7
370
    15
100
AcDbLine
 10
121.2078534506
 20
415.249409793
 30
0.0
 11
121.2078534506
 21
400.2145106775
 31
0.0
  0
LINE
  5
BE
330
1F
100
AcDbEntity
  8
0
  6
Continuous
 62
     7
370
    15
100
AcDbLine
 10
123.2078537784
 20
393.7504093033
 30
0.0
 11
128.2078564606
 21
393.7504093033
 31
0.0
  0
LINE
  5
BF
330
1F
100
AcDbEntity
  8
0
  6
Continuous
 62
     7
370
    15
100
AcDbLine
 10
138.8618982294
 20
385.4641652146
 30
0.0
 11
138.8618982294
 21
382.4641665855
 31
0.0
  0
LINE
  5
C0
330
1F
100
AcDbEntity
  8
0
  6
Continuous
 62
     7
370
    15
100
AcDbLine
 10
138.8618982294
 20
382.4641665855
 30
0.0
 11
135.3977992096
 21
376.464165602
 31
0.0
  0
LINE
  5
C1
330
1F
100
AcDbEntity
  8
0
  6
Continuous
 62
     7
370
    15
100
AcDbLine
 10
135.3977992096
 20
376.464165602
 30
0.0
 11
129.8618986168
 21
376.464165602
 31
0.0
  0
LINE
  5
C2
330
1F
100
AcDbEntity
  8
0
  6
Continuous
 62
     7
370
    15
100
AcDbLine
 10
129.8618986168
 20
376.464165602
 30
0.0
 11
129.8618986168
 21
416.4641665706
 31
0.0
  0
LINE
  5
C3
330
1F
100
AcDbEntity
  8
0
  6
Continuous
 62
     7
370
    15
100
AcDbLine
 10
129.8618986168
 20
416.4641665706
 30
0.0
 11
153.8618988254
 21
416.4641665706
 31
0.0
  0
LINE
  5
C4
330
1F
100
AcDbEntity
  8
0
  6
Continuous
 62
     7
370
    15
100
AcDbLine
 10
153.8618988254
 20
416.4641665706
 30
0.0
 11
153.8618988254
 21
376.464165602
 31
0.0
  0
LINE
  5
C5
330
1F
100
AcDbEntity
  8
0
  6
Continuous
 62
     7
370
    15
100
AcDbLine
 10
153.8618988254
 20
376.464165602
 30
0.0
 11
147.8618978419
 21
376.464165602
 31
0.0
  0
LINE
  5
C6
330
1F
100
AcDbEntity
  8
0
  6
Continuous
 62
     7
370
    15
100
AcDbLine
 10
147.8618978419
 20
376.464165602
 30
0.0
 11
144.8618992128
 21
382.4641665855
 31
0.0
  0
LINE
  5
C7
330
1F
100
AcDbEntity
  8
0
  6
Continuous
 62
     7
370
    15
100
AcDbLine
 10
144.8618992128
 20
382.4641665855
 30
0.0
 11
144.8618992128
 21
385.4641652146
 31
0.0
  0
LINE
  5
C8
330
1F
100
AcDbEntity
  8
0
  6
Continuous
 62
     7
370
    15
100
AcDbLine
 10
144.8618992128
 20
385.4641652146
 30
0.0
 11
147.8618978419
 21
385.4641652146
 31
0.0
  0
LINE
  5
C9
330
1F
100
AcDbEntity
  8
0
  6
Continuous
 62
     7
370
    15
100
AcDbLine
 10
147.8618978419
 20
385.4641652146
 30
0.0
 11
147.8618978419
 21
400.4641676733
 31
0.0
  0
ARC
  5
CA
330
1F
100
AcDbEntity
  8
0
  6
Continuous
 62
     7
370
    15
100
AcDbCircle
 10
141.8618989744
 20
400.4641658255
 30
0.0
 40
6.000000000000028
100
AcDbArc
 50
0.0
 51
180.0
  0
LINE
  5
CB
330
1F
100
AcDbEntity
  8
0
  6
Continuous
 62
     7
370
    15
100
AcDbLine
 10
135.8618996003
 20
400.4641676733
 30
0.0
 11
135.8618996003
 21
385.4641652146
 31
0.0
  0
LINE
  5
CC
330
1F
100
AcDbEntity
  8
0
  6
Continuous
 62
     7
370
    15
100
AcDbLine
 10
135.8618996003
 20
385.4641652146
 30
0.0
 11
138.8618982294
 21
385.4641652146
 31
0.0
  0
LINE
  5
CD
330
1F
100
AcDbEntity
  8
0
  6
Continuous
 62
     7
370
    15
100
AcDbLine
 10
216.6249710316
 20
392.7268980109
 30
0.0
 11
193.6249709869
 21
392.7268980109
 31
0.0
  0
LINE
  5
CE
330
1F
100
AcDbEntity
  8
0
  6
Continuous
 62
     7
370
    15
100
AcDbLine
 10
216.6249710316
 20
372.7268979922
 30
0.0
 11
226.6249726708
 21
372.7268979922
 31
0.0
  0
LINE
  5
CF
330
1F
100
AcDbEntity
  8
0
  6
Continuous
 62
     7
370
    15
100
AcDbLine
 10
216.6249710316
 20
376.7268981822
 30
0.0
 11
216.6249710316
 21
372.7268979922
 31
0.0
  0
LINE
  5
D0
330
1F
100
AcDbEntity
  8
0
  6
Continuous
 62
     7
370
    15
100
AcDbLine
 10
213.6249724025
 20
379.7268977426
 30
0.0
 11
216.6249710316
 21
376.7268981822
 31
0.0
  0
LINE
  5
D1
330
1F
100
AcDbEntity
  8
0
  6
Continuous
 62
     7
370
    15
100
AcDbLine
 10
191.6249725218
 20
379.7268977426
 30
0.0
 11
213.6249724025
 21
379.7268977426
 31
0.0
  0
LINE
  5
D2
330
1F
100
AcDbEntity
  8
0
  6
Continuous
 62
     7
370
    15
100
AcDbLine
 10
191.6249725218
 20
384.7268976309
 30
0.0
 11
191.6249725218
 21
379.7268977426
 31
0.0
  0
LINE
  5
D3
330
1F
100
AcDbEntity
  8
0
  6
Continuous
 62
     7
370
    15
100
AcDbLine
 10
186.6249717022
 20
384.7268976309
 30
0.0
 11
191.6249725218
 21
384.7268976309
 31
0.0
  0
LINE
  5
D4
330
1F
100
AcDbEntity
  8
0
  6
Continuous
 62
     7
370
    15
100
AcDbLine
 10
177.3942024628
 20
380.880744014
 30
0.0
 11
186.6249717022
 21
384.7268976309
 31
0.0
  0
LINE
  5
D5
330
1F
100
AcDbEntity
  8
0
  6
Continuous
 62
     7
370
    15
100
AcDbLine
 10
216.6249710316
 20
392.7268980109
 30
0.0
 11
216.6249710316
 21
396.7268986665
 31
0.0
  0
LINE
  5
D6
330
1F
100
AcDbEntity
  8
0
  6
Continuous
 62
     7
370
    15
100
AcDbLine
 10
216.6249710316
 20
396.7268986665
 30
0.0
 11
193.6249709869
 21
396.7268986665
 31
0.0
  0
LINE
  5
D7
330
1F
100
AcDbEntity
  8
0
  6
Continuous
 62
     7
370
    15
100
AcDbLine
 10
193.6249709869
 20
396.7268986665
 30
0.0
 11
193.6249709869
 21
392.7268980109
 31
0.0
  0
CIRCLE
  5
D8
330
1F
100
AcDbEntity
  8
0
  6
Continuous
 62
     7
370
    15
100
AcDbCircle
 10
171.6249716575
 20
394.7268979661
 30
0.0
 40
7.999999999999972
  0
ARC
  5
D9
330
1F
100
AcDbEntity
  8
0
  6
Continuous
 62
     7
370
    15
100
AcDbCircle
 10
171.6249716575
 20
394.7268979661
 30
0.0
 40
15.00000000000002
100
AcDbArc
 50
67.380135052
 51
292.619864948
  0
LINE
  5
DA
330
1F
100
AcDbEntity
  8
0
  6
Continuous
 62
     7
370
    15
100
AcDbLine
 10
177.3942024628
 20
408.5730517321
 30
0.0
 11
186.6249717022
 21
404.7268981152
 31
0.0
  0
LINE
  5
DB
330
1F
100
AcDbEntity
  8
0
  6
Continuous
 62
     7
370
    15
100
AcDbLine
 10
186.6249717022
 20
404.7268981152
 30
0.0
 11
191.6249725218
 21
404.7268981152
 31
0.0
  0
LINE
  5
DC
330
1F
100
AcDbEntity
  8
0
  6
Continuous
 62
     7
370
    15
100
AcDbLine
 10
191.6249725218
 20
404.7268981152
 30
0.0
 11
191.6249725218
 21
409.7268970721
 31
0.0
  0
LINE
  5
DD
330
1F
100
AcDbEntity
  8
0
  6
Continuous
 62
     7
370
    15
100
AcDbLine
 10
191.6249725218
 20
409.7268970721
 30
0.0
 11
213.6249724025
 21
409.7268970721
 31
0.0
  0
LINE
  5
DE
330
1F
100
AcDbEntity
  8
0
  6
Continuous
 62
     7
370
    15
100
AcDbLine
 10
213.6249724025
 20
409.7268970721
 30
0.0
 11
216.6249710316
 21
412.7268994265
 31
0.0
  0
LINE
  5
DF
330
1F
100
AcDbEntity
  8
0
  6
Continuous
 62
     7
370
    15
100
AcDbLine
 10
216.6249710316
 20
412.7268994265
 30
0.0
 11
216.6249710316
 21
416.7268963568
 31
0.0
  0
LINE
  5
E0
330
1F
100
AcDbEntity
  8
0
  6
Continuous
 62
     7
370
    15
100
AcDbLine
 10
216.6249710316
 20
416.7268963568
 30
0.0
 11
226.6249726708
 21
416.7268963568
 31
0.0
  0
LINE
  5
E1
330
1F
100
AcDbEntity
  8
0
  6
Continuous
 62
     7
370
    15
100
AcDbLine
 10
226.6249726708
 20
416.7268963568
 30
0.0
 11
226.6249726708
 21
372.7268979922
 31
0.0
  0
INSERT
  5
ED
330
1F
100
AcDbEntity
  8
0
  6
Continuous
 62
     7
370
     0
100
AcDbBlockReference
  2
SW_CENTERMARKSYMBOL_0
 10
171.6249716575
 20
394.7268979661
 30
0.0
  0
LINE
  5
EE
330
1F
100
AcDbEntity
  8
0
  6
Continuous
 62
     7
370
    15
100
AcDbLine
 10
49.1576219085
 20
361.6964047622
 30
0.0
 11
104.1576197478
 21
361.6964047622
 31
0.0
  0
LINE
  5
EF
330
1F
100
AcDbEntity
  8
0
  6
Continuous
 62
     7
370
    15
100
AcDbLine
 10
104.1576197478
 20
361.6964047622
 30
0.0
 11
104.1576197478
 21
369.6964042109
 31
0.0
  0
LINE
  5
F0
330
1F
100
AcDbEntity
  8
0
  6
Continuous
 62
     7
370
    15
100
AcDbLine
 10
104.1576197478
 20
369.6964042109
 30
0.0
 11
96.6576231751
 21
369.6964042109
 31
0.0
  0
LINE
  5
F1
330
1F
100
AcDbEntity
  8
0
  6
Continuous
 62
     7
370
    15
100
AcDbLine
 10
96.6576231751
 20
369.6964042109
 30
0.0
 11
96.6576231751
 21
374.6964050304
 31
0.0
  0
LINE
  5
F2
330
1F
100
AcDbEntity
  8
0
  6
Continuous
 62
     7
370
    15
100
AcDbLine
 10
96.6576231751
 20
374.6964050304
 30
0.0
 11
96.1576221618
 21
374.6964050304
 31
0.0
  0
LINE
  5
F3
330
1F
100
AcDbEntity
  8
0
  6
Continuous
 62
     7
370
    15
100
AcDbLine
 10
96.1576221618
 20
374.6964050304
 30
0.0
 11
87.4973690245
 21
369.6964042109
 31
0.0
  0
LINE
  5
F4
330
1F
100
AcDbEntity
  8
0
  6
Continuous
 62
     7
370
    15
100
AcDbLine
 10
87.4973690245
 20
369.6964042109
 30
0.0
 11
49.1576219085
 21
369.6964042109
 31
0.0
  0
ARC
  5
F5
330
1F
100
AcDbEntity
  8
0
  6
Continuous
 62
     7
370
    15
100
AcDbCircle
 10
49.157622132
 20
365.6964048814
 30
0.0
 40
4.0
100
AcDbArc
 50
90.0
 51
270.0
  0
LINE
  5
F6
330
1F
100
AcDbEntity
  8
0
  6
Continuous
 62
     7
370
    15
100
AcDbLine
 10
263.1471394356
 20
401.5433281314
 30
0.0
 11
230.1471405457
 21
401.5433281314
 31
0.0
  0
LINE
  5
F7
330
1F
100
AcDbEntity
  8
0
  6
Continuous
 62
     7
370
    15
100
AcDbLine
 10
230.1471405457
 20
401.5433281314
 30
0.0
 11
230.1471405457
 21
411.84046045
 31
0.0
  0
LINE
  5
F8
330
1F
100
AcDbEntity
  8
0
  6
Continuous
 62
     7
370
    15
100
AcDbLine
 10
230.1471405457
 20
411.84046045
 30
0.0
 11
263.1471394356
 21
417.6592504042
 31
0.0
  0
LINE
  5
F9
330
1F
100
AcDbEntity
  8
0
  6
Continuous
 62
     7
370
    15
100
AcDbLine
 10
263.1471394356
 20
417.6592504042
 30
0.0
 11
263.1471394356
 21
401.5433281314
 31
0.0
  0
ARC
  5
FA
330
1F
100
AcDbEntity
  8
0
  6
Continuous
 62
     7
370
    15
100
AcDbCircle
 10
278.9875751447
 20
383.4611932809
 30
0.0
 40
25.0
100
AcDbArc
 50
0.0
 51
45.0
  0
ARC
  5
FB
330
1F
100
AcDbEntity
  8
0
  6
Continuous
 62
     7
370
    15
100
AcDbCircle
 10
278.9875751447
 20
383.4611932809
 30
0.0
 40
5.0
100
AcDbArc
 50
0.0
 51
45.0
  0
ARC
  5
FC
330
1F
100
AcDbEntity
  8
0
  6
Continuous
 62
     7
370
    15
100
AcDbCircle
 10
271.0586429565
 20
405.5322610927
 30
0.0
 40
5.000000000000041
100
AcDbArc
 50
135.0
 51
225.0
  0
ARC
  5
FD
330
1F
100
AcDbEntity
  8
0
  6
Continuous
 62
     7
370
    15
100
AcDbCircle
 10
278.1297107684
 20
412.6033289046
 30
0.0
 40
5.0
100
AcDbArc
 50
45.0
 51
135.0
  0
LINE
  5
FE
330
1F
100
AcDbEntity
  8
0
  6
Continuous
 62
     7
370
    15
100
AcDbLine
 10
293.3325056445
 20
392.4507870495
 30
0.0
 11
291.2111856501
 21
390.3294651926
 31
0.0
  0
LINE
  5
FF
330
1F
100
AcDbEntity
  8
0
  6
Continuous
 62
     7
370
    15
100
AcDbLine
 10
281.3116904806
 20
404.4716003507
 30
0.0
 11
293.3325056445
 21
392.4507870495
 31
0.0
  0
LINE
  5
100
330
1F
100
AcDbEntity
  8
0
  6
Continuous
 62
     7
370
    15
100
AcDbLine
 10
279.1903723489
 20
402.3502803564
 30
0.0
 11
281.3116904806
 21
404.4716003507
 31
0.0
  0
LINE
  5
101
330
1F
100
AcDbEntity
  8
0
  6
Continuous
 62
     7
370
    15
100
AcDbLine
 10
291.2111856501
 20
390.3294651926
 30
0.0
 11
279.1903723489
 21
402.3502803564
 31
0.0
  0
LINE
  5
102
330
1F
100
AcDbEntity
  8
0
  6
Continuous
 62
     7
370
    15
100
AcDbLine
 10
311.4931286771
 20
364.247988832
 30
0.0
 11
276.482022972
 21
364.247988832
 31
0.0
  0
LINE
  5
103
330
1F
100
AcDbEntity
  8
0
  6
Continuous
 62
     7
370
    15
100
AcDbLine
 10
276.482022972
 20
364.247988832
 30
0.0
 11
283.9875758152
 21
377.2479891002
 31
0.0
  0
LINE
  5
104
330
1F
100
AcDbEntity
  8
0
  6
Continuous
 62
     7
370
    15
100
AcDbLine
 10
283.9875758152
 20
377.2479891002
 30
0.0
 11
283.9875758152
 21
383.4611921728
 31
0.0
  0
LINE
  5
105
330
1F
100
AcDbEntity
  8
0
  6
Continuous
 62
     7
370
    15
100
AcDbLine
 10
282.5231101822
 20
386.9967273593
 30
0.0
 11
267.5231095861
 21
401.9967279553
 31
0.0
  0
LINE
  5
106
330
1F
100
AcDbEntity
  8
0
  6
Continuous
 62
     7
370
    15
100
AcDbLine
 10
267.5231095861
 20
409.0677946031
 30
0.0
 11
274.5941762339
 21
416.1388631135
 31
0.0
  0
LINE
  5
107
330
1F
100
AcDbEntity
  8
0
  6
Continuous
 62
     7
370
    15
100
AcDbLine
 10
281.6652428817
 20
416.1388631135
 30
0.0
 11
296.6652453404
 21
401.1388625175
 31
0.0
  0
LINE
  5
108
330
1F
100
AcDbEntity
  8
0
  6
Continuous
 62
     7
370
    15
100
AcDbLine
 10
303.9875753682
 20
383.4611921728
 30
0.0
 11
303.9875753682
 21
377.2479891002
 31
0.0
  0
LINE
  5
109
330
1F
100
AcDbEntity
  8
0
  6
Continuous
 62
     7
370
    15
100
AcDbLine
 10
303.9875753682
 20
377.2479891002
 30
0.0
 11
311.4931286771
 21
364.247988832
 31
0.0
  0
ARC
  5
10A
330
1F
100
AcDbEntity
  8
0
  6
Continuous
 62
     7
370
    15
100
AcDbCircle
 10
349.5648581133
 20
377.6963585012
 30
0.0
 40
5.0
100
AcDbArc
 50
225.0
 51
315.0
  0
LINE
  5
10B
330
1F
100
AcDbEntity
  8
0
  6
Continuous
 62
     7
370
    15
100
AcDbLine
 10
331.0293243798
 20
389.1608257269
 30
0.0
 11
346.0293249759
 21
374.1608251308
 31
0.0
  0
ARC
  5
10C
330
1F
100
AcDbEntity
  8
0
  6
Continuous
 62
     7
370
    15
100
AcDbCircle
 10
327.4937903014
 20
385.6252906893
 30
0.0
 40
5.0
100
AcDbArc
 50
45.0
 51
90.0
  0
LINE
  5
10D
330
1F
100
AcDbEntity
  8
0
  6
Continuous
 62
     7
370
    15
100
AcDbLine
 10
321.2805861207
 20
390.6252913599
 30
0.0
 11
327.4937891933
 21
390.6252913599
 31
0.0
  0
LINE
  5
10E
330
1F
100
AcDbEntity
  8
0
  6
Continuous
 62
     7
370
    15
100
AcDbLine
 10
308.2805858525
 20
383.1197385167
 30
0.0
 11
321.2805861207
 21
390.6252913599
 31
0.0
  0
LINE
  5
10F
330
1F
100
AcDbEntity
  8
0
  6
Continuous
 62
     7
370
    15
100
AcDbLine
 10
308.2805858525
 20
418.1308442217
 30
0.0
 11
308.2805858525
 21
383.1197385167
 31
0.0
  0
LINE
  5
110
330
1F
100
AcDbEntity
  8
0
  6
Continuous
 62
     7
370
    15
100
AcDbLine
 10
321.2805861207
 20
410.6252909129
 30
0.0
 11
308.2805858525
 21
418.1308442217
 31
0.0
  0
LINE
  5
111
330
1F
100
AcDbEntity
  8
0
  6
Continuous
 62
     7
370
    15
100
AcDbLine
 10
327.4937891933
 20
410.6252909129
 30
0.0
 11
321.2805861207
 21
410.6252909129
 31
0.0
  0
ARC
  5
112
330
1F
100
AcDbEntity
  8
0
  6
Continuous
 62
     7
370
    15
100
AcDbCircle
 10
327.4937903014
 20
385.6252906893
 30
0.0
 40
25.00000000000006
100
AcDbArc
 50
45.0
 51
90.0
  0
LINE
  5
113
330
1F
100
AcDbEntity
  8
0
  6
Continuous
 62
     7
370
    15
100
AcDbLine
 10
360.171460134
 20
388.3029584263
 30
0.0
 11
345.171459538
 21
403.302960885
 31
0.0
  0
ARC
  5
114
330
1F
100
AcDbEntity
  8
0
  6
Continuous
 62
     7
370
    15
100
AcDbCircle
 10
356.6359259251
 20
384.7674263131
 30
0.0
 40
5.0
100
AcDbArc
 50
315.0
 51
45.0
  0
LINE
  5
115
330
1F
100
AcDbEntity
  8
0
  6
Continuous
 62
     7
370
    15
100
AcDbLine
 10
353.1003916236
 20
374.1608251308
 30
0.0
 11
360.171460134
 21
381.2318917786
 31
0.0
  0
LINE
  5
116
330
1F
100
AcDbEntity
  8
0
  6
Continuous
 62
     7
370
    15
100
AcDbLine
 10
348.5041973713
 20
387.9494060253
 30
0.0
 11
336.48338407
 21
399.9702211891
 31
0.0
  0
LINE
  5
117
330
1F
100
AcDbEntity
  8
0
  6
Continuous
 62
     7
370
    15
100
AcDbLine
 10
336.48338407
 20
399.9702211891
 30
0.0
 11
334.3620622131
 21
397.8489011948
 31
0.0
  0
LINE
  5
118
330
1F
100
AcDbEntity
  8
0
  6
Continuous
 62
     7
370
    15
100
AcDbLine
 10
334.3620622131
 20
397.8489011948
 30
0.0
 11
346.3828773769
 21
385.8280878936
 31
0.0
  0
LINE
  5
119
330
1F
100
AcDbEntity
  8
0
  6
Continuous
 62
     7
370
    15
100
AcDbLine
 10
346.3828773769
 20
385.8280878936
 30
0.0
 11
348.5041973713
 21
387.9494060253
 31
0.0
  0
LINE
  5
11A
330
1F
100
AcDbEntity
  8
0
  6
Continuous
 62
     7
370
    15
100
AcDbLine
 10
230.1664793272
 20
397.5384983249
 30
0.0
 11
266.1664787088
 21
397.5384983249
 31
0.0
  0
LINE
  5
11B
330
1F
100
AcDbEntity
  8
0
  6
Continuous
 62
     7
370
    15
100
AcDbLine
 10
266.1664787088
 20
389.3757577069
 30
0.0
 11
230.1664793272
 21
386.2261663206
 31
0.0
  0
LINE
  5
11C
330
1F
100
AcDbEntity
  8
0
  6
Continuous
 62
     7
370
    15
100
AcDbLine
 10
266.1664787088
 20
397.5384983249
 30
0.0
 11
266.1664787088
 21
389.3757577069
 31
0.0
  0
LINE
  5
11D
330
1F
100
AcDbEntity
  8
0
  6
Continuous
 62
     7
370
    15
100
AcDbLine
 10
230.1664793272
 20
386.2261663206
 30
0.0
 11
230.1664793272
 21
397.5384983249
 31
0.0
  0
LINE
  5
11E
330
1F
100
AcDbEntity
  8
0
  6
Continuous
 62
     7
370
    15
100
AcDbLine
 10
233.0382894621
 20
383.6580826729
 30
0.0
 11
269.0382888437
 21
383.6580826729
 31
0.0
  0
LINE
  5
11F
330
1F
100
AcDbEntity
  8
0
  6
Continuous
 62
     7
370
    15
100
AcDbLine
 10
269.0382888437
 20
375.4953420549
 30
0.0
 11
233.0382894621
 21
372.3457506686
 31
0.0
  0
LINE
  5
120
330
1F
100
AcDbEntity
  8
0
  6
Continuous
 62
     7
370
    15
100
AcDbLine
 10
269.0382888437
 20
383.6580826729
 30
0.0
 11
269.0382888437
 21
375.4953420549
 31
0.0
  0
LINE
  5
121
330
1F
100
AcDbEntity
  8
0
  6
Continuous
 62
     7
370
    15
100
AcDbLine
 10
233.0382894621
 20
372.3457506686
 30
0.0
 11
233.0382894621
 21
383.6580826729
 31
0.0
  0
LINE
  5
122
330
1F
100
AcDbEntity
  8
0
  6
Continuous
 62
     7
370
    15
100
AcDbLine
 10
216.0637932516
 20
368.038701614
 30
0.0
 11
181.0637949652
 21
368.038701614
 31
0.0
  0
LINE
  5
123
330
1F
100
AcDbEntity
  8
0
  6
Continuous
 62
     7
370
    15
100
AcDbLine
 10
216.0637932516
 20
350.0509399675
 30
0.0
 11
216.0637932516
 21
368.038701614
 31
0.0
  0
LINE
  5
124
330
1F
100
AcDbEntity
  8
0
  6
Continuous
 62
     7
370
    15
100
AcDbLine
 10
181.0637949652
 20
346.9888370238
 30
0.0
 11
216.0637932516
 21
350.0509399675
 31
0.0
  0
LINE
  5
125
330
1F
100
AcDbEntity
  8
0
  6
Continuous
 62
     7
370
    15
100
AcDbLine
 10
181.0637949652
 20
368.038701614
 30
0.0
 11
181.0637949652
 21
346.9888370238
 31
0.0
  0
LINE
  5
126
330
1F
100
AcDbEntity
  8
0
  6
Continuous
 62
     7
370
    15
100
AcDbLine
 10
22.3332214556
 20
359.8822380314
 30
0.0
 11
47.3332218282
 21
359.8822380314
 31
0.0
  0
LINE
  5
127
330
1F
100
AcDbEntity
  8
0
  6
Continuous
 62
     7
370
    15
100
AcDbLine
 10
47.3332218282
 20
359.8822380314
 30
0.0
 11
47.3332218282
 21
352.3822377334
 31
0.0
  0
LINE
  5
128
330
1F
100
AcDbEntity
  8
0
  6
Continuous
 62
     7
370
    15
100
AcDbLine
 10
47.3332218282
 20
352.3822377334
 30
0.0
 11
44.3332213364
 21
351.3822394321
 31
0.0
  0
LINE
  5
129
330
1F
100
AcDbEntity
  8
0
  6
Continuous
 62
     7
370
    15
100
AcDbLine
 10
42.3332210086
 20
351.3822394321
 30
0.0
 11
42.3332210086
 21
352.3822377334
 31
0.0
  0
LINE
  5
12A
330
1F
100
AcDbEntity
  8
0
  6
Continuous
 62
     7
370
    15
100
AcDbLine
 10
42.3332210086
 20
352.3822377334
 30
0.0
 11
27.102919241
 21
352.3822377334
 31
0.0
  0
LINE
  5
12B
330
1F
100
AcDbEntity
  8
0
  6
Continuous
 62
     7
370
    15
100
AcDbLine
 10
44.3332213364
 20
351.3822394321
 30
0.0
 11
42.3332210086
 21
351.3822394321
 31
0.0
  0
LINE
  5
12C
330
1F
100
AcDbEntity
  8
0
  6
Continuous
 62
     7
370
    15
100
AcDbLine
 10
22.3332214556
 20
341.8822388062
 30
0.0
 11
47.3332218282
 21
341.8822388062
 31
0.0
  0
LINE
  5
12D
330
1F
100
AcDbEntity
  8
0
  6
Continuous
 62
     7
370
    15
100
AcDbLine
 10
47.3332218282
 20
341.8822388062
 30
0.0
 11
47.3332218282
 21
349.3822391043
 31
0.0
  0
LINE
  5
12E
330
1F
100
AcDbEntity
  8
0
  6
Continuous
 62
     7
370
    15
100
AcDbLine
 10
47.3332218282
 20
349.3822391043
 30
0.0
 11
44.3332213364
 21
350.3822374055
 31
0.0
  0
LINE
  5
12F
330
1F
100
AcDbEntity
  8
0
  6
Continuous
 62
     7
370
    15
100
AcDbLine
 10
44.3332213364
 20
350.3822374055
 30
0.0
 11
42.3332210086
 21
350.3822374055
 31
0.0
  0
LINE
  5
130
330
1F
100
AcDbEntity
  8
0
  6
Continuous
 62
     7
370
    15
100
AcDbLine
 10
42.3332210086
 20
350.3822374055
 30
0.0
 11
42.3332210086
 21
349.3822391043
 31
0.0
  0
LINE
  5
131
330
1F
100
AcDbEntity
  8
0
  6
Continuous
 62
     7
370
    15
100
AcDbLine
 10
42.3332210086
 20
349.3822391043
 30
0.0
 11
27.102919241
 21
349.3822391043
 31
0.0
  0
ARC
  5
132
330
1F
100
AcDbEntity
  8
0
  6
Continuous
 62
     7
370
    15
100
AcDbCircle
 10
22.3332215152
 20
350.8822383592
 30
0.0
 40
5.000000000000011
100
AcDbArc
 50
17.4576031237
 51
342.5423968763
  0
ARC
  5
133
330
1F
100
AcDbEntity
  8
0
  6
Continuous
 62
     7
370
    15
100
AcDbCircle
 10
22.3332215152
 20
350.8822383592
 30
0.0
 40
9.000000000000057
100
AcDbArc
 50
90.0
 51
270.0
  0
LINE
  5
134
330
1F
100
AcDbEntity
  8
0
  6
Continuous
 62
     7
370
    15
100
AcDbLine
 10
402.5678684773
 20
407.535913217
 30
0.0
 11
402.5678684773
 21
382.5359128445
 31
0.0
  0
LINE
  5
135
330
1F
100
AcDbEntity
  8
0
  6
Continuous
 62
     7
370
    15
100
AcDbLine
 10
402.5678684773
 20
382.5359128445
 30
0.0
 11
395.0678681793
 21
382.5359128445
 31
0.0
  0
LINE
  5
136
330
1F
100
AcDbEntity
  8
0
  6
Continuous
 62
     7
370
    15
100
AcDbLine
 10
395.0678681793
 20
382.5359128445
 30
0.0
 11
394.067869878
 21
385.5359133362
 31
0.0
  0
LINE
  5
137
330
1F
100
AcDbEntity
  8
0
  6
Continuous
 62
     7
370
    15
100
AcDbLine
 10
394.067869878
 20
387.5359136641
 30
0.0
 11
395.0678681793
 21
387.5359136641
 31
0.0
  0
LINE
  5
138
330
1F
100
AcDbEntity
  8
0
  6
Continuous
 62
     7
370
    15
100
AcDbLine
 10
395.0678681793
 20
387.5359136641
 30
0.0
 11
395.0678681793
 21
402.7662154317
 31
0.0
  0
LINE
  5
139
330
1F
100
AcDbEntity
  8
0
  6
Continuous
 62
     7
370
    15
100
AcDbLine
 10
394.067869878
 20
385.5359133362
 30
0.0
 11
394.067869878
 21
387.5359136641
 31
0.0
  0
LINE
  5
13A
330
1F
100
AcDbEntity
  8
0
  6
Continuous
 62
     7
370
    15
100
AcDbLine
 10
384.5678692522
 20
407.535913217
 30
0.0
 11
384.5678692522
 21
382.5359128445
 31
0.0
  0
LINE
  5
13B
330
1F
100
AcDbEntity
  8
0
  6
Continuous
 62
     7
370
    15
100
AcDbLine
 10
384.5678692522
 20
382.5359128445
 30
0.0
 11
392.0678695502
 21
382.5359128445
 31
0.0
  0
LINE
  5
13C
330
1F
100
AcDbEntity
  8
0
  6
Continuous
 62
     7
370
    15
100
AcDbLine
 10
392.0678695502
 20
382.5359128445
 30
0.0
 11
393.0678678515
 21
385.5359133362
 31
0.0
  0
LINE
  5
13D
330
1F
100
AcDbEntity
  8
0
  6
Continuous
 62
     7
370
    15
100
AcDbLine
 10
393.0678678515
 20
385.5359133362
 30
0.0
 11
393.0678678515
 21
387.5359136641
 31
0.0
  0
LINE
  5
13E
330
1F
100
AcDbEntity
  8
0
  6
Continuous
 62
     7
370
    15
100
AcDbLine
 10
393.0678678515
 20
387.5359136641
 30
0.0
 11
392.0678695502
 21
387.5359136641
 31
0.0
  0
LINE
  5
13F
330
1F
100
AcDbEntity
  8
0
  6
Continuous
 62
     7
370
    15
100
AcDbLine
 10
392.0678695502
 20
387.5359136641
 30
0.0
 11
392.0678695502
 21
402.7662154317
 31
0.0
  0
ARC
  5
140
330
1F
100
AcDbEntity
  8
0
  6
Continuous
 62
     7
370
    15
100
AcDbCircle
 10
393.5678688051
 20
407.5359131574
 30
0.0
 40
5.000000000000014
100
AcDbArc
 50
287.4576031237
 51
252.5423968763
  0
ARC
  5
141
330
1F
100
AcDbEntity
  8
0
  6
Continuous
 62
     7
370
    15
100
AcDbCircle
 10
393.5678688051
 20
407.5359131574
 30
0.0
 40
9.000000000000057
100
AcDbArc
 50
0.0
 51
180.0
  0
LINE
  5
142
330
1F
100
AcDbEntity
  8
0
  6
Continuous
 62
     7
370
    15
100
AcDbLine
 10
422.5077596166
 20
408.1858458609
 30
0.0
 11
422.5077596166
 21
383.1858454884
 31
0.0
  0
LINE
  5
143
330
1F
100
AcDbEntity
  8
0
  6
Continuous
 62
     7
370
    15
100
AcDbLine
 10
422.5077596166
 20
383.1858454884
 30
0.0
 11
415.0077593186
 21
383.1858454884
 31
0.0
  0
LINE
  5
144
330
1F
100
AcDbEntity
  8
0
  6
Continuous
 62
     7
370
    15
100
AcDbLine
 10
415.0077593186
 20
383.1858454884
 30
0.0
 11
414.0077610173
 21
386.1858459802
 31
0.0
  0
LINE
  5
145
330
1F
100
AcDbEntity
  8
0
  6
Continuous
 62
     7
370
    15
100
AcDbLine
 10
414.0077610173
 20
388.185846308
 30
0.0
 11
415.0077593186
 21
388.185846308
 31
0.0
  0
LINE
  5
146
330
1F
100
AcDbEntity
  8
0
  6
Continuous
 62
     7
370
    15
100
AcDbLine
 10
415.0077593186
 20
388.185846308
 30
0.0
 11
415.0077593186
 21
403.4161480756
 31
0.0
  0
LINE
  5
147
330
1F
100
AcDbEntity
  8
0
  6
Continuous
 62
     7
370
    15
100
AcDbLine
 10
414.0077610173
 20
386.1858459802
 30
0.0
 11
414.0077610173
 21
388.185846308
 31
0.0
  0
LINE
  5
148
330
1F
100
AcDbEntity
  8
0
  6
Continuous
 62
     7
370
    15
100
AcDbLine
 10
404.5077603914
 20
408.1858458609
 30
0.0
 11
404.5077603914
 21
383.1858454884
 31
0.0
  0
LINE
  5
149
330
1F
100
AcDbEntity
  8
0
  6
Continuous
 62
     7
370
    15
100
AcDbLine
 10
404.5077603914
 20
383.1858454884
 30
0.0
 11
412.0077606895
 21
383.1858454884
 31
0.0
  0
LINE
  5
14A
330
1F
100
AcDbEntity
  8
0
  6
Continuous
 62
     7
370
    15
100
AcDbLine
 10
412.0077606895
 20
383.1858454884
 30
0.0
 11
413.0077589907
 21
386.1858459802
 31
0.0
  0
LINE
  5
14B
330
1F
100
AcDbEntity
  8
0
  6
Continuous
 62
     7
370
    15
100
AcDbLine
 10
413.0077589907
 20
386.1858459802
 30
0.0
 11
413.0077589907
 21
388.185846308
 31
0.0
  0
LINE
  5
14C
330
1F
100
AcDbEntity
  8
0
  6
Continuous
 62
     7
370
    15
100
AcDbLine
 10
413.0077589907
 20
388.185846308
 30
0.0
 11
412.0077606895
 21
388.185846308
 31
0.0
  0
LINE
  5
14D
330
1F
100
AcDbEntity
  8
0
  6
Continuous
 62
     7
370
    15
100
AcDbLine
 10
412.0077606895
 20
388.185846308
 30
0.0
 11
412.0077606895
 21
403.4161480756
 31
0.0
  0
ARC
  5
14E
330
1F
100
AcDbEntity
  8
0
  6
Continuous
 62
     7
370
    15
100
AcDbCircle
 10
413.5077599444
 20
408.1858458013
 30
0.0
 40
5.000000000000069
100
AcDbArc
 50
287.4576031237
 51
252.5423968763
  0
ARC
  5
14F
330
1F
100
AcDbEntity
  8
0
  6
Continuous
 62
     7
370
    15
100
AcDbCircle
 10
413.5077599444
 20
408.1858458013
 30
0.0
 40
9.000000000000114
100
AcDbArc
 50
0.0
 51
180.0
  0
LINE
  5
150
330
1F
100
AcDbEntity
  8
0
  6
Continuous
 62
     7
370
    15
100
AcDbLine
 10
443.111780938
 20
407.9739341591
 30
0.0
 11
443.111780938
 21
382.9739337865
 31
0.0
  0
LINE
  5
151
330
1F
100
AcDbEntity
  8
0
  6
Continuous
 62
     7
370
    15
100
AcDbLine
 10
443.111780938
 20
382.9739337865
 30
0.0
 11
435.61178064
 21
382.9739337865
 31
0.0
  0
LINE
  5
152
330
1F
100
AcDbEntity
  8
0
  6
Continuous
 62
     7
370
    15
100
AcDbLine
 10
435.61178064
 20
382.9739337865
 30
0.0
 11
434.6117823387
 21
385.9739342783
 31
0.0
  0
LINE
  5
153
330
1F
100
AcDbEntity
  8
0
  6
Continuous
 62
     7
370
    15
100
AcDbLine
 10
434.6117823387
 20
387.9739346061
 30
0.0
 11
435.61178064
 21
387.9739346061
 31
0.0
  0
LINE
  5
154
330
1F
100
AcDbEntity
  8
0
  6
Continuous
 62
     7
370
    15
100
AcDbLine
 10
435.61178064
 20
387.9739346061
 30
0.0
 11
435.61178064
 21
403.2042363737
 31
0.0
  0
LINE
  5
155
330
1F
100
AcDbEntity
  8
0
  6
Continuous
 62
     7
370
    15
100
AcDbLine
 10
434.6117823387
 20
385.9739342783
 30
0.0
 11
434.6117823387
 21
387.9739346061
 31
0.0
  0
LINE
  5
156
330
1F
100
AcDbEntity
  8
0
  6
Continuous
 62
     7
370
    15
100
AcDbLine
 10
425.1117817129
 20
407.9739341591
 30
0.0
 11
425.1117817129
 21
382.9739337865
 31
0.0
  0
LINE
  5
157
330
1F
100
AcDbEntity
  8
0
  6
Continuous
 62
     7
370
    15
100
AcDbLine
 10
425.1117817129
 20
382.9739337865
 30
0.0
 11
432.6117820109
 21
382.9739337865
 31
0.0
  0
LINE
  5
158
330
1F
100
AcDbEntity
  8
0
  6
Continuous
 62
     7
370
    15
100
AcDbLine
 10
432.6117820109
 20
382.9739337865
 30
0.0
 11
433.6117803122
 21
385.9739342783
 31
0.0
  0
LINE
  5
159
330
1F
100
AcDbEntity
  8
0
  6
Continuous
 62
     7
370
    15
100
AcDbLine
 10
433.6117803122
 20
385.9739342783
 30
0.0
 11
433.6117803122
 21
387.9739346061
 31
0.0
  0
LINE
  5
15A
330
1F
100
AcDbEntity
  8
0
  6
Continuous
 62
     7
370
    15
100
AcDbLine
 10
433.6117803122
 20
387.9739346061
 30
0.0
 11
432.6117820109
 21
387.9739346061
 31
0.0
  0
LINE
  5
15B
330
1F
100
AcDbEntity
  8
0
  6
Continuous
 62
     7
370
    15
100
AcDbLine
 10
432.6117820109
 20
387.9739346061
 30
0.0
 11
432.6117820109
 21
403.2042363737
 31
0.0
  0
ARC
  5
15C
330
1F
100
AcDbEntity
  8
0
  6
Continuous
 62
     7
370
    15
100
AcDbCircle
 10
434.1117812658
 20
407.9739340995
 30
0.0
 40
4.999999999999997
100
AcDbArc
 50
287.4576031237
 51
252.5423968763
  0
ARC
  5
15D
330
1F
100
AcDbEntity
  8
0
  6
Continuous
 62
     7
370
    15
100
AcDbCircle
 10
434.1117812658
 20
407.9739340995
 30
0.0
 40
9.000000000000057
100
AcDbArc
 50
0.0
 51
180.0
  0
LINE
  5
15E
330
1F
100
AcDbEntity
  8
0
  6
Continuous
 62
     7
370
    15
100
AcDbLine
 10
463.492532527
 20
408.1915248763
 30
0.0
 11
463.492532527
 21
383.1915245037
 31
0.0
  0
LINE
  5
15F
330
1F
100
AcDbEntity
  8
0
  6
Continuous
 62
     7
370
    15
100
AcDbLine
 10
463.492532527
 20
383.1915245037
 30
0.0
 11
455.992532229
 21
383.1915245037
 31
0.0
  0
LINE
  5
160
330
1F
100
AcDbEntity
  8
0
  6
Continuous
 62
     7
370
    15
100
AcDbLine
 10
455.992532229
 20
383.1915245037
 30
0.0
 11
454.9925339277
 21
386.1915249955
 31
0.0
  0
LINE
  5
161
330
1F
100
AcDbEntity
  8
0
  6
Continuous
 62
     7
370
    15
100
AcDbLine
 10
454.9925339277
 20
388.1915253233
 30
0.0
 11
455.992532229
 21
388.1915253233
 31
0.0
  0
LINE
  5
162
330
1F
100
AcDbEntity
  8
0
  6
Continuous
 62
     7
370
    15
100
AcDbLine
 10
455.992532229
 20
388.1915253233
 30
0.0
 11
455.992532229
 21
403.4218270909
 31
0.0
  0
LINE
  5
163
330
1F
100
AcDbEntity
  8
0
  6
Continuous
 62
     7
370
    15
100
AcDbLine
 10
454.9925339277
 20
386.1915249955
 30
0.0
 11
454.9925339277
 21
388.1915253233
 31
0.0
  0
LINE
  5
164
330
1F
100
AcDbEntity
  8
0
  6
Continuous
 62
     7
370
    15
100
AcDbLine
 10
445.4925333018
 20
408.1915248763
 30
0.0
 11
445.4925333018
 21
383.1915245037
 31
0.0
  0
LINE
  5
165
330
1F
100
AcDbEntity
  8
0
  6
Continuous
 62
     7
370
    15
100
AcDbLine
 10
445.4925333018
 20
383.1915245037
 30
0.0
 11
452.9925335999
 21
383.1915245037
 31
0.0
  0
LINE
  5
166
330
1F
100
AcDbEntity
  8
0
  6
Continuous
 62
     7
370
    15
100
AcDbLine
 10
452.9925335999
 20
383.1915245037
 30
0.0
 11
453.9925319011
 21
386.1915249955
 31
0.0
  0
LINE
  5
167
330
1F
100
AcDbEntity
  8
0
  6
Continuous
 62
     7
370
    15
100
AcDbLine
 10
453.9925319011
 20
386.1915249955
 30
0.0
 11
453.9925319011
 21
388.1915253233
 31
0.0
  0
LINE
  5
168
330
1F
100
AcDbEntity
  8
0
  6
Continuous
 62
     7
370
    15
100
AcDbLine
 10
453.9925319011
 20
388.1915253233
 30
0.0
 11
452.9925335999
 21
388.1915253233
 31
0.0
  0
LINE
  5
169
330
1F
100
AcDbEntity
  8
0
  6
Continuous
 62
     7
370
    15
100
AcDbLine
 10
452.9925335999
 20
388.1915253233
 30
0.0
 11
452.9925335999
 21
403.4218270909
 31
0.0
  0
ARC
  5
16A
330
1F
100
AcDbEntity
  8
0
  6
Continuous
 62
     7
370
    15
100
AcDbCircle
 10
454.4925328548
 20
408.1915248167
 30
0.0
 40
4.999999999999997
100
AcDbArc
 50
287.4576031237
 51
252.5423968763
  0
ARC
  5
16B
330
1F
100
AcDbEntity
  8
0
  6
Continuous
 62
     7
370
    15
100
AcDbCircle
 10
454.4925328548
 20
408.1915248167
 30
0.0
 40
9.000000000000057
100
AcDbArc
 50
0.0
 51
180.0
  0
LINE
  5
16C
330
1F
100
AcDbEntity
  8
0
  6
Continuous
 62
     7
370
    15
100
AcDbLine
 10
378.2581699705
 20
369.5052992171
 30
0.0
 11
378.2581699705
 21
344.5052988445
 31
0.0
  0
LINE
  5
16D
330
1F
100
AcDbEntity
  8
0
  6
Continuous
 62
     7
370
    15
100
AcDbLine
 10
378.2581699705
 20
344.5052988445
 30
0.0
 11
370.7581696725
 21
344.5052988445
 31
0.0
  0
LINE
  5
16E
330
1F
100
AcDbEntity
  8
0
  6
Continuous
 62
     7
370
    15
100
AcDbLine
 10
370.7581696725
 20
344.5052988445
 30
0.0
 11
369.7581713713
 21
347.5052993363
 31
0.0
  0
LINE
  5
16F
330
1F
100
AcDbEntity
  8
0
  6
Continuous
 62
     7
370
    15
100
AcDbLine
 10
369.7581713713
 20
349.5052996641
 30
0.0
 11
370.7581696725
 21
349.5052996641
 31
0.0
  0
LINE
  5
170
330
1F
100
AcDbEntity
  8
0
  6
Continuous
 62
     7
370
    15
100
AcDbLine
 10
370.7581696725
 20
349.5052996641
 30
0.0
 11
370.7581696725
 21
364.7356014317
 31
0.0
  0
LINE
  5
171
330
1F
100
AcDbEntity
  8
0
  6
Continuous
 62
     7
370
    15
100
AcDbLine
 10
369.7581713713
 20
347.5052993363
 30
0.0
 11
369.7581713713
 21
349.5052996641
 31
0.0
  0
LINE
  5
172
330
1F
100
AcDbEntity
  8
0
  6
Continuous
 62
     7
370
    15
100
AcDbLine
 10
360.2581707454
 20
369.5052992171
 30
0.0
 11
360.2581707454
 21
344.5052988445
 31
0.0
  0
LINE
  5
173
330
1F
100
AcDbEntity
  8
0
  6
Continuous
 62
     7
370
    15
100
AcDbLine
 10
360.2581707454
 20
344.5052988445
 30
0.0
 11
367.7581710434
 21
344.5052988445
 31
0.0
  0
LINE
  5
174
330
1F
100
AcDbEntity
  8
0
  6
Continuous
 62
     7
370
    15
100
AcDbLine
 10
367.7581710434
 20
344.5052988445
 30
0.0
 11
368.7581693447
 21
347.5052993363
 31
0.0
  0
LINE
  5
175
330
1F
100
AcDbEntity
  8
0
  6
Continuous
 62
     7
370
    15
100
AcDbLine
 10
368.7581693447
 20
347.5052993363
 30
0.0
 11
368.7581693447
 21
349.5052996641
 31
0.0
  0
LINE
  5
176
330
1F
100
AcDbEntity
  8
0
  6
Continuous
 62
     7
370
    15
100
AcDbLine
 10
368.7581693447
 20
349.5052996641
 30
0.0
 11
367.7581710434
 21
349.5052996641
 31
0.0
  0
LINE
  5
177
330
1F
100
AcDbEntity
  8
0
  6
Continuous
 62
     7
370
    15
100
AcDbLine
 10
367.7581710434
 20
349.5052996641
 30
0.0
 11
367.7581710434
 21
364.7356014317
 31
0.0
  0
ARC
  5
178
330
1F
100
AcDbEntity
  8
0
  6
Continuous
 62
     7
370
    15
100
AcDbCircle
 10
369.2581702984
 20
369.5052991575
 30
0.0
 40
5.000000000000014
100
AcDbArc
 50
287.4576031237
 51
252.5423968763
  0
ARC
  5
179
330
1F
100
AcDbEntity
  8
0
  6
Continuous
 62
     7
370
    15
100
AcDbCircle
 10
369.2581702984
 20
369.5052991575
 30
0.0
 40
9.000000000000057
100
AcDbArc
 50
0.0
 51
180.0
  0
LINE
  5
17A
330
1F
100
AcDbEntity
  8
0
  6
Continuous
 62
     7
370
    15
100
AcDbLine
 10
398.4000333499
 20
369.7228899342
 30
0.0
 11
398.4000333499
 21
344.7228895617
 31
0.0
  0
LINE
  5
17B
330
1F
100
AcDbEntity
  8
0
  6
Continuous
 62
     7
370
    15
100
AcDbLine
 10
398.4000333499
 20
344.7228895617
 30
0.0
 11
390.9000330519
 21
344.7228895617
 31
0.0
  0
LINE
  5
17C
330
1F
100
AcDbEntity
  8
0
  6
Continuous
 62
     7
370
    15
100
AcDbLine
 10
390.9000330519
 20
344.7228895617
 30
0.0
 11
389.9000347506
 21
347.7228900535
 31
0.0
  0
LINE
  5
17D
330
1F
100
AcDbEntity
  8
0
  6
Continuous
 62
     7
370
    15
100
AcDbLine
 10
389.9000347506
 20
349.7228903813
 30
0.0
 11
390.9000330519
 21
349.7228903813
 31
0.0
  0
LINE
  5
17E
330
1F
100
AcDbEntity
  8
0
  6
Continuous
 62
     7
370
    15
100
AcDbLine
 10
390.9000330519
 20
349.7228903813
 30
0.0
 11
390.9000330519
 21
364.9531921489
 31
0.0
  0
LINE
  5
17F
330
1F
100
AcDbEntity
  8
0
  6
Continuous
 62
     7
370
    15
100
AcDbLine
 10
389.9000347506
 20
347.7228900535
 30
0.0
 11
389.9000347506
 21
349.7228903813
 31
0.0
  0
LINE
  5
180
330
1F
100
AcDbEntity
  8
0
  6
Continuous
 62
     7
370
    15
100
AcDbLine
 10
380.4000341248
 20
369.7228899342
 30
0.0
 11
380.4000341248
 21
344.7228895617
 31
0.0
  0
LINE
  5
181
330
1F
100
AcDbEntity
  8
0
  6
Continuous
 62
     7
370
    15
100
AcDbLine
 10
380.4000341248
 20
344.7228895617
 30
0.0
 11
387.9000344228
 21
344.7228895617
 31
0.0
  0
LINE
  5
182
330
1F
100
AcDbEntity
  8
0
  6
Continuous
 62
     7
370
    15
100
AcDbLine
 10
387.9000344228
 20
344.7228895617
 30
0.0
 11
388.9000327241
 21
347.7228900535
 31
0.0
  0
LINE
  5
183
330
1F
100
AcDbEntity
  8
0
  6
Continuous
 62
     7
370
    15
100
AcDbLine
 10
388.9000327241
 20
347.7228900535
 30
0.0
 11
388.9000327241
 21
349.7228903813
 31
0.0
  0
LINE
  5
184
330
1F
100
AcDbEntity
  8
0
  6
Continuous
 62
     7
370
    15
100
AcDbLine
 10
388.9000327241
 20
349.7228903813
 30
0.0
 11
387.9000344228
 21
349.7228903813
 31
0.0
  0
LINE
  5
185
330
1F
100
AcDbEntity
  8
0
  6
Continuous
 62
     7
370
    15
100
AcDbLine
 10
387.9000344228
 20
349.7228903813
 30
0.0
 11
387.9000344228
 21
364.9531921489
 31
0.0
  0
ARC
  5
186
330
1F
100
AcDbEntity
  8
0
  6
Continuous
 62
     7
370
    15
100
AcDbCircle
 10
389.4000336778
 20
369.7228898746
 30
0.0
 40
5.000000000000014
100
AcDbArc
 50
287.4576031237
 51
252.5423968763
  0
ARC
  5
187
330
1F
100
AcDbEntity
  8
0
  6
Continuous
 62
     7
370
    15
100
AcDbCircle
 10
389.4000336778
 20
369.7228898746
 30
0.0
 40
9.000000000000057
100
AcDbArc
 50
0.0
 51
180.0
  0
LINE
  5
188
330
1F
100
AcDbEntity
  8
0
  6
Continuous
 62
     7
370
    15
100
AcDbLine
 10
382.1142000421
 20
406.7819128431
 30
0.0
 11
382.1142000421
 21
381.7819124706
 31
0.0
  0
LINE
  5
189
330
1F
100
AcDbEntity
  8
0
  6
Continuous
 62
     7
370
    15
100
AcDbLine
 10
382.1142000421
 20
381.7819124706
 30
0.0
 11
374.6141997441
 21
381.7819124706
 31
0.0
  0
LINE
  5
18A
330
1F
100
AcDbEntity
  8
0
  6
Continuous
 62
     7
370
    15
100
AcDbLine
 10
374.6141997441
 20
381.7819124706
 30
0.0
 11
373.6142014428
 21
384.7819129624
 31
0.0
  0
LINE
  5
18B
330
1F
100
AcDbEntity
  8
0
  6
Continuous
 62
     7
370
    15
100
AcDbLine
 10
373.6142014428
 20
386.7819132902
 30
0.0
 11
374.6141997441
 21
386.7819132902
 31
0.0
  0
LINE
  5
18C
330
1F
100
AcDbEntity
  8
0
  6
Continuous
 62
     7
370
    15
100
AcDbLine
 10
374.6141997441
 20
386.7819132902
 30
0.0
 11
374.6141997441
 21
402.0122150578
 31
0.0
  0
LINE
  5
18D
330
1F
100
AcDbEntity
  8
0
  6
Continuous
 62
     7
370
    15
100
AcDbLine
 10
373.6142014428
 20
384.7819129624
 30
0.0
 11
373.6142014428
 21
386.7819132902
 31
0.0
  0
LINE
  5
18E
330
1F
100
AcDbEntity
  8
0
  6
Continuous
 62
     7
370
    15
100
AcDbLine
 10
364.114200817
 20
406.7819128431
 30
0.0
 11
364.114200817
 21
381.7819124706
 31
0.0
  0
LINE
  5
18F
330
1F
100
AcDbEntity
  8
0
  6
Continuous
 62
     7
370
    15
100
AcDbLine
 10
364.114200817
 20
381.7819124706
 30
0.0
 11
371.614201115
 21
381.7819124706
 31
0.0
  0
LINE
  5
190
330
1F
100
AcDbEntity
  8
0
  6
Continuous
 62
     7
370
    15
100
AcDbLine
 10
371.614201115
 20
381.7819124706
 30
0.0
 11
372.6141994163
 21
384.7819129624
 31
0.0
  0
LINE
  5
191
330
1F
100
AcDbEntity
  8
0
  6
Continuous
 62
     7
370
    15
100
AcDbLine
 10
372.6141994163
 20
384.7819129624
 30
0.0
 11
372.6141994163
 21
386.7819132902
 31
0.0
  0
LINE
  5
192
330
1F
100
AcDbEntity
  8
0
  6
Continuous
 62
     7
370
    15
100
AcDbLine
 10
372.6141994163
 20
386.7819132902
 30
0.0
 11
371.614201115
 21
386.7819132902
 31
0.0
  0
LINE
  5
193
330
1F
100
AcDbEntity
  8
0
  6
Continuous
 62
     7
370
    15
100
AcDbLine
 10
371.614201115
 20
386.7819132902
 30
0.0
 11
371.614201115
 21
402.0122150578
 31
0.0
  0
ARC
  5
194
330
1F
100
AcDbEntity
  8
0
  6
Continuous
 62
     7
370
    15
100
AcDbCircle
 10
373.11420037
 20
406.7819127835
 30
0.0
 40
5.000000000000014
100
AcDbArc
 50
287.4576031237
 51
252.5423968763
  0
ARC
  5
195
330
1F
100
AcDbEntity
  8
0
  6
Continuous
 62
     7
370
    15
100
AcDbCircle
 10
373.11420037
 20
406.7819127835
 30
0.0
 40
9.000000000000057
100
AcDbArc
 50
0.0
 51
180.0
  0
LINE
  5
196
330
1F
100
AcDbEntity
  8
0
  6
Continuous
 62
     7
370
    15
100
AcDbLine
 10
63.5062247397
 20
360.5435539833
 30
0.0
 11
88.5062251122
 21
360.5435539833
 31
0.0
  0
LINE
  5
197
330
1F
100
AcDbEntity
  8
0
  6
Continuous
 62
     7
370
    15
100
AcDbLine
 10
88.5062251122
 20
360.5435539833
 30
0.0
 11
88.5062251122
 21
353.0435536853
 31
0.0
  0
LINE
  5
198
330
1F
100
AcDbEntity
  8
0
  6
Continuous
 62
     7
370
    15
100
AcDbLine
 10
88.5062251122
 20
353.0435536853
 30
0.0
 11
85.5062246204
 21
352.043555384
 31
0.0
  0
LINE
  5
199
330
1F
100
AcDbEntity
  8
0
  6
Continuous
 62
     7
370
    15
100
AcDbLine
 10
83.5062242926
 20
352.043555384
 30
0.0
 11
83.5062242926
 21
353.0435536853
 31
0.0
  0
LINE
  5
19A
330
1F
100
AcDbEntity
  8
0
  6
Continuous
 62
     7
370
    15
100
AcDbLine
 10
83.5062242926
 20
353.0435536853
 30
0.0
 11
68.275922525
 21
353.0435536853
 31
0.0
  0
LINE
  5
19B
330
1F
100
AcDbEntity
  8
0
  6
Continuous
 62
     7
370
    15
100
AcDbLine
 10
85.5062246204
 20
352.043555384
 30
0.0
 11
83.5062242926
 21
352.043555384
 31
0.0
  0
LINE
  5
19C
330
1F
100
AcDbEntity
  8
0
  6
Continuous
 62
     7
370
    15
100
AcDbLine
 10
63.5062247397
 20
342.5435547582
 30
0.0
 11
88.5062251122
 21
342.5435547582
 31
0.0
  0
LINE
  5
19D
330
1F
100
AcDbEntity
  8
0
  6
Continuous
 62
     7
370
    15
100
AcDbLine
 10
88.5062251122
 20
342.5435547582
 30
0.0
 11
88.5062251122
 21
350.0435550562
 31
0.0
  0
LINE
  5
19E
330
1F
100
AcDbEntity
  8
0
  6
Continuous
 62
     7
370
    15
100
AcDbLine
 10
88.5062251122
 20
350.0435550562
 30
0.0
 11
85.5062246204
 21
351.0435533575
 31
0.0
  0
LINE
  5
19F
330
1F
100
AcDbEntity
  8
0
  6
Continuous
 62
     7
370
    15
100
AcDbLine
 10
85.5062246204
 20
351.0435533575
 30
0.0
 11
83.5062242926
 21
351.0435533575
 31
0.0
  0
LINE
  5
1A0
330
1F
100
AcDbEntity
  8
0
  6
Continuous
 62
     7
370
    15
100
AcDbLine
 10
83.5062242926
 20
351.0435533575
 30
0.0
 11
83.5062242926
 21
350.0435550562
 31
0.0
  0
LINE
  5
1A1
330
1F
100
AcDbEntity
  8
0
  6
Continuous
 62
     7
370
    15
100
AcDbLine
 10
83.5062242926
 20
350.0435550562
 30
0.0
 11
68.275922525
 21
350.0435550562
 31
0.0
  0
ARC
  5
1A2
330
1F
100
AcDbEntity
  8
0
  6
Continuous
 62
     7
370
    15
100
AcDbCircle
 10
63.5062247993
 20
351.5435543112
 30
0.0
 40
5.000000000000004
100
AcDbArc
 50
17.4576031237
 51
342.5423968763
  0
ARC
  5
1A3
330
1F
100
AcDbEntity
  8
0
  6
Continuous
 62
     7
370
    15
100
AcDbCircle
 10
63.5062247993
 20
351.5435543112
 30
0.0
 40
9.000000000000057
100
AcDbArc
 50
90.0
 51
270.0
  0
LINE
  5
1A4
330
1F
100
AcDbEntity
  8
0
  6
Continuous
 62
     7
370
    15
100
AcDbLine
 10
464.7386285557
 20
372.9573066134
 30
0.0
 11
464.7386285557
 21
347.9573062409
 31
0.0
  0
LINE
  5
1A5
330
1F
100
AcDbEntity
  8
0
  6
Continuous
 62
     7
370
    15
100
AcDbLine
 10
464.7386285557
 20
347.9573062409
 30
0.0
 11
457.2386282577
 21
347.9573062409
 31
0.0
  0
LINE
  5
1A6
330
1F
100
AcDbEntity
  8
0
  6
Continuous
 62
     7
370
    15
100
AcDbLine
 10
457.2386282577
 20
347.9573062409
 30
0.0
 11
456.2386299564
 21
350.9573067326
 31
0.0
  0
LINE
  5
1A7
330
1F
100
AcDbEntity
  8
0
  6
Continuous
 62
     7
370
    15
100
AcDbLine
 10
456.2386299564
 20
352.9573070605
 30
0.0
 11
457.2386282577
 21
352.9573070605
 31
0.0
  0
LINE
  5
1A8
330
1F
100
AcDbEntity
  8
0
  6
Continuous
 62
     7
370
    15
100
AcDbLine
 10
457.2386282577
 20
352.9573070605
 30
0.0
 11
457.2386282577
 21
368.187608828
 31
0.0
  0
LINE
  5
1A9
330
1F
100
AcDbEntity
  8
0
  6
Continuous
 62
     7
370
    15
100
AcDbLine
 10
456.2386299564
 20
350.9573067326
 30
0.0
 11
456.2386299564
 21
352.9573070605
 31
0.0
  0
LINE
  5
1AA
330
1F
100
AcDbEntity
  8
0
  6
Continuous
 62
     7
370
    15
100
AcDbLine
 10
446.7386293306
 20
372.9573066134
 30
0.0
 11
446.7386293306
 21
347.9573062409
 31
0.0
  0
LINE
  5
1AB
330
1F
100
AcDbEntity
  8
0
  6
Continuous
 62
     7
370
    15
100
AcDbLine
 10
446.7386293306
 20
347.9573062409
 30
0.0
 11
454.2386296286
 21
347.9573062409
 31
0.0
  0
LINE
  5
1AC
330
1F
100
AcDbEntity
  8
0
  6
Continuous
 62
     7
370
    15
100
AcDbLine
 10
454.2386296286
 20
347.9573062409
 30
0.0
 11
455.2386279299
 21
350.9573067326
 31
0.0
  0
LINE
  5
1AD
330
1F
100
AcDbEntity
  8
0
  6
Continuous
 62
     7
370
    15
100
AcDbLine
 10
455.2386279299
 20
350.9573067326
 30
0.0
 11
455.2386279299
 21
352.9573070605
 31
0.0
  0
LINE
  5
1AE
330
1F
100
AcDbEntity
  8
0
  6
Continuous
 62
     7
370
    15
100
AcDbLine
 10
455.2386279299
 20
352.9573070605
 30
0.0
 11
454.2386296286
 21
352.9573070605
 31
0.0
  0
LINE
  5
1AF
330
1F
100
AcDbEntity
  8
0
  6
Continuous
 62
     7
370
    15
100
AcDbLine
 10
454.2386296286
 20
352.9573070605
 30
0.0
 11
454.2386296286
 21
368.187608828
 31
0.0
  0
ARC
  5
1B0
330
1F
100
AcDbEntity
  8
0
  6
Continuous
 62
     7
370
    15
100
AcDbCircle
 10
455.7386288836
 20
372.9573065538
 30
0.0
 40
5.000000000000069
100
AcDbArc
 50
287.4576031237
 51
252.5423968763
  0
ARC
  5
1B1
330
1F
100
AcDbEntity
  8
0
  6
Continuous
 62
     7
370
    15
100
AcDbCircle
 10
455.7386288836
 20
372.9573065538
 30
0.0
 40
9.000000000000057
100
AcDbArc
 50
0.0
 51
180.0
  0
LINE
  5
1B2
330
1F
100
AcDbEntity
  8
0
  6
Continuous
 62
     7
370
    15
100
AcDbLine
 10
596.967902791
 20
158.0751361402
 30
0.0
 11
626.9679002578
 21
158.0751361402
 31
0.0
  0
LINE
  5
1B3
330
1F
100
AcDbEntity
  8
0
  6
Continuous
 62
     7
370
    15
100
AcDbLine
 10
596.967902791
 20
137.0751364233
 30
0.0
 11
596.967902791
 21
158.0751361402
 31
0.0
  0
LINE
  5
1B4
330
1F
100
AcDbEntity
  8
0
  6
Continuous
 62
     7
370
    15
100
AcDbLine
 10
603.1982049461
 20
137.0751364233
 30
0.0
 11
596.967902791
 21
137.0751364233
 31
0.0
  0
LINE
  5
1B5
330
1F
100
AcDbEntity
  8
0
  6
Continuous
 62
     7
370
    15
100
AcDbLine
 10
603.1982049461
 20
154.0751354845
 30
0.0
 11
603.1982049461
 21
137.0751364233
 31
0.0
  0
LINE
  5
1B6
330
1F
100
AcDbEntity
  8
0
  6
Continuous
 62
     7
370
    15
100
AcDbLine
 10
626.9679002578
 20
154.0751354845
 30
0.0
 11
603.1982049461
 21
154.0751354845
 31
0.0
  0
LINE
  5
1B7
330
1F
100
AcDbEntity
  8
0
  6
Continuous
 62
     7
370
    15
100
AcDbLine
 10
626.9679002578
 20
158.0751361402
 30
0.0
 11
626.9679002578
 21
154.0751354845
 31
0.0
  0
LINE
  5
1B8
330
1F
100
AcDbEntity
  8
0
  6
Continuous
 62
     7
370
    15
100
AcDbLine
 10
626.9679002578
 20
180.075136021
 30
0.0
 11
603.1982049461
 21
180.075136021
 31
0.0
  0
LINE
  5
1B9
330
1F
100
AcDbEntity
  8
0
  6
Continuous
 62
     7
370
    15
100
AcDbLine
 10
603.1982049461
 20
180.075136021
 30
0.0
 11
603.1982049461
 21
197.0751350822
 31
0.0
  0
LINE
  5
1BA
330
1F
100
AcDbEntity
  8
0
  6
Continuous
 62
     7
370
    15
100
AcDbLine
 10
603.1982049461
 20
197.0751350822
 30
0.0
 11
596.967902791
 21
197.0751350822
 31
0.0
  0
LINE
  5
1BB
330
1F
100
AcDbEntity
  8
0
  6
Continuous
 62
     7
370
    15
100
AcDbLine
 10
596.967902791
 20
197.0751350822
 30
0.0
 11
596.967902791
 21
176.0751353653
 31
0.0
  0
LINE
  5
1BC
330
1F
100
AcDbEntity
  8
0
  6
Continuous
 62
     7
370
    15
100
AcDbLine
 10
596.967902791
 20
176.0751353653
 30
0.0
 11
626.9679002578
 21
176.0751353653
 31
0.0
  0
LINE
  5
1BD
330
1F
100
AcDbEntity
  8
0
  6
Continuous
 62
     7
370
    15
100
AcDbLine
 10
626.9679002578
 20
176.0751353653
 30
0.0
 11
626.9679002578
 21
180.075136021
 31
0.0
  0
LINE
  5
1BE
330
1F
100
AcDbEntity
  8
0
  6
Continuous
 62
     7
370
    15
100
AcDbLine
 10
590.6982056911
 20
180.075136021
 30
0.0
 11
587.4285072203
 21
180.075136021
 31
0.0
  0
LINE
  5
1BF
330
1F
100
AcDbEntity
  8
0
  6
Continuous
 62
     7
370
    15
100
AcDbLine
 10
587.4285072203
 20
199.0751372727
 30
0.0
 11
590.6982056911
 21
199.0751372727
 31
0.0
  0
LINE
  5
1C0
330
1F
100
AcDbEntity
  8
0
  6
Continuous
 62
     7
370
    15
100
AcDbLine
 10
590.6982056911
 20
220.0751351269
 30
0.0
 11
590.6982056911
 21
199.0751372727
 31
0.0
  0
LINE
  5
1C1
330
1F
100
AcDbEntity
  8
0
  6
Continuous
 62
     7
370
    15
100
AcDbLine
 10
696.6982044394
 20
220.0751351269
 30
0.0
 11
590.6982056911
 21
220.0751351269
 31
0.0
  0
LINE
  5
1C2
330
1F
100
AcDbEntity
  8
0
  6
Continuous
 62
     7
370
    15
100
AcDbLine
 10
696.6982044394
 20
114.0751363786
 30
0.0
 11
696.6982044394
 21
220.0751351269
 31
0.0
  0
LINE
  5
1C3
330
1F
100
AcDbEntity
  8
0
  6
Continuous
 62
     7
370
    15
100
AcDbLine
 10
696.6982044394
 20
114.0751363786
 30
0.0
 11
590.6982056911
 21
114.0751363786
 31
0.0
  0
LINE
  5
1C4
330
1F
100
AcDbEntity
  8
0
  6
Continuous
 62
     7
370
    15
100
AcDbLine
 10
590.6982056911
 20
114.0751363786
 30
0.0
 11
590.6982056911
 21
135.0751342328
 31
0.0
  0
LINE
  5
1C5
330
1F
100
AcDbEntity
  8
0
  6
Continuous
 62
     7
370
    15
100
AcDbLine
 10
587.4285072203
 20
135.0751342328
 30
0.0
 11
590.6982056911
 21
135.0751342328
 31
0.0
  0
LINE
  5
1C6
330
1F
100
AcDbEntity
  8
0
  6
Continuous
 62
     7
370
    15
100
AcDbLine
 10
587.4285072203
 20
135.0751342328
 30
0.0
 11
587.4285072203
 21
154.0751354845
 31
0.0
  0
LINE
  5
1C7
330
1F
100
AcDbEntity
  8
0
  6
Continuous
 62
     7
370
    15
100
AcDbLine
 10
590.6982056911
 20
154.0751354845
 30
0.0
 11
587.4285072203
 21
154.0751354845
 31
0.0
  0
LINE
  5
1C8
330
1F
100
AcDbEntity
  8
0
  6
Continuous
 62
     7
370
    15
100
AcDbLine
 10
590.6982056911
 20
154.0751354845
 30
0.0
 11
590.6982056911
 21
180.075136021
 31
0.0
  0
LINE
  5
1C9
330
1F
100
AcDbEntity
  8
0
  6
Continuous
 62
     7
370
    15
100
AcDbLine
 10
587.4285072203
 20
199.0751372727
 30
0.0
 11
587.4285072203
 21
180.075136021
 31
0.0
  0
LINE
  5
1CA
330
1F
100
AcDbEntity
  8
0
  6
Continuous
 62
     7
370
    15
100
AcDbLine
 10
660.0227858886
 20
400.6548796178
 30
0.0
 11
660.0227858886
 21
394.6548786343
 31
0.0
  0
LINE
  5
1CB
330
1F
100
AcDbEntity
  8
0
  6
Continuous
 62
     7
370
    15
100
AcDbLine
 10
657.0227863282
 20
400.6548796178
 30
0.0
 11
660.0227858886
 21
400.6548796178
 31
0.0
  0
LINE
  5
1CC
330
1F
100
AcDbEntity
  8
0
  6
Continuous
 62
     7
370
    15
100
AcDbLine
 10
657.0227863282
 20
400.6548796178
 30
0.0
 11
657.0227863282
 21
394.6548786343
 31
0.0
  0
LINE
  5
1CD
330
1F
100
AcDbEntity
  8
0
  6
Continuous
 62
     7
370
    15
100
AcDbLine
 10
657.0227863282
 20
394.6548786343
 30
0.0
 11
660.0227858886
 21
394.6548786343
 31
0.0
  0
LINE
  5
1CE
330
1F
100
AcDbEntity
  8
0
  6
Continuous
 62
     7
370
    15
100
AcDbLine
 10
666.0227868721
 20
400.6548796178
 30
0.0
 11
666.0227868721
 21
394.6548786343
 31
0.0
  0
LINE
  5
1CF
330
1F
100
AcDbEntity
  8
0
  6
Continuous
 62
     7
370
    15
100
AcDbLine
 10
663.0227863804
 20
400.6548796178
 30
0.0
 11
666.0227868721
 21
400.6548796178
 31
0.0
  0
LINE
  5
1D0
330
1F
100
AcDbEntity
  8
0
  6
Continuous
 62
     7
370
    15
100
AcDbLine
 10
663.0227863804
 20
400.6548796178
 30
0.0
 11
663.0227863804
 21
394.6548786343
 31
0.0
  0
LINE
  5
1D1
330
1F
100
AcDbEntity
  8
0
  6
Continuous
 62
     7
370
    15
100
AcDbLine
 10
663.0227863804
 20
394.6548786343
 30
0.0
 11
666.0227868721
 21
394.6548786343
 31
0.0
  0
LINE
  5
1D2
330
1F
100
AcDbEntity
  8
0
  6
Continuous
 62
     7
370
    15
100
AcDbLine
 10
672.022785993
 20
400.6548796178
 30
0.0
 11
672.022785993
 21
394.6548786343
 31
0.0
  0
LINE
  5
1D3
330
1F
100
AcDbEntity
  8
0
  6
Continuous
 62
     7
370
    15
100
AcDbLine
 10
669.0227873639
 20
400.6548796178
 30
0.0
 11
672.022785993
 21
400.6548796178
 31
0.0
  0
LINE
  5
1D4
330
1F
100
AcDbEntity
  8
0
  6
Continuous
 62
     7
370
    15
100
AcDbLine
 10
669.0227873639
 20
400.6548796178
 30
0.0
 11
669.0227873639
 21
394.6548786343
 31
0.0
  0
LINE
  5
1D5
330
1F
100
AcDbEntity
  8
0
  6
Continuous
 62
     7
370
    15
100
AcDbLine
 10
669.0227873639
 20
394.6548786343
 30
0.0
 11
672.022785993
 21
394.6548786343
 31
0.0
  0
LINE
  5
1D6
330
1F
100
AcDbEntity
  8
0
  6
Continuous
 62
     7
370
    15
100
AcDbLine
 10
653.6734141425
 20
369.1548791111
 30
0.0
 11
653.6734141425
 21
372.1548791372
 31
0.0
  0
LINE
  5
1D7
330
1F
100
AcDbEntity
  8
0
  6
Continuous
 62
     7
370
    15
100
AcDbLine
 10
681.0962054894
 20
369.1548791111
 30
0.0
 11
653.6734141425
 21
369.1548791111
 31
0.0
  0
LINE
  5
1D8
330
1F
100
AcDbEntity
  8
0
  6
Continuous
 62
     7
370
    15
100
AcDbLine
 10
681.0962054894
 20
369.1548791111
 30
0.0
 11
681.0962054894
 21
372.1548791372
 31
0.0
  0
LINE
  5
1D9
330
1F
100
AcDbEntity
  8
0
  6
Continuous
 62
     7
370
    15
100
AcDbLine
 10
653.6734141425
 20
372.1548791372
 30
0.0
 11
681.0962054894
 21
372.1548791372
 31
0.0
  0
LINE
  5
1DA
330
1F
100
AcDbEntity
  8
0
  6
Continuous
 62
     7
370
    15
100
AcDbLine
 10
622.3727874473
 20
372.1548791372
 30
0.0
 11
622.3727874473
 21
369.1548791111
 31
0.0
  0
LINE
  5
1DB
330
1F
100
AcDbEntity
  8
0
  6
Continuous
 62
     7
370
    15
100
AcDbLine
 10
622.3727874473
 20
369.1548791111
 30
0.0
 11
630.372786896
 21
369.1548791111
 31
0.0
  0
LINE
  5
1DC
330
1F
100
AcDbEntity
  8
0
  6
Continuous
 62
     7
370
    15
100
AcDbLine
 10
630.372786896
 20
369.1548791111
 30
0.0
 11
630.372786896
 21
372.1548791372
 31
0.0
  0
LINE
  5
1DD
330
1F
100
AcDbEntity
  8
0
  6
Continuous
 62
     7
370
    15
100
AcDbLine
 10
630.372786896
 20
372.1548791372
 30
0.0
 11
633.3727864564
 21
372.1548791372
 31
0.0
  0
LINE
  5
1DE
330
1F
100
AcDbEntity
  8
0
  6
Continuous
 62
     7
370
    15
100
AcDbLine
 10
633.3727864564
 20
372.1548791372
 30
0.0
 11
633.3727864564
 21
375.1548791633
 31
0.0
  0
LINE
  5
1DF
330
1F
100
AcDbEntity
  8
0
  6
Continuous
 62
     7
370
    15
100
AcDbLine
 10
633.3727864564
 20
375.1548791633
 30
0.0
 11
599.9487396345
 21
375.1548791633
 31
0.0
  0
LINE
  5
1E0
330
1F
100
AcDbEntity
  8
0
  6
Continuous
 62
     7
370
    15
100
AcDbLine
 10
599.9487396345
 20
372.1548791372
 30
0.0
 11
599.9487396345
 21
375.1548791633
 31
0.0
  0
LINE
  5
1E1
330
1F
100
AcDbEntity
  8
0
  6
Continuous
 62
     7
370
    15
100
AcDbLine
 10
602.9487382636
 20
372.1548791372
 30
0.0
 11
599.9487396345
 21
372.1548791372
 31
0.0
  0
LINE
  5
1E2
330
1F
100
AcDbEntity
  8
0
  6
Continuous
 62
     7
370
    15
100
AcDbLine
 10
602.9487382636
 20
369.1548791111
 30
0.0
 11
602.9487382636
 21
372.1548791372
 31
0.0
  0
LINE
  5
1E3
330
1F
100
AcDbEntity
  8
0
  6
Continuous
 62
     7
370
    15
100
AcDbLine
 10
610.9487395749
 20
369.1548791111
 30
0.0
 11
602.9487382636
 21
369.1548791111
 31
0.0
  0
LINE
  5
1E4
330
1F
100
AcDbEntity
  8
0
  6
Continuous
 62
     7
370
    15
100
AcDbLine
 10
610.9487395749
 20
372.1548791372
 30
0.0
 11
610.9487395749
 21
369.1548791111
 31
0.0
  0
LINE
  5
1E5
330
1F
100
AcDbEntity
  8
0
  6
Continuous
 62
     7
370
    15
100
AcDbLine
 10
610.9487395749
 20
372.1548791372
 30
0.0
 11
622.3727874473
 21
372.1548791372
 31
0.0
  0
LINE
  5
1E6
330
1F
100
AcDbEntity
  8
0
  6
Continuous
 62
     7
370
    15
100
AcDbLine
 10
592.0227859184
 20
409.1548782171
 30
0.0
 11
589.0227872894
 21
409.1548782171
 31
0.0
  0
LINE
  5
1E7
330
1F
100
AcDbEntity
  8
0
  6
Continuous
 62
     7
370
    15
100
AcDbLine
 10
592.0227859184
 20
379.1548788876
 30
0.0
 11
589.0227872894
 21
379.1548788876
 31
0.0
  0
LINE
  5
1E8
330
1F
100
AcDbEntity
  8
0
  6
Continuous
 62
     7
370
    15
100
AcDbLine
 10
592.0227859184
 20
379.1548788876
 30
0.0
 11
592.0227859184
 21
409.1548782171
 31
0.0
  0
LINE
  5
1E9
330
1F
100
AcDbEntity
  8
0
  6
Continuous
 62
     7
370
    15
100
AcDbLine
 10
692.0227874086
 20
384.132593158
 30
0.0
 11
695.0227860377
 21
384.132593158
 31
0.0
  0
LINE
  5
1EA
330
1F
100
AcDbEntity
  8
0
  6
Continuous
 62
     7
370
    15
100
AcDbLine
 10
695.0227860377
 20
401.8454786719
 30
0.0
 11
695.0227860377
 21
384.132593158
 31
0.0
  0
LINE
  5
1EB
330
1F
100
AcDbEntity
  8
0
  6
Continuous
 62
     7
370
    15
100
AcDbLine
 10
692.0227874086
 20
401.8454786719
 30
0.0
 11
695.0227860377
 21
401.8454786719
 31
0.0
  0
LINE
  5
1EC
330
1F
100
AcDbEntity
  8
0
  6
Continuous
 62
     7
370
    15
100
AcDbLine
 10
692.0227874086
 20
401.8454786719
 30
0.0
 11
692.0227874086
 21
384.132593158
 31
0.0
  0
LINE
  5
1ED
330
1F
100
AcDbEntity
  8
0
  6
Continuous
 62
     7
370
    15
100
AcDbLine
 10
592.0227859184
 20
359.1548793346
 30
0.0
 11
589.0227872894
 21
359.1548793346
 31
0.0
  0
LINE
  5
1EE
330
1F
100
AcDbEntity
  8
0
  6
Continuous
 62
     7
370
    15
100
AcDbLine
 10
592.0227859184
 20
369.1548791111
 30
0.0
 11
592.0227859184
 21
359.1548793346
 31
0.0
  0
LINE
  5
1EF
330
1F
100
AcDbEntity
  8
0
  6
Continuous
 62
     7
370
    15
100
AcDbLine
 10
589.0227872894
 20
369.1548791111
 30
0.0
 11
592.0227859184
 21
369.1548791111
 31
0.0
  0
LINE
  5
1F0
330
1F
100
AcDbEntity
  8
0
  6
Continuous
 62
     7
370
    15
100
AcDbLine
 10
589.0227872894
 20
359.1548793346
 30
0.0
 11
589.0227872894
 21
369.1548791111
 31
0.0
  0
LINE
  5
1F1
330
1F
100
AcDbEntity
  8
0
  6
Continuous
 62
     7
370
    15
100
AcDbLine
 10
692.0227874086
 20
364.1548792229
 30
0.0
 11
695.0227860377
 21
364.1548792229
 31
0.0
  0
LINE
  5
1F2
330
1F
100
AcDbEntity
  8
0
  6
Continuous
 62
     7
370
    15
100
AcDbLine
 10
695.0227860377
 20
364.1548792229
 30
0.0
 11
695.0227860377
 21
374.1548789994
 31
0.0
  0
LINE
  5
1F3
330
1F
100
AcDbEntity
  8
0
  6
Continuous
 62
     7
370
    15
100
AcDbLine
 10
695.0227860377
 20
374.1548789994
 30
0.0
 11
692.0227874086
 21
374.1548789994
 31
0.0
  0
LINE
  5
1F4
330
1F
100
AcDbEntity
  8
0
  6
Continuous
 62
     7
370
    15
100
AcDbLine
 10
692.0227874086
 20
374.1548789994
 30
0.0
 11
692.0227874086
 21
364.1548792229
 31
0.0
  0
LINE
  5
1F5
330
1F
100
AcDbEntity
  8
0
  6
Continuous
 62
     7
370
    15
100
AcDbLine
 10
624.0227874384
 20
400.6548796178
 30
0.0
 11
624.0227874384
 21
394.6548786343
 31
0.0
  0
LINE
  5
1F6
330
1F
100
AcDbEntity
  8
0
  6
Continuous
 62
     7
370
    15
100
AcDbLine
 10
627.0227869988
 20
394.6548786343
 30
0.0
 11
624.0227874384
 21
394.6548786343
 31
0.0
  0
LINE
  5
1F7
330
1F
100
AcDbEntity
  8
0
  6
Continuous
 62
     7
370
    15
100
AcDbLine
 10
627.0227869988
 20
400.6548796178
 30
0.0
 11
627.0227869988
 21
394.6548786343
 31
0.0
  0
LINE
  5
1F8
330
1F
100
AcDbEntity
  8
0
  6
Continuous
 62
     7
370
    15
100
AcDbLine
 10
627.0227869988
 20
400.6548796178
 30
0.0
 11
624.0227874384
 21
400.6548796178
 31
0.0
  0
LINE
  5
1F9
330
1F
100
AcDbEntity
  8
0
  6
Continuous
 62
     7
370
    15
100
AcDbLine
 10
612.0227873341
 20
400.6548796178
 30
0.0
 11
612.0227873341
 21
394.6548786343
 31
0.0
  0
LINE
  5
1FA
330
1F
100
AcDbEntity
  8
0
  6
Continuous
 62
     7
370
    15
100
AcDbLine
 10
615.0227859631
 20
394.6548786343
 30
0.0
 11
612.0227873341
 21
394.6548786343
 31
0.0
  0
LINE
  5
1FB
330
1F
100
AcDbEntity
  8
0
  6
Continuous
 62
     7
370
    15
100
AcDbLine
 10
615.0227859631
 20
400.6548796178
 30
0.0
 11
615.0227859631
 21
394.6548786343
 31
0.0
  0
LINE
  5
1FC
330
1F
100
AcDbEntity
  8
0
  6
Continuous
 62
     7
370
    15
100
AcDbLine
 10
615.0227859631
 20
400.6548796178
 30
0.0
 11
612.0227873341
 21
400.6548796178
 31
0.0
  0
LINE
  5
1FD
330
1F
100
AcDbEntity
  8
0
  6
Continuous
 62
     7
370
    15
100
AcDbLine
 10
618.0227864549
 20
400.6548796178
 30
0.0
 11
618.0227864549
 21
394.6548786343
 31
0.0
  0
LINE
  5
1FE
330
1F
100
AcDbEntity
  8
0
  6
Continuous
 62
     7
370
    15
100
AcDbLine
 10
621.0227869466
 20
394.6548786343
 30
0.0
 11
618.0227864549
 21
394.6548786343
 31
0.0
  0
LINE
  5
1FF
330
1F
100
AcDbEntity
  8
0
  6
Continuous
 62
     7
370
    15
100
AcDbLine
 10
621.0227869466
 20
400.6548796178
 30
0.0
 11
621.0227869466
 21
394.6548786343
 31
0.0
  0
LINE
  5
200
330
1F
100
AcDbEntity
  8
0
  6
Continuous
 62
     7
370
    15
100
AcDbLine
 10
621.0227869466
 20
400.6548796178
 30
0.0
 11
618.0227864549
 21
400.6548796178
 31
0.0
  0
LINE
  5
201
330
1F
100
AcDbEntity
  8
0
  6
Continuous
 62
     7
370
    15
100
AcDbLine
 10
609.0227868423
 20
418.4048783363
 30
0.0
 11
609.0227868423
 21
415.6548802138
 31
0.0
  0
LINE
  5
202
330
1F
100
AcDbEntity
  8
0
  6
Continuous
 62
     7
370
    15
100
AcDbLine
 10
609.0227868423
 20
415.6548802138
 30
0.0
 11
615.0227859631
 21
415.6548802138
 31
0.0
  0
LINE
  5
203
330
1F
100
AcDbEntity
  8
0
  6
Continuous
 62
     7
370
    15
100
AcDbLine
 10
615.0227859631
 20
409.1548782171
 30
0.0
 11
615.0227859631
 21
415.6548802138
 31
0.0
  0
LINE
  5
204
330
1F
100
AcDbEntity
  8
0
  6
Continuous
 62
     7
370
    15
100
AcDbLine
 10
618.0227864549
 20
409.1548782171
 30
0.0
 11
615.0227859631
 21
409.1548782171
 31
0.0
  0
LINE
  5
205
330
1F
100
AcDbEntity
  8
0
  6
Continuous
 62
     7
370
    15
100
AcDbLine
 10
618.0227864549
 20
415.6548802138
 30
0.0
 11
618.0227864549
 21
409.1548782171
 31
0.0
  0
LINE
  5
206
330
1F
100
AcDbEntity
  8
0
  6
Continuous
 62
     7
370
    15
100
AcDbLine
 10
618.0227864549
 20
415.6548802138
 30
0.0
 11
621.0227869466
 21
415.6548802138
 31
0.0
  0
LINE
  5
207
330
1F
100
AcDbEntity
  8
0
  6
Continuous
 62
     7
370
    15
100
AcDbLine
 10
621.0227869466
 20
409.1548782171
 30
0.0
 11
621.0227869466
 21
415.6548802138
 31
0.0
  0
LINE
  5
208
330
1F
100
AcDbEntity
  8
0
  6
Continuous
 62
     7
370
    15
100
AcDbLine
 10
624.0227874384
 20
409.1548782171
 30
0.0
 11
621.0227869466
 21
409.1548782171
 31
0.0
  0
LINE
  5
209
330
1F
100
AcDbEntity
  8
0
  6
Continuous
 62
     7
370
    15
100
AcDbLine
 10
624.0227874384
 20
415.6548802138
 30
0.0
 11
624.0227874384
 21
409.1548782171
 31
0.0
  0
LINE
  5
20A
330
1F
100
AcDbEntity
  8
0
  6
Continuous
 62
     7
370
    15
100
AcDbLine
 10
624.0227874384
 20
415.6548802138
 30
0.0
 11
630.0227865592
 21
415.6548802138
 31
0.0
  0
LINE
  5
20B
330
1F
100
AcDbEntity
  8
0
  6
Continuous
 62
     7
370
    15
100
AcDbLine
 10
630.0227865592
 20
415.6548802138
 30
0.0
 11
630.0227865592
 21
418.4048783363
 31
0.0
  0
LINE
  5
20C
330
1F
100
AcDbEntity
  8
0
  6
Continuous
 62
     7
370
    15
100
AcDbLine
 10
630.0227865592
 20
418.4048783363
 30
0.0
 11
654.0227867678
 21
418.4048783363
 31
0.0
  0
LINE
  5
20D
330
1F
100
AcDbEntity
  8
0
  6
Continuous
 62
     7
370
    15
100
AcDbLine
 10
654.0227867678
 20
415.6548802138
 30
0.0
 11
654.0227867678
 21
418.4048783363
 31
0.0
  0
LINE
  5
20E
330
1F
100
AcDbEntity
  8
0
  6
Continuous
 62
     7
370
    15
100
AcDbLine
 10
660.0227858886
 20
415.6548802138
 30
0.0
 11
654.0227867678
 21
415.6548802138
 31
0.0
  0
LINE
  5
20F
330
1F
100
AcDbEntity
  8
0
  6
Continuous
 62
     7
370
    15
100
AcDbLine
 10
660.0227858886
 20
415.6548802138
 30
0.0
 11
660.0227858886
 21
409.1548782171
 31
0.0
  0
LINE
  5
210
330
1F
100
AcDbEntity
  8
0
  6
Continuous
 62
     7
370
    15
100
AcDbLine
 10
660.0227858886
 20
409.1548782171
 30
0.0
 11
663.0227863804
 21
409.1548782171
 31
0.0
  0
LINE
  5
211
330
1F
100
AcDbEntity
  8
0
  6
Continuous
 62
     7
370
    15
100
AcDbLine
 10
663.0227863804
 20
409.1548782171
 30
0.0
 11
663.0227863804
 21
415.6548802138
 31
0.0
  0
LINE
  5
212
330
1F
100
AcDbEntity
  8
0
  6
Continuous
 62
     7
370
    15
100
AcDbLine
 10
666.0227868721
 20
415.6548802138
 30
0.0
 11
663.0227863804
 21
415.6548802138
 31
0.0
  0
LINE
  5
213
330
1F
100
AcDbEntity
  8
0
  6
Continuous
 62
     7
370
    15
100
AcDbLine
 10
666.0227868721
 20
415.6548802138
 30
0.0
 11
666.0227868721
 21
409.1548782171
 31
0.0
  0
LINE
  5
214
330
1F
100
AcDbEntity
  8
0
  6
Continuous
 62
     7
370
    15
100
AcDbLine
 10
666.0227868721
 20
409.1548782171
 30
0.0
 11
669.0227873639
 21
409.1548782171
 31
0.0
  0
LINE
  5
215
330
1F
100
AcDbEntity
  8
0
  6
Continuous
 62
     7
370
    15
100
AcDbLine
 10
669.0227873639
 20
409.1548782171
 30
0.0
 11
669.0227873639
 21
415.6548802138
 31
0.0
  0
LINE
  5
216
330
1F
100
AcDbEntity
  8
0
  6
Continuous
 62
     7
370
    15
100
AcDbLine
 10
675.0227864847
 20
415.6548802138
 30
0.0
 11
669.0227873639
 21
415.6548802138
 31
0.0
  0
LINE
  5
217
330
1F
100
AcDbEntity
  8
0
  6
Continuous
 62
     7
370
    15
100
AcDbLine
 10
675.0227864847
 20
418.4048783363
 30
0.0
 11
675.0227864847
 21
415.6548802138
 31
0.0
  0
LINE
  5
218
330
1F
100
AcDbEntity
  8
0
  6
Continuous
 62
     7
370
    15
100
AcDbLine
 10
675.0227864847
 20
418.4048783363
 30
0.0
 11
692.0227874086
 21
418.4048783363
 31
0.0
  0
LINE
  5
219
330
1F
100
AcDbEntity
  8
0
  6
Continuous
 62
     7
370
    15
100
AcDbLine
 10
692.0227874086
 20
418.4048783363
 30
0.0
 11
692.0227874086
 21
409.1548782171
 31
0.0
  0
LINE
  5
21A
330
1F
100
AcDbEntity
  8
0
  6
Continuous
 62
     7
370
    15
100
AcDbLine
 10
692.0227874086
 20
409.1548782171
 30
0.0
 11
695.0227860377
 21
409.1548782171
 31
0.0
  0
LINE
  5
21B
330
1F
100
AcDbEntity
  8
0
  6
Continuous
 62
     7
370
    15
100
AcDbLine
 10
695.0227860377
 20
419.1548798562
 30
0.0
 11
695.0227860377
 21
409.1548782171
 31
0.0
  0
LINE
  5
21C
330
1F
100
AcDbEntity
  8
0
  6
Continuous
 62
     7
370
    15
100
AcDbLine
 10
695.0227860377
 20
419.1548798562
 30
0.0
 11
717.0227896437
 21
419.1548798562
 31
0.0
  0
LINE
  5
21D
330
1F
100
AcDbEntity
  8
0
  6
Continuous
 62
     7
370
    15
100
AcDbLine
 10
717.0227896437
 20
354.1548794464
 30
0.0
 11
717.0227896437
 21
419.1548798562
 31
0.0
  0
LINE
  5
21E
330
1F
100
AcDbEntity
  8
0
  6
Continuous
 62
     7
370
    15
100
AcDbLine
 10
577.0227890477
 20
354.1548794464
 30
0.0
 11
717.0227896437
 21
354.1548794464
 31
0.0
  0
LINE
  5
21F
330
1F
100
AcDbEntity
  8
0
  6
Continuous
 62
     7
370
    15
100
AcDbLine
 10
577.0227890477
 20
354.1548794464
 30
0.0
 11
577.0227890477
 21
418.4048783363
 31
0.0
  0
LINE
  5
220
330
1F
100
AcDbEntity
  8
0
  6
Continuous
 62
     7
370
    15
100
AcDbLine
 10
577.0227890477
 20
418.4048783363
 30
0.0
 11
609.0227868423
 21
418.4048783363
 31
0.0
  0
LINE
  5
221
330
1F
100
AcDbEntity
  8
0
  6
Continuous
 62
     7
370
    15
100
AcDbLine
 10
589.0227872894
 20
379.1548788876
 30
0.0
 11
589.0227872894
 21
409.1548782171
 31
0.0
  0
LINE
  5
222
330
1F
100
AcDbEntity
  8
0
  6
Continuous
 62
     7
370
    15
100
AcDbLine
 10
589.8965801415
 20
311.9186222326
 30
0.0
 11
589.8965801415
 21
322.9186222326
 31
0.0
  0
LINE
  5
223
330
1F
100
AcDbEntity
  8
0
  6
Continuous
 62
     7
370
    15
100
AcDbLine
 10
592.8965801415
 20
311.9186222326
 30
0.0
 11
589.8965801415
 21
311.9186222326
 31
0.0
  0
LINE
  5
224
330
1F
100
AcDbEntity
  8
0
  6
Continuous
 62
     7
370
    15
100
AcDbLine
 10
592.8965801415
 20
311.9186222326
 30
0.0
 11
592.8965801415
 21
322.9186222326
 31
0.0
  0
LINE
  5
225
330
1F
100
AcDbEntity
  8
0
  6
Continuous
 62
     7
370
    15
100
AcDbLine
 10
592.8965801415
 20
322.9186222326
 30
0.0
 11
589.8965801415
 21
322.9186222326
 31
0.0
  0
LINE
  5
226
330
1F
100
AcDbEntity
  8
0
  6
Continuous
 62
     7
370
    15
100
AcDbLine
 10
682.8965801415
 20
345.9186222326
 30
0.0
 11
705.8965801415
 21
345.9186222326
 31
0.0
  0
LINE
  5
227
330
1F
100
AcDbEntity
  8
0
  6
Continuous
 62
     7
370
    15
100
AcDbLine
 10
682.8965801415
 20
342.9186222326
 30
0.0
 11
682.8965801415
 21
345.9186222326
 31
0.0
  0
LINE
  5
228
330
1F
100
AcDbEntity
  8
0
  6
Continuous
 62
     7
370
    15
100
AcDbLine
 10
682.8965801415
 20
342.9186222326
 30
0.0
 11
705.8965801415
 21
342.9186222326
 31
0.0
  0
LINE
  5
229
330
1F
100
AcDbEntity
  8
0
  6
Continuous
 62
     7
370
    15
100
AcDbLine
 10
705.8965801415
 20
342.9186222326
 30
0.0
 11
705.8965801415
 21
345.9186222326
 31
0.0
  0
LINE
  5
22A
330
1F
100
AcDbEntity
  8
0
  6
Continuous
 62
     7
370
    15
100
AcDbLine
 10
611.1645293339
 20
305.9186222326
 30
0.0
 11
634.628630949
 21
305.9186222326
 31
0.0
  0
LINE
  5
22B
330
1F
100
AcDbEntity
  8
0
  6
Continuous
 62
     7
370
    15
100
AcDbLine
 10
634.628630949
 20
308.9186222326
 30
0.0
 11
634.628630949
 21
305.9186222326
 31
0.0
  0
LINE
  5
22C
330
1F
100
AcDbEntity
  8
0
  6
Continuous
 62
     7
370
    15
100
AcDbLine
 10
611.1645293339
 20
308.9186222326
 30
0.0
 11
634.628630949
 21
308.9186222326
 31
0.0
  0
LINE
  5
22D
330
1F
100
AcDbEntity
  8
0
  6
Continuous
 62
     7
370
    15
100
AcDbLine
 10
611.1645293339
 20
308.9186222326
 30
0.0
 11
611.1645293339
 21
305.9186222326
 31
0.0
  0
LINE
  5
22E
330
1F
100
AcDbEntity
  8
0
  6
Continuous
 62
     7
370
    15
100
AcDbLine
 10
682.8965801415
 20
305.9186222326
 30
0.0
 11
705.8965801415
 21
305.9186222326
 31
0.0
  0
LINE
  5
22F
330
1F
100
AcDbEntity
  8
0
  6
Continuous
 62
     7
370
    15
100
AcDbLine
 10
682.8965801415
 20
302.9186222326
 30
0.0
 11
682.8965801415
 21
305.9186222326
 31
0.0
  0
LINE
  5
230
330
1F
100
AcDbEntity
  8
0
  6
Continuous
 62
     7
370
    15
100
AcDbLine
 10
682.8965801415
 20
302.9186222326
 30
0.0
 11
705.8965801415
 21
302.9186222326
 31
0.0
  0
LINE
  5
231
330
1F
100
AcDbEntity
  8
0
  6
Continuous
 62
     7
370
    15
100
AcDbLine
 10
705.8965801415
 20
302.9186222326
 30
0.0
 11
705.8965801415
 21
305.9186222326
 31
0.0
  0
LINE
  5
232
330
1F
100
AcDbEntity
  8
0
  6
Continuous
 62
     7
370
    15
100
AcDbLine
 10
717.8965801415
 20
352.9186222326
 30
0.0
 11
592.8965801415
 21
352.9186222326
 31
0.0
  0
LINE
  5
233
330
1F
100
AcDbEntity
  8
0
  6
Continuous
 62
     7
370
    15
100
AcDbLine
 10
717.8965801415
 20
287.9186222326
 30
0.0
 11
717.8965801415
 21
352.9186222326
 31
0.0
  0
LINE
  5
234
330
1F
100
AcDbEntity
  8
0
  6
Continuous
 62
     7
370
    15
100
AcDbLine
 10
717.8965801415
 20
287.9186222326
 30
0.0
 11
577.8965801415
 21
287.9186222326
 31
0.0
  0
LINE
  5
235
330
1F
100
AcDbEntity
  8
0
  6
Continuous
 62
     7
370
    15
100
AcDbLine
 10
577.8965801415
 20
287.9186222326
 30
0.0
 11
577.8965801415
 21
352.9186222326
 31
0.0
  0
LINE
  5
236
330
1F
100
AcDbEntity
  8
0
  6
Continuous
 62
     7
370
    15
100
AcDbLine
 10
589.8965801415
 20
352.9186222326
 30
0.0
 11
577.8965801415
 21
352.9186222326
 31
0.0
  0
LINE
  5
237
330
1F
100
AcDbEntity
  8
0
  6
Continuous
 62
     7
370
    15
100
AcDbLine
 10
589.8965801415
 20
336.9186222326
 30
0.0
 11
589.8965801415
 21
352.9186222326
 31
0.0
  0
LINE
  5
238
330
1F
100
AcDbEntity
  8
0
  6
Continuous
 62
     7
370
    15
100
AcDbLine
 10
592.8965801415
 20
336.9186222326
 30
0.0
 11
589.8965801415
 21
336.9186222326
 31
0.0
  0
LINE
  5
239
330
1F
100
AcDbEntity
  8
0
  6
Continuous
 62
     7
370
    15
100
AcDbLine
 10
592.8965801415
 20
336.9186222326
 30
0.0
 11
592.8965801415
 21
352.9186222326
 31
0.0
  0
LINE
  5
23A
330
1F
100
AcDbEntity
  8
0
  6
Continuous
 62
     7
370
    15
100
AcDbLine
 10
589.8965801415
 20
292.9186222326
 30
0.0
 11
592.8965801415
 21
292.9186222326
 31
0.0
  0
LINE
  5
23B
330
1F
100
AcDbEntity
  8
0
  6
Continuous
 62
     7
370
    15
100
AcDbLine
 10
592.8965801415
 20
292.9186222326
 30
0.0
 11
592.8965801415
 21
302.9186222326
 31
0.0
  0
LINE
  5
23C
330
1F
100
AcDbEntity
  8
0
  6
Continuous
 62
     7
370
    15
100
AcDbLine
 10
592.8965801415
 20
302.9186222326
 30
0.0
 11
589.8965801415
 21
302.9186222326
 31
0.0
  0
LINE
  5
23D
330
1F
100
AcDbEntity
  8
0
  6
Continuous
 62
     7
370
    15
100
AcDbLine
 10
589.8965801415
 20
302.9186222326
 30
0.0
 11
589.8965801415
 21
292.9186222326
 31
0.0
  0
LINE
  5
23E
330
1F
100
AcDbEntity
  8
0
  6
Continuous
 62
     7
370
    15
100
AcDbLine
 10
692.8965801415
 20
322.9186222326
 30
0.0
 11
695.8965801415
 21
322.9186222326
 31
0.0
  0
LINE
  5
23F
330
1F
100
AcDbEntity
  8
0
  6
Continuous
 62
     7
370
    15
100
AcDbLine
 10
695.8965801415
 20
322.9186222326
 30
0.0
 11
695.8965801415
 21
332.9186222326
 31
0.0
  0
LINE
  5
240
330
1F
100
AcDbEntity
  8
0
  6
Continuous
 62
     7
370
    15
100
AcDbLine
 10
695.8965801415
 20
332.9186222326
 30
0.0
 11
692.8965801415
 21
332.9186222326
 31
0.0
  0
LINE
  5
241
330
1F
100
AcDbEntity
  8
0
  6
Continuous
 62
     7
370
    15
100
AcDbLine
 10
692.8965801415
 20
332.9186222326
 30
0.0
 11
692.8965801415
 21
322.9186222326
 31
0.0
  0
LINE
  5
242
330
1F
100
AcDbEntity
  8
0
  6
Continuous
 62
     7
370
    15
100
AcDbLine
 10
662.8965801415
 20
305.9186222326
 30
0.0
 11
652.8965801415
 21
305.9186222326
 31
0.0
  0
LINE
  5
243
330
1F
100
AcDbEntity
  8
0
  6
Continuous
 62
     7
370
    15
100
AcDbLine
 10
652.8965801415
 20
305.9186222326
 30
0.0
 11
652.8965801415
 21
302.9186222326
 31
0.0
  0
LINE
  5
244
330
1F
100
AcDbEntity
  8
0
  6
Continuous
 62
     7
370
    15
100
AcDbLine
 10
652.8965801415
 20
302.9186222326
 30
0.0
 11
662.8965801415
 21
302.9186222326
 31
0.0
  0
LINE
  5
245
330
1F
100
AcDbEntity
  8
0
  6
Continuous
 62
     7
370
    15
100
AcDbLine
 10
662.8965801415
 20
302.9186222326
 30
0.0
 11
662.8965801415
 21
305.9186222326
 31
0.0
  0
LINE
  5
246
330
1F
100
AcDbEntity
  8
0
  6
Continuous
 62
     7
370
    15
100
AcDbLine
 10
706.0959196273
 20
269.2969846866
 30
0.0
 11
710.0959196273
 21
271.6063857633
 31
0.0
  0
LINE
  5
247
330
1F
100
AcDbEntity
  8
0
  6
Continuous
 62
     7
370
    15
100
AcDbLine
 10
706.0959196273
 20
276.6063857633
 30
0.0
 11
706.0959196273
 21
269.2969846866
 31
0.0
  0
LINE
  5
248
330
1F
100
AcDbEntity
  8
0
  6
Continuous
 62
     7
370
    15
100
AcDbLine
 10
703.0959196273
 20
276.6063857633
 30
0.0
 11
706.0959196273
 21
276.6063857633
 31
0.0
  0
LINE
  5
249
330
1F
100
AcDbEntity
  8
0
  6
Continuous
 62
     7
370
    15
100
AcDbLine
 10
703.0959196273
 20
276.6063857633
 30
0.0
 11
703.0959196273
 21
267.564933879
 31
0.0
  0
LINE
  5
24A
330
1F
100
AcDbEntity
  8
0
  6
Continuous
 62
     7
370
    15
100
AcDbLine
 10
703.0959196273
 20
267.564933879
 30
0.0
 11
701.4356655895
 21
266.6063857633
 31
0.0
  0
LINE
  5
24B
330
1F
100
AcDbEntity
  8
0
  6
Continuous
 62
     7
370
    15
100
AcDbLine
 10
701.4356655895
 20
266.6063857633
 30
0.0
 11
663.0959196273
 21
266.6063857633
 31
0.0
  0
ARC
  5
24C
330
1F
100
AcDbEntity
  8
0
  6
Continuous
 62
     7
370
    15
100
AcDbCircle
 10
663.0959196273
 20
262.6063857633
 30
0.0
 40
4.0
100
AcDbArc
 50
90.0
 51
270.0
  0
LINE
  5
24D
330
1F
100
AcDbEntity
  8
0
  6
Continuous
 62
     7
370
    15
100
AcDbLine
 10
663.0959196273
 20
258.6063857633
 30
0.0
 11
673.0959196273
 21
258.6063857633
 31
0.0
  0
ARC
  5
24E
330
1F
100
AcDbEntity
  8
0
  6
Continuous
 62
     7
370
    15
100
AcDbCircle
 10
673.0959196273
 20
177.5563857633
 30
0.0
 40
81.04999999999995
100
AcDbArc
 50
68.2756318694
 51
90.0
  0
LINE
  5
24F
330
1F
100
AcDbEntity
  8
0
  6
Continuous
 62
     7
370
    15
100
AcDbLine
 10
703.0959196273
 20
252.8498283729
 30
0.0
 11
703.0959196273
 21
241.6063857633
 31
0.0
  0
LINE
  5
250
330
1F
100
AcDbEntity
  8
0
  6
Continuous
 62
     7
370
    15
100
AcDbLine
 10
706.0959196273
 20
241.6063857633
 30
0.0
 11
703.0959196273
 21
241.6063857633
 31
0.0
  0
LINE
  5
251
330
1F
100
AcDbEntity
  8
0
  6
Continuous
 62
     7
370
    15
100
AcDbLine
 10
706.0959196273
 20
241.6063857633
 30
0.0
 11
706.0959196273
 21
231.6063857633
 31
0.0
  0
LINE
  5
252
330
1F
100
AcDbEntity
  8
0
  6
Continuous
 62
     7
370
    15
100
AcDbLine
 10
706.0959196273
 20
231.6063857633
 30
0.0
 11
703.0959196273
 21
231.6063857633
 31
0.0
  0
LINE
  5
253
330
1F
100
AcDbEntity
  8
0
  6
Continuous
 62
     7
370
    15
100
AcDbLine
 10
703.0959196273
 20
231.6063857633
 30
0.0
 11
703.0959196273
 21
221.6063857633
 31
0.0
  0
LINE
  5
254
330
1F
100
AcDbEntity
  8
0
  6
Continuous
 62
     7
370
    15
100
AcDbLine
 10
703.0959196273
 20
221.6063857633
 30
0.0
 11
603.0959196273
 21
221.6063857633
 31
0.0
  0
LINE
  5
255
330
1F
100
AcDbEntity
  8
0
  6
Continuous
 62
     7
370
    15
100
AcDbLine
 10
603.0959196273
 20
256.6063857633
 30
0.0
 11
603.0959196273
 21
221.6063857633
 31
0.0
  0
LINE
  5
256
330
1F
100
AcDbEntity
  8
0
  6
Continuous
 62
     7
370
    15
100
AcDbLine
 10
600.0959196273
 20
256.6063857633
 30
0.0
 11
603.0959196273
 21
256.6063857633
 31
0.0
  0
LINE
  5
257
330
1F
100
AcDbEntity
  8
0
  6
Continuous
 62
     7
370
    15
100
AcDbLine
 10
600.0959196273
 20
256.6063857633
 30
0.0
 11
600.0959196273
 21
266.6063857633
 31
0.0
  0
LINE
  5
258
330
1F
100
AcDbEntity
  8
0
  6
Continuous
 62
     7
370
    15
100
AcDbLine
 10
600.0959196273
 20
266.6063857633
 30
0.0
 11
603.0959196273
 21
266.6063857633
 31
0.0
  0
LINE
  5
259
330
1F
100
AcDbEntity
  8
0
  6
Continuous
 62
     7
370
    15
100
AcDbLine
 10
603.0959196273
 20
286.6063857633
 30
0.0
 11
603.0959196273
 21
266.6063857633
 31
0.0
  0
LINE
  5
25A
330
1F
100
AcDbEntity
  8
0
  6
Continuous
 62
     7
370
    15
100
AcDbLine
 10
603.0959196273
 20
286.6063857633
 30
0.0
 11
718.0959196273
 21
286.6063857633
 31
0.0
  0
LINE
  5
25B
330
1F
100
AcDbEntity
  8
0
  6
Continuous
 62
     7
370
    15
100
AcDbLine
 10
718.0959196273
 20
266.6063857633
 30
0.0
 11
718.0959196273
 21
286.6063857633
 31
0.0
  0
LINE
  5
25C
330
1F
100
AcDbEntity
  8
0
  6
Continuous
 62
     7
370
    15
100
AcDbLine
 10
712.754755699
 20
266.6063857633
 30
0.0
 11
718.0959196273
 21
266.6063857633
 31
0.0
  0
ARC
  5
25D
330
1F
100
AcDbEntity
  8
0
  6
Continuous
 62
     7
370
    15
100
AcDbCircle
 10
663.0959196273
 20
262.6063857633
 30
0.0
 40
49.81967482832449
100
AcDbArc
 50
4.6052101058
 51
10.4077113125
  0
LINE
  5
25E
330
1F
100
AcDbEntity
  8
0
  6
Continuous
 62
     7
370
    15
100
AcDbLine
 10
710.0959196273
 20
271.6063857633
 30
0.0
 11
712.0959196273
 21
271.6063857633
 31
0.0
  0
LINE
  5
25F
330
1F
100
AcDbEntity
  8
0
  6
Continuous
 62
     7
370
    15
100
AcDbLine
 10
670.1817060649
 20
239.6063857633
 30
0.0
 11
670.1817060649
 21
236.6063857633
 31
0.0
  0
LINE
  5
260
330
1F
100
AcDbEntity
  8
0
  6
Continuous
 62
     7
370
    15
100
AcDbLine
 10
670.1817060649
 20
239.6063857633
 30
0.0
 11
636.0101331897
 21
239.6063857633
 31
0.0
  0
LINE
  5
261
330
1F
100
AcDbEntity
  8
0
  6
Continuous
 62
     7
370
    15
100
AcDbLine
 10
636.0101331897
 20
239.6063857633
 30
0.0
 11
636.0101331897
 21
236.6063857633
 31
0.0
  0
LINE
  5
262
330
1F
100
AcDbEntity
  8
0
  6
Continuous
 62
     7
370
    15
100
AcDbLine
 10
670.1817060649
 20
236.6063857633
 30
0.0
 11
636.0101331897
 21
236.6063857633
 31
0.0
  0
LINE
  5
263
330
1F
100
AcDbEntity
  8
0
  6
Continuous
 62
     7
370
    15
100
AcDbLine
 10
615.0959196273
 20
239.6063857633
 30
0.0
 11
622.5949223328
 21
239.6063857633
 31
0.0
  0
LINE
  5
264
330
1F
100
AcDbEntity
  8
0
  6
Continuous
 62
     7
370
    15
100
AcDbLine
 10
615.0959196273
 20
236.6063857633
 30
0.0
 11
615.0959196273
 21
239.6063857633
 31
0.0
  0
LINE
  5
265
330
1F
100
AcDbEntity
  8
0
  6
Continuous
 62
     7
370
    15
100
AcDbLine
 10
615.0959196273
 20
236.6063857633
 30
0.0
 11
622.5949223328
 21
236.6063857633
 31
0.0
  0
LINE
  5
266
330
1F
100
AcDbEntity
  8
0
  6
Continuous
 62
     7
370
    15
100
AcDbLine
 10
622.5949223328
 20
236.6063857633
 30
0.0
 11
622.5949223328
 21
239.6063857633
 31
0.0
  0
LINE
  5
267
330
1F
100
AcDbEntity
  8
0
  6
Continuous
 62
     7
370
    15
100
AcDbLine
 10
615.0959196273
 20
279.6063857633
 30
0.0
 11
622.5949223328
 21
279.6063857633
 31
0.0
  0
LINE
  5
268
330
1F
100
AcDbEntity
  8
0
  6
Continuous
 62
     7
370
    15
100
AcDbLine
 10
615.0959196273
 20
276.6063857633
 30
0.0
 11
615.0959196273
 21
279.6063857633
 31
0.0
  0
LINE
  5
269
330
1F
100
AcDbEntity
  8
0
  6
Continuous
 62
     7
370
    15
100
AcDbLine
 10
615.0959196273
 20
276.6063857633
 30
0.0
 11
622.5949223328
 21
276.6063857633
 31
0.0
  0
LINE
  5
26A
330
1F
100
AcDbEntity
  8
0
  6
Continuous
 62
     7
370
    15
100
AcDbLine
 10
622.5949223328
 20
276.6063857633
 30
0.0
 11
622.5949223328
 21
279.6063857633
 31
0.0
  0
LINE
  5
26B
330
1F
100
AcDbEntity
  8
0
  6
Continuous
 62
     7
370
    15
100
AcDbLine
 10
687.0959196273
 20
236.6063857633
 30
0.0
 11
687.0959196273
 21
239.6063857633
 31
0.0
  0
LINE
  5
26C
330
1F
100
AcDbEntity
  8
0
  6
Continuous
 62
     7
370
    15
100
AcDbLine
 10
687.0959196273
 20
239.6063857633
 30
0.0
 11
677.0959196273
 21
239.6063857633
 31
0.0
  0
LINE
  5
26D
330
1F
100
AcDbEntity
  8
0
  6
Continuous
 62
     7
370
    15
100
AcDbLine
 10
677.0959196273
 20
239.6063857633
 30
0.0
 11
677.0959196273
 21
236.6063857633
 31
0.0
  0
LINE
  5
26E
330
1F
100
AcDbEntity
  8
0
  6
Continuous
 62
     7
370
    15
100
AcDbLine
 10
677.0959196273
 20
236.6063857633
 30
0.0
 11
687.0959196273
 21
236.6063857633
 31
0.0
  0
LINE
  5
26F
330
1F
100
AcDbEntity
  8
0
  6
Continuous
 62
     7
370
    15
100
AcDbLine
 10
705.6848997335
 20
74.721424358
 30
0.0
 11
705.6848997335
 21
94.721424358
 31
0.0
  0
LINE
  5
270
330
1F
100
AcDbEntity
  8
0
  6
Continuous
 62
     7
370
    15
100
AcDbLine
 10
708.6848997335
 20
74.721424358
 30
0.0
 11
705.6848997335
 21
74.721424358
 31
0.0
  0
LINE
  5
271
330
1F
100
AcDbEntity
  8
0
  6
Continuous
 62
     7
370
    15
100
AcDbLine
 10
708.6848997335
 20
64.721424358
 30
0.0
 11
708.6848997335
 21
74.721424358
 31
0.0
  0
LINE
  5
272
330
1F
100
AcDbEntity
  8
0
  6
Continuous
 62
     7
370
    15
100
AcDbLine
 10
637.6848997335
 20
1.721424358
 30
0.0
 11
625.6848997335
 21
1.721424358
 31
0.0
  0
LINE
  5
273
330
1F
100
AcDbEntity
  8
0
  6
Continuous
 62
     7
370
    15
100
AcDbLine
 10
605.6848997335
 20
12.6480046479
 30
0.0
 11
605.6848997335
 21
4.721424358
 31
0.0
  0
LINE
  5
274
330
1F
100
AcDbEntity
  8
0
  6
Continuous
 62
     7
370
    15
100
AcDbLine
 10
624.1848997335
 20
12.6480046479
 30
0.0
 11
605.6848997335
 21
12.6480046479
 31
0.0
  0
ARC
  5
275
330
1F
100
AcDbEntity
  8
0
  6
Continuous
 62
     7
370
    15
100
AcDbCircle
 10
624.1848997335
 20
14.1480046479
 30
0.0
 40
1.500000000000016
100
AcDbArc
 50
270.0
 51
90.0
  0
LINE
  5
276
330
1F
100
AcDbEntity
  8
0
  6
Continuous
 62
     7
370
    15
100
AcDbLine
 10
602.6848997335
 20
15.6480046479
 30
0.0
 11
624.1848997335
 21
15.6480046479
 31
0.0
  0
LINE
  5
277
330
1F
100
AcDbEntity
  8
0
  6
Continuous
 62
     7
370
    15
100
AcDbLine
 10
602.6848997335
 20
15.6480046479
 30
0.0
 11
602.6848997335
 21
13.6480046479
 31
0.0
  0
LINE
  5
278
330
1F
100
AcDbEntity
  8
0
  6
Continuous
 62
     7
370
    15
100
AcDbLine
 10
602.6848997335
 20
13.6480046479
 30
0.0
 11
600.6848997335
 21
13.6480046479
 31
0.0
  0
LINE
  5
279
330
1F
100
AcDbEntity
  8
0
  6
Continuous
 62
     7
370
    15
100
AcDbLine
 10
600.6848997335
 20
13.6480046479
 30
0.0
 11
592.6848997335
 21
16.6480046479
 31
0.0
  0
LINE
  5
27A
330
1F
100
AcDbEntity
  8
0
  6
Continuous
 62
     7
370
    15
100
AcDbLine
 10
592.6848997335
 20
16.6480046479
 30
0.0
 11
592.6848997335
 21
22.6299439699
 31
0.0
  0
LINE
  5
27B
330
1F
100
AcDbEntity
  8
0
  6
Continuous
 62
     7
370
    15
100
AcDbLine
 10
605.6848997335
 20
23.3112451006
 30
0.0
 11
592.6848997335
 21
22.6299439699
 31
0.0
  0
LINE
  5
27C
330
1F
100
AcDbEntity
  8
0
  6
Continuous
 62
     7
370
    15
100
AcDbLine
 10
605.6848997335
 20
27.8594006863
 30
0.0
 11
605.6848997335
 21
23.3112451006
 31
0.0
  0
LINE
  5
27D
330
1F
100
AcDbEntity
  8
0
  6
Continuous
 62
     7
370
    15
100
AcDbLine
 10
619.6848997335
 20
27.8594006863
 30
0.0
 11
605.6848997335
 21
27.8594006863
 31
0.0
  0
LINE
  5
27E
330
1F
100
AcDbEntity
  8
0
  6
Continuous
 62
     7
370
    15
100
AcDbLine
 10
619.6848997335
 20
30.8594006863
 30
0.0
 11
619.6848997335
 21
27.8594006863
 31
0.0
  0
LINE
  5
27F
330
1F
100
AcDbEntity
  8
0
  6
Continuous
 62
     7
370
    15
100
AcDbLine
 10
605.6848997335
 20
30.8594006863
 30
0.0
 11
619.6848997335
 21
30.8594006863
 31
0.0
  0
LINE
  5
280
330
1F
100
AcDbEntity
  8
0
  6
Continuous
 62
     7
370
    15
100
AcDbLine
 10
605.6848997335
 20
35.407556272
 30
0.0
 11
605.6848997335
 21
30.8594006863
 31
0.0
  0
LINE
  5
281
330
1F
100
AcDbEntity
  8
0
  6
Continuous
 62
     7
370
    15
100
AcDbLine
 10
592.6848997335
 20
36.0888574026
 30
0.0
 11
605.6848997335
 21
35.407556272
 31
0.0
  0
LINE
  5
282
330
1F
100
AcDbEntity
  8
0
  6
Continuous
 62
     7
370
    15
100
AcDbLine
 10
592.6848997335
 20
36.0888574026
 30
0.0
 11
592.6848997335
 21
42.0707967247
 31
0.0
  0
LINE
  5
283
330
1F
100
AcDbEntity
  8
0
  6
Continuous
 62
     7
370
    15
100
AcDbLine
 10
592.6848997335
 20
42.0707967247
 30
0.0
 11
600.6848997335
 21
45.0707967247
 31
0.0
  0
LINE
  5
284
330
1F
100
AcDbEntity
  8
0
  6
Continuous
 62
     7
370
    15
100
AcDbLine
 10
600.6848997335
 20
45.0707967247
 30
0.0
 11
602.6848997335
 21
45.0707967247
 31
0.0
  0
LINE
  5
285
330
1F
100
AcDbEntity
  8
0
  6
Continuous
 62
     7
370
    15
100
AcDbLine
 10
602.6848997335
 20
45.0707967247
 30
0.0
 11
602.6848997335
 21
43.0707967247
 31
0.0
  0
LINE
  5
286
330
1F
100
AcDbEntity
  8
0
  6
Continuous
 62
     7
370
    15
100
AcDbLine
 10
624.1848997335
 20
43.0707967247
 30
0.0
 11
602.6848997335
 21
43.0707967247
 31
0.0
  0
ARC
  5
287
330
1F
100
AcDbEntity
  8
0
  6
Continuous
 62
     7
370
    15
100
AcDbCircle
 10
624.1848997335
 20
44.5707967247
 30
0.0
 40
1.5
100
AcDbArc
 50
270.0
 51
90.0
  0
LINE
  5
288
330
1F
100
AcDbEntity
  8
0
  6
Continuous
 62
     7
370
    15
100
AcDbLine
 10
605.6848997335
 20
46.0707967247
 30
0.0
 11
624.1848997335
 21
46.0707967247
 31
0.0
  0
LINE
  5
289
330
1F
100
AcDbEntity
  8
0
  6
Continuous
 62
     7
370
    15
100
AcDbLine
 10
605.6848997335
 20
63.3720519913
 30
0.0
 11
605.6848997335
 21
46.0707967247
 31
0.0
  0
LINE
  5
28A
330
1F
100
AcDbEntity
  8
0
  6
Continuous
 62
     7
370
    15
100
AcDbLine
 10
605.6848997335
 20
63.3720519913
 30
0.0
 11
624.1848997335
 21
63.3720519913
 31
0.0
  0
ARC
  5
28B
330
1F
100
AcDbEntity
  8
0
  6
Continuous
 62
     7
370
    15
100
AcDbCircle
 10
624.1848997335
 20
64.8720519913
 30
0.0
 40
1.5
100
AcDbArc
 50
270.0
 51
90.0
  0
LINE
  5
28C
330
1F
100
AcDbEntity
  8
0
  6
Continuous
 62
     7
370
    15
100
AcDbLine
 10
624.1848997335
 20
66.3720519913
 30
0.0
 11
602.6848997335
 21
66.3720519913
 31
0.0
  0
LINE
  5
28D
330
1F
100
AcDbEntity
  8
0
  6
Continuous
 62
     7
370
    15
100
AcDbLine
 10
602.6848997335
 20
64.3720519913
 30
0.0
 11
602.6848997335
 21
66.3720519913
 31
0.0
  0
LINE
  5
28E
330
1F
100
AcDbEntity
  8
0
  6
Continuous
 62
     7
370
    15
100
AcDbLine
 10
600.6848997335
 20
64.3720519913
 30
0.0
 11
602.6848997335
 21
64.3720519913
 31
0.0
  0
LINE
  5
28F
330
1F
100
AcDbEntity
  8
0
  6
Continuous
 62
     7
370
    15
100
AcDbLine
 10
592.6848997335
 20
67.3720519913
 30
0.0
 11
600.6848997335
 21
64.3720519913
 31
0.0
  0
LINE
  5
290
330
1F
100
AcDbEntity
  8
0
  6
Continuous
 62
     7
370
    15
100
AcDbLine
 10
592.6848997335
 20
73.3539913134
 30
0.0
 11
592.6848997335
 21
67.3720519913
 31
0.0
  0
LINE
  5
291
330
1F
100
AcDbEntity
  8
0
  6
Continuous
 62
     7
370
    15
100
AcDbLine
 10
592.6848997335
 20
73.3539913134
 30
0.0
 11
620.6917520597
 21
74.8217682485
 31
0.0
  0
ARC
  5
292
330
1F
100
AcDbEntity
  8
0
  6
Continuous
 62
     7
370
    15
100
AcDbCircle
 10
620.4159991071
 20
80.0834480297
 30
0.0
 40
5.268900626404821
100
AcDbArc
 50
273.0
 51
87.0
  0
LINE
  5
293
330
1F
100
AcDbEntity
  8
0
  6
Continuous
 62
     7
370
    15
100
AcDbLine
 10
620.6917520597
 20
85.3451278109
 30
0.0
 11
592.6848997335
 21
86.8129047461
 31
0.0
  0
LINE
  5
294
330
1F
100
AcDbEntity
  8
0
  6
Continuous
 62
     7
370
    15
100
AcDbLine
 10
592.6848997335
 20
92.7948440681
 30
0.0
 11
592.6848997335
 21
86.8129047461
 31
0.0
  0
LINE
  5
295
330
1F
100
AcDbEntity
  8
0
  6
Continuous
 62
     7
370
    15
100
AcDbLine
 10
600.6848997335
 20
95.7948440681
 30
0.0
 11
592.6848997335
 21
92.7948440681
 31
0.0
  0
LINE
  5
296
330
1F
100
AcDbEntity
  8
0
  6
Continuous
 62
     7
370
    15
100
AcDbLine
 10
602.6848997335
 20
95.7948440681
 30
0.0
 11
600.6848997335
 21
95.7948440681
 31
0.0
  0
LINE
  5
297
330
1F
100
AcDbEntity
  8
0
  6
Continuous
 62
     7
370
    15
100
AcDbLine
 10
602.6848997335
 20
93.7948440681
 30
0.0
 11
602.6848997335
 21
95.7948440681
 31
0.0
  0
LINE
  5
298
330
1F
100
AcDbEntity
  8
0
  6
Continuous
 62
     7
370
    15
100
AcDbLine
 10
602.6848997335
 20
93.7948440681
 30
0.0
 11
624.1848997335
 21
93.7948440681
 31
0.0
  0
ARC
  5
299
330
1F
100
AcDbEntity
  8
0
  6
Continuous
 62
     7
370
    15
100
AcDbCircle
 10
624.1848997335
 20
95.2948440681
 30
0.0
 40
1.500000000000014
100
AcDbArc
 50
270.0
 51
90.0
  0
LINE
  5
29A
330
1F
100
AcDbEntity
  8
0
  6
Continuous
 62
     7
370
    15
100
AcDbLine
 10
624.1848997335
 20
96.7948440681
 30
0.0
 11
605.6848997335
 21
96.7948440681
 31
0.0
  0
LINE
  5
29B
330
1F
100
AcDbEntity
  8
0
  6
Continuous
 62
     7
370
    15
100
AcDbLine
 10
605.6848997335
 20
104.721424358
 30
0.0
 11
605.6848997335
 21
96.7948440681
 31
0.0
  0
LINE
  5
29C
330
1F
100
AcDbEntity
  8
0
  6
Continuous
 62
     7
370
    15
100
AcDbLine
 10
621.6848997335
 20
104.721424358
 30
0.0
 11
605.6848997335
 21
104.721424358
 31
0.0
  0
LINE
  5
29D
330
1F
100
AcDbEntity
  8
0
  6
Continuous
 62
     7
370
    15
100
AcDbLine
 10
621.6848997335
 20
107.721424358
 30
0.0
 11
621.6848997335
 21
104.721424358
 31
0.0
  0
LINE
  5
29E
330
1F
100
AcDbEntity
  8
0
  6
Continuous
 62
     7
370
    15
100
AcDbLine
 10
631.6848997335
 20
107.721424358
 30
0.0
 11
621.6848997335
 21
107.721424358
 31
0.0
  0
LINE
  5
29F
330
1F
100
AcDbEntity
  8
0
  6
Continuous
 62
     7
370
    15
100
AcDbLine
 10
631.6848997335
 20
107.721424358
 30
0.0
 11
631.6848997335
 21
104.721424358
 31
0.0
  0
LINE
  5
2A0
330
1F
100
AcDbEntity
  8
0
  6
Continuous
 62
     7
370
    15
100
AcDbLine
 10
642.1848997335
 20
104.721424358
 30
0.0
 11
631.6848997335
 21
104.721424358
 31
0.0
  0
LINE
  5
2A1
330
1F
100
AcDbEntity
  8
0
  6
Continuous
 62
     7
370
    15
100
AcDbLine
 10
642.1848997335
 20
104.721424358
 30
0.0
 11
642.1848997335
 21
81.221424358
 31
0.0
  0
ARC
  5
2A2
330
1F
100
AcDbEntity
  8
0
  6
Continuous
 62
     7
370
    15
100
AcDbCircle
 10
643.6848997335
 20
81.221424358
 30
0.0
 40
1.5
100
AcDbArc
 50
180.0
 51
0.0
  0
LINE
  5
2A3
330
1F
100
AcDbEntity
  8
0
  6
Continuous
 62
     7
370
    15
100
AcDbLine
 10
645.1848997335
 20
81.221424358
 30
0.0
 11
645.1848997335
 21
103.1356379204
 31
0.0
  0
LINE
  5
2A4
330
1F
100
AcDbEntity
  8
0
  6
Continuous
 62
     7
370
    15
100
AcDbLine
 10
645.1848997335
 20
103.1356379204
 30
0.0
 11
638.5991132959
 21
109.721424358
 31
0.0
  0
LINE
  5
2A5
330
1F
100
AcDbEntity
  8
0
  6
Continuous
 62
     7
370
    15
100
AcDbLine
 10
638.5991132959
 20
112.721424358
 30
0.0
 11
638.5991132959
 21
109.721424358
 31
0.0
  0
LINE
  5
2A6
330
1F
100
AcDbEntity
  8
0
  6
Continuous
 62
     7
370
    15
100
AcDbLine
 10
651.108549317
 20
112.721424358
 30
0.0
 11
638.5991132959
 21
112.721424358
 31
0.0
  0
LINE
  5
2A7
330
1F
100
AcDbEntity
  8
0
  6
Continuous
 62
     7
370
    15
100
AcDbLine
 10
651.108549317
 20
112.721424358
 30
0.0
 11
652.6890111292
 21
82.5644164893
 31
0.0
  0
ARC
  5
2A8
330
1F
100
AcDbEntity
  8
0
  6
Continuous
 62
     7
370
    15
100
AcDbCircle
 10
655.6848997335
 20
82.721424358
 30
0.0
 40
3.000000000000048
100
AcDbArc
 50
183.0
 51
357.0
  0
LINE
  5
2A9
330
1F
100
AcDbEntity
  8
0
  6
Continuous
 62
     7
370
    15
100
AcDbLine
 10
660.26125015
 20
112.721424358
 30
0.0
 11
658.6807883378
 21
82.5644164893
 31
0.0
  0
LINE
  5
2AA
330
1F
100
AcDbEntity
  8
0
  6
Continuous
 62
     7
370
    15
100
AcDbLine
 10
660.26125015
 20
112.721424358
 30
0.0
 11
672.7706861711
 21
112.721424358
 31
0.0
  0
LINE
  5
2AB
330
1F
100
AcDbEntity
  8
0
  6
Continuous
 62
     7
370
    15
100
AcDbLine
 10
672.7706861711
 20
112.721424358
 30
0.0
 11
672.7706861711
 21
109.721424358
 31
0.0
  0
LINE
  5
2AC
330
1F
100
AcDbEntity
  8
0
  6
Continuous
 62
     7
370
    15
100
AcDbLine
 10
666.1848997335
 20
103.1356379204
 30
0.0
 11
672.7706861711
 21
109.721424358
 31
0.0
  0
LINE
  5
2AD
330
1F
100
AcDbEntity
  8
0
  6
Continuous
 62
     7
370
    15
100
AcDbLine
 10
666.1848997335
 20
81.221424358
 30
0.0
 11
666.1848997335
 21
103.1356379204
 31
0.0
  0
ARC
  5
2AE
330
1F
100
AcDbEntity
  8
0
  6
Continuous
 62
     7
370
    15
100
AcDbCircle
 10
667.6848997335
 20
81.221424358
 30
0.0
 40
1.5
100
AcDbArc
 50
180.0
 51
0.0
  0
LINE
  5
2AF
330
1F
100
AcDbEntity
  8
0
  6
Continuous
 62
     7
370
    15
100
AcDbLine
 10
669.1848997335
 20
104.721424358
 30
0.0
 11
669.1848997335
 21
81.221424358
 31
0.0
  0
LINE
  5
2B0
330
1F
100
AcDbEntity
  8
0
  6
Continuous
 62
     7
370
    15
100
AcDbLine
 10
686.185897028
 20
104.721424358
 30
0.0
 11
669.1848997335
 21
104.721424358
 31
0.0
  0
LINE
  5
2B1
330
1F
100
AcDbEntity
  8
0
  6
Continuous
 62
     7
370
    15
100
AcDbLine
 10
686.185897028
 20
104.721424358
 30
0.0
 11
686.185897028
 21
94.721424358
 31
0.0
  0
LINE
  5
2B2
330
1F
100
AcDbEntity
  8
0
  6
Continuous
 62
     7
370
    15
100
AcDbLine
 10
686.185897028
 20
94.721424358
 30
0.0
 11
705.6848997335
 21
94.721424358
 31
0.0
  0
LINE
  5
2B3
330
1F
100
AcDbEntity
  8
0
  6
Continuous
 62
     7
370
    15
100
AcDbLine
 10
674.9257547519
 20
14.267365904
 30
0.0
 11
696.1389581875
 21
35.4805693396
 31
0.0
  0
LINE
  5
2B4
330
1F
100
AcDbEntity
  8
0
  6
Continuous
 62
     7
370
    15
100
AcDbLine
 10
696.1389581875
 20
35.4805693396
 30
0.0
 11
694.0176378439
 21
37.6018896832
 31
0.0
  0
LINE
  5
2B5
330
1F
100
AcDbEntity
  8
0
  6
Continuous
 62
     7
370
    15
100
AcDbLine
 10
694.0176378439
 20
37.6018896832
 30
0.0
 11
672.8044344083
 21
16.3886862476
 31
0.0
  0
LINE
  5
2B6
330
1F
100
AcDbEntity
  8
0
  6
Continuous
 62
     7
370
    15
100
AcDbLine
 10
672.8044344083
 20
16.3886862476
 30
0.0
 11
674.9257547519
 21
14.267365904
 31
0.0
  0
LINE
  5
2B7
330
1F
100
AcDbEntity
  8
0
  6
Continuous
 62
     7
370
    15
100
AcDbLine
 10
625.6848997335
 20
1.721424358
 30
0.0
 11
625.6848997335
 21
4.721424358
 31
0.0
  0
LINE
  5
2B8
330
1F
100
AcDbEntity
  8
0
  6
Continuous
 62
     7
370
    15
100
AcDbLine
 10
637.6848997335
 20
4.721424358
 30
0.0
 11
705.6848997335
 21
4.721424358
 31
0.0
  0
LINE
  5
2B9
330
1F
100
AcDbEntity
  8
0
  6
Continuous
 62
     7
370
    15
100
AcDbLine
 10
708.6848997335
 20
64.721424358
 30
0.0
 11
705.6848997335
 21
64.721424358
 31
0.0
  0
LINE
  5
2BA
330
1F
100
AcDbEntity
  8
0
  6
Continuous
 62
     7
370
    15
100
AcDbLine
 10
705.6848997335
 20
4.721424358
 30
0.0
 11
705.6848997335
 21
64.721424358
 31
0.0
  0
LINE
  5
2BB
330
1F
100
AcDbEntity
  8
0
  6
Continuous
 62
     7
370
    15
100
AcDbLine
 10
637.6848997335
 20
1.721424358
 30
0.0
 11
637.6848997335
 21
4.721424358
 31
0.0
  0
LINE
  5
2BC
330
1F
100
AcDbEntity
  8
0
  6
Continuous
 62
     7
370
    15
100
AcDbLine
 10
605.6848997335
 20
4.721424358
 30
0.0
 11
625.6848997335
 21
4.721424358
 31
0.0
  0
LINE
  5
2BD
330
1F
100
AcDbEntity
  8
0
  6
Continuous
 62
     7
370
    15
100
AcDbLine
 10
511.9448544178
 20
371.8103234965
 30
0.0
 11
488.4807528027
 21
371.8103234965
 31
0.0
  0
LINE
  5
2BE
330
1F
100
AcDbEntity
  8
0
  6
Continuous
 62
     7
370
    15
100
AcDbLine
 10
511.9448544178
 20
371.8103234965
 30
0.0
 11
511.9448544178
 21
374.8103234965
 31
0.0
  0
LINE
  5
2BF
330
1F
100
AcDbEntity
  8
0
  6
Continuous
 62
     7
370
    15
100
AcDbLine
 10
511.9448544178
 20
374.8103234965
 30
0.0
 11
488.7128036103
 21
374.8103234965
 31
0.0
  0
LINE
  5
2C0
330
1F
100
AcDbEntity
  8
0
  6
Continuous
 62
     7
370
    15
100
AcDbLine
 10
488.7128036103
 20
408.3103234965
 30
0.0
 11
488.7128036103
 21
374.8103234965
 31
0.0
  0
LINE
  5
2C1
330
1F
100
AcDbEntity
  8
0
  6
Continuous
 62
     7
370
    15
100
AcDbLine
 10
485.2128036103
 20
411.8103234965
 30
0.0
 11
488.7128036103
 21
408.3103234965
 31
0.0
  0
LINE
  5
2C2
330
1F
100
AcDbEntity
  8
0
  6
Continuous
 62
     7
370
    15
100
AcDbLine
 10
485.2128036103
 20
415.8103234965
 30
0.0
 11
485.2128036103
 21
411.8103234965
 31
0.0
  0
LINE
  5
2C3
330
1F
100
AcDbEntity
  8
0
  6
Continuous
 62
     7
370
    15
100
AcDbLine
 10
570.2128036103
 20
415.8103234965
 30
0.0
 11
485.2128036103
 21
415.8103234965
 31
0.0
  0
LINE
  5
2C4
330
1F
100
AcDbEntity
  8
0
  6
Continuous
 62
     7
370
    15
100
AcDbLine
 10
570.2128036103
 20
415.8103234965
 30
0.0
 11
570.2128036103
 21
405.8103234965
 31
0.0
  0
LINE
  5
2C5
330
1F
100
AcDbEntity
  8
0
  6
Continuous
 62
     7
370
    15
100
AcDbLine
 10
548.2128036103
 20
405.8103234965
 30
0.0
 11
570.2128036103
 21
405.8103234965
 31
0.0
  0
LINE
  5
2C6
330
1F
100
AcDbEntity
  8
0
  6
Continuous
 62
     7
370
    15
100
AcDbLine
 10
548.2128036103
 20
400.8103234965
 30
0.0
 11
548.2128036103
 21
405.8103234965
 31
0.0
  0
LINE
  5
2C7
330
1F
100
AcDbEntity
  8
0
  6
Continuous
 62
     7
370
    15
100
AcDbLine
 10
543.2128036103
 20
400.8103234965
 30
0.0
 11
548.2128036103
 21
400.8103234965
 31
0.0
  0
LINE
  5
2C8
330
1F
100
AcDbEntity
  8
0
  6
Continuous
 62
     7
370
    15
100
AcDbLine
 10
533.9820343795
 20
404.6564773426
 30
0.0
 11
543.2128036103
 21
400.8103234965
 31
0.0
  0
ARC
  5
2C9
330
1F
100
AcDbEntity
  8
0
  6
Continuous
 62
     7
370
    15
100
AcDbCircle
 10
528.2128036103
 20
390.8103234965
 30
0.0
 40
15.0
100
AcDbArc
 50
67.380135052
 51
292.619864948
  0
LINE
  5
2CA
330
1F
100
AcDbEntity
  8
0
  6
Continuous
 62
     7
370
    15
100
AcDbLine
 10
543.2128036103
 20
380.8103234965
 30
0.0
 11
533.9820343795
 21
376.9641696503
 31
0.0
  0
LINE
  5
2CB
330
1F
100
AcDbEntity
  8
0
  6
Continuous
 62
     7
370
    15
100
AcDbLine
 10
548.2128036103
 20
380.8103234965
 30
0.0
 11
543.2128036103
 21
380.8103234965
 31
0.0
  0
LINE
  5
2CC
330
1F
100
AcDbEntity
  8
0
  6
Continuous
 62
     7
370
    15
100
AcDbLine
 10
548.2128036103
 20
375.8103234965
 30
0.0
 11
548.2128036103
 21
380.8103234965
 31
0.0
  0
LINE
  5
2CD
330
1F
100
AcDbEntity
  8
0
  6
Continuous
 62
     7
370
    15
100
AcDbLine
 10
570.2128036103
 20
375.8103234965
 30
0.0
 11
548.2128036103
 21
375.8103234965
 31
0.0
  0
LINE
  5
2CE
330
1F
100
AcDbEntity
  8
0
  6
Continuous
 62
     7
370
    15
100
AcDbLine
 10
570.2128036103
 20
375.8103234965
 30
0.0
 11
570.2128036103
 21
365.8103234965
 31
0.0
  0
LINE
  5
2CF
330
1F
100
AcDbEntity
  8
0
  6
Continuous
 62
     7
370
    15
100
AcDbLine
 10
573.2128036103
 20
365.8103234965
 30
0.0
 11
570.2128036103
 21
365.8103234965
 31
0.0
  0
LINE
  5
2D0
330
1F
100
AcDbEntity
  8
0
  6
Continuous
 62
     7
370
    15
100
AcDbLine
 10
573.2128036103
 20
365.8103234965
 30
0.0
 11
573.2128036103
 21
355.8103234965
 31
0.0
  0
LINE
  5
2D1
330
1F
100
AcDbEntity
  8
0
  6
Continuous
 62
     7
370
    15
100
AcDbLine
 10
573.2128036103
 20
355.8103234965
 30
0.0
 11
570.2128036103
 21
355.8103234965
 31
0.0
  0
LINE
  5
2D2
330
1F
100
AcDbEntity
  8
0
  6
Continuous
 62
     7
370
    15
100
AcDbLine
 10
570.2128036103
 20
355.8103234965
 30
0.0
 11
570.2128036103
 21
350.8103234965
 31
0.0
  0
LINE
  5
2D3
330
1F
100
AcDbEntity
  8
0
  6
Continuous
 62
     7
370
    15
100
AcDbLine
 10
470.2128036103
 20
350.8103234965
 30
0.0
 11
570.2128036103
 21
350.8103234965
 31
0.0
  0
LINE
  5
2D4
330
1F
100
AcDbEntity
  8
0
  6
Continuous
 62
     7
370
    15
100
AcDbLine
 10
470.2128036103
 20
355.8103234965
 30
0.0
 11
470.2128036103
 21
350.8103234965
 31
0.0
  0
LINE
  5
2D5
330
1F
100
AcDbEntity
  8
0
  6
Continuous
 62
     7
370
    15
100
AcDbLine
 10
467.2128036103
 20
355.8103234965
 30
0.0
 11
470.2128036103
 21
355.8103234965
 31
0.0
  0
LINE
  5
2D6
330
1F
100
AcDbEntity
  8
0
  6
Continuous
 62
     7
370
    15
100
AcDbLine
 10
467.2128036103
 20
355.8103234965
 30
0.0
 11
467.2128036103
 21
365.8103234965
 31
0.0
  0
LINE
  5
2D7
330
1F
100
AcDbEntity
  8
0
  6
Continuous
 62
     7
370
    15
100
AcDbLine
 10
467.2128036103
 20
365.8103234965
 30
0.0
 11
470.2128036103
 21
365.8103234965
 31
0.0
  0
LINE
  5
2D8
330
1F
100
AcDbEntity
  8
0
  6
Continuous
 62
     7
370
    15
100
AcDbLine
 10
470.2128036103
 20
399.8103234965
 30
0.0
 11
470.2128036103
 21
365.8103234965
 31
0.0
  0
ARC
  5
2D9
330
1F
100
AcDbEntity
  8
0
  6
Continuous
 62
     7
370
    15
100
AcDbCircle
 10
473.2128036103
 20
399.8103234965
 30
0.0
 40
6.0
100
AcDbArc
 50
0.0
 51
180.0
  0
LINE
  5
2DA
330
1F
100
AcDbEntity
  8
0
  6
Continuous
 62
     7
370
    15
100
AcDbLine
 10
479.2128036103
 20
385.8103234965
 30
0.0
 11
479.2128036103
 21
399.8103234965
 31
0.0
  0
LINE
  5
2DB
330
1F
100
AcDbEntity
  8
0
  6
Continuous
 62
     7
370
    15
100
AcDbLine
 10
476.2128036103
 20
385.8103234965
 30
0.0
 11
479.2128036103
 21
385.8103234965
 31
0.0
  0
LINE
  5
2DC
330
1F
100
AcDbEntity
  8
0
  6
Continuous
 62
     7
370
    15
100
AcDbLine
 10
476.2128036103
 20
379.574255519
 30
0.0
 11
476.2128036103
 21
385.8103234965
 31
0.0
  0
LINE
  5
2DD
330
1F
100
AcDbEntity
  8
0
  6
Continuous
 62
     7
370
    15
100
AcDbLine
 10
478.5947696215
 20
374.8103234965
 30
0.0
 11
476.2128036103
 21
379.574255519
 31
0.0
  0
LINE
  5
2DE
330
1F
100
AcDbEntity
  8
0
  6
Continuous
 62
     7
370
    15
100
AcDbLine
 10
488.4807528027
 20
374.8103234965
 30
0.0
 11
478.5947696215
 21
374.8103234965
 31
0.0
  0
LINE
  5
2DF
330
1F
100
AcDbEntity
  8
0
  6
Continuous
 62
     7
370
    15
100
AcDbLine
 10
488.4807528027
 20
371.8103234965
 30
0.0
 11
488.4807528027
 21
374.8103234965
 31
0.0
  0
LINE
  5
2E0
330
1F
100
AcDbEntity
  8
0
  6
Continuous
 62
     7
370
    15
100
AcDbLine
 10
538.2128036103
 20
365.8103234965
 30
0.0
 11
538.2128036103
 21
368.8103234965
 31
0.0
  0
LINE
  5
2E1
330
1F
100
AcDbEntity
  8
0
  6
Continuous
 62
     7
370
    15
100
AcDbLine
 10
550.2128036103
 20
365.8103234965
 30
0.0
 11
538.2128036103
 21
365.8103234965
 31
0.0
  0
LINE
  5
2E2
330
1F
100
AcDbEntity
  8
0
  6
Continuous
 62
     7
370
    15
100
AcDbLine
 10
550.2128036103
 20
368.8103234965
 30
0.0
 11
550.2128036103
 21
365.8103234965
 31
0.0
  0
LINE
  5
2E3
330
1F
100
AcDbEntity
  8
0
  6
Continuous
 62
     7
370
    15
100
AcDbLine
 10
538.2128036103
 20
368.8103234965
 30
0.0
 11
550.2128036103
 21
368.8103234965
 31
0.0
  0
LINE
  5
2E4
330
1F
100
AcDbEntity
  8
0
  6
Continuous
 62
     7
370
    15
100
AcDbLine
 10
511.9448544178
 20
365.8103234965
 30
0.0
 11
488.4807528027
 21
365.8103234965
 31
0.0
  0
LINE
  5
2E5
330
1F
100
AcDbEntity
  8
0
  6
Continuous
 62
     7
370
    15
100
AcDbLine
 10
488.4807528027
 20
362.8103234965
 30
0.0
 11
488.4807528027
 21
365.8103234965
 31
0.0
  0
LINE
  5
2E6
330
1F
100
AcDbEntity
  8
0
  6
Continuous
 62
     7
370
    15
100
AcDbLine
 10
511.9448544178
 20
362.8103234965
 30
0.0
 11
488.4807528027
 21
362.8103234965
 31
0.0
  0
LINE
  5
2E7
330
1F
100
AcDbEntity
  8
0
  6
Continuous
 62
     7
370
    15
100
AcDbLine
 10
511.9448544178
 20
362.8103234965
 30
0.0
 11
511.9448544178
 21
365.8103234965
 31
0.0
  0
LINE
  5
2E8
330
1F
100
AcDbEntity
  8
0
  6
Continuous
 62
     7
370
    15
100
AcDbLine
 10
467.2128036103
 20
399.8103234965
 30
0.0
 11
470.2128036103
 21
399.8103234965
 31
0.0
  0
LINE
  5
2E9
330
1F
100
AcDbEntity
  8
0
  6
CENTERX2
 62
     7
100
AcDbLine
 10
-271.8382937334
 20
-554.956685954
 30
0.0
 11
-271.8382937334
 21
40.043314046
 31
0.0
  0
LINE
  5
2EA
330
1F
100
AcDbEntity
  8
0
  6
CENTERX2
 62
     7
100
AcDbLine
 10
-244.5250196106
 20
-554.956685954
 30
0.0
 11
-244.5250196106
 21
40.043314046
 31
0.0
  0
LINE
  5
2EB
330
1F
100
AcDbEntity
  8
0
  6
CENTERX2
 62
     7
100
AcDbLine
 10
-208.2117454877
 20
-517.956685954
 30
0.0
 11
-208.2117454877
 21
3.043314046
 31
0.0
  0
LINE
  5
2EC
330
1F
100
AcDbEntity
  8
0
  6
CENTERX2
 62
     7
100
AcDbLine
 10
31.1015286352
 20
-514.456685954
 30
0.0
 11
31.1015286352
 21
-0.456685954
 31
0.0
  0
LINE
  5
2ED
330
1F
100
AcDbEntity
  8
0
  6
CENTERX2
 62
     7
100
AcDbLine
 10
32.3581656966
 20
304.139773476
 30
0.0
 11
547.1581656966
 21
304.139773476
 31
0.0
  0
LINE
  5
2EE
330
1F
100
AcDbEntity
  8
0
  6
CENTERX2
 62
     7
100
AcDbLine
 10
32.3581656966
 20
276.8264993532
 30
0.0
 11
547.1581656966
 21
276.8264993532
 31
0.0
  0
LINE
  5
2EF
330
1F
100
AcDbEntity
  8
0
  6
CENTERX2
 62
     7
100
AcDbLine
 10
32.3581656966
 20
240.5132252303
 30
0.0
 11
547.1581656966
 21
240.5132252303
 31
0.0
  0
LINE
  5
2F0
330
1F
100
AcDbEntity
  8
0
  6
CENTERX2
 62
     7
100
AcDbLine
 10
32.7581656966
 20
1.1999511074
 30
0.0
 11
546.7581656966
 21
1.1999511074
 31
0.0
  0
LINE
  5
2F1
330
1F
100
AcDbEntity
  8
0
  6
CENTERX2
 62
     7
100
AcDbLine
 10
851.3546251267
 20
40.043314046
 30
0.0
 11
851.3546251267
 21
-554.956685954
 31
0.0
  0
LINE
  5
2F2
330
1F
100
AcDbEntity
  8
0
  6
CENTERX2
 62
     7
100
AcDbLine
 10
824.0413510038
 20
40.043314046
 30
0.0
 11
824.0413510038
 21
-554.956685954
 31
0.0
  0
LINE
  5
2F3
330
1F
100
AcDbEntity
  8
0
  6
CENTERX2
 62
     7
100
AcDbLine
 10
787.7280768809
 20
3.043314046
 30
0.0
 11
787.7280768809
 21
-517.956685954
 31
0.0
  0
LINE
  5
2F4
330
1F
100
AcDbEntity
  8
0
  6
CENTERX2
 62
     7
100
AcDbLine
 10
548.414802758
 20
-0.456685954
 30
0.0
 11
548.414802758
 21
-514.456685954
 31
0.0
  0
LINE
  5
2F5
330
1F
100
AcDbEntity
  8
0
  6
CENTERX2
 62
     7
100
AcDbLine
 10
547.1581656966
 20
-819.0531453841
 30
0.0
 11
32.3581656966
 21
-819.0531453841
 31
0.0
  0
LINE
  5
2F6
330
1F
100
AcDbEntity
  8
0
  6
CENTERX2
 62
     7
100
AcDbLine
 10
547.1581656966
 20
-791.7398712612
 30
0.0
 11
32.3581656966
 21
-791.7398712612
 31
0.0
  0
LINE
  5
2F7
330
1F
100
AcDbEntity
  8
0
  6
CENTERX2
 62
     7
100
AcDbLine
 10
547.1581656966
 20
-755.4265971383
 30
0.0
 11
32.3581656966
 21
-755.4265971383
 31
0.0
  0
LINE
  5
2F8
330
1F
100
AcDbEntity
  8
0
  6
CENTERX2
 62
     7
100
AcDbLine
 10
546.7581656966
 20
-516.1133230154
 30
0.0
 11
32.7581656966
 21
-516.1133230154
 31
0.0
  0
LINE
  5
2F9
330
1F
100
AcDbEntity
  8
0
  6
Continuous
 62
     7
370
    15
100
AcDbLine
 10
32.7581656966
 20
2.8565881689
 30
0.0
 11
32.3581656966
 21
2.8565881689
 31
0.0
  0
LINE
  5
2FA
330
1F
100
AcDbEntity
  8
0
  6
Continuous
 62
     7
370
    15
100
AcDbLine
 10
32.3581656966
 20
252.5198622917
 30
0.0
 11
32.3581656966
 21
2.8565881689
 31
0.0
  0
LINE
  5
2FB
330
1F
100
AcDbEntity
  8
0
  6
Continuous
 62
     7
370
    15
100
AcDbLine
 10
20.4580084623
 20
252.5198622917
 30
0.0
 11
32.3581656966
 21
252.5198622917
 31
0.0
  0
ARC
  5
2FC
330
1F
100
AcDbEntity
  8
0
  6
Continuous
 62
     7
370
    15
100
AcDbCircle
 10
12.5081656966
 20
258.4198622917
 30
0.0
 40
9.900000000000034
100
AcDbArc
 50
36.5810697903
 51
323.4189302097
  0
LINE
  5
2FD
330
1F
100
AcDbEntity
  8
0
  6
Continuous
 62
     7
370
    15
100
AcDbLine
 10
32.3581656966
 20
264.3198622917
 30
0.0
 11
20.4580084623
 21
264.3198622917
 31
0.0
  0
LINE
  5
2FE
330
1F
100
AcDbEntity
  8
0
  6
Continuous
 62
     7
370
    15
100
AcDbLine
 10
32.3581656966
 20
264.3198622917
 30
0.0
 11
32.3581656966
 21
316.6464105375
 31
0.0
  0
LINE
  5
2FF
330
1F
100
AcDbEntity
  8
0
  6
Continuous
 62
     7
370
    15
100
AcDbLine
 10
32.3581656966
 20
316.6464105375
 30
0.0
 11
20.4580084623
 21
316.6464105375
 31
0.0
  0
ARC
  5
300
330
1F
100
AcDbEntity
  8
0
  6
Continuous
 62
     7
370
    15
100
AcDbCircle
 10
12.5081656966
 20
322.5464105375
 30
0.0
 40
9.9
100
AcDbArc
 50
36.5810697903
 51
323.4189302097
  0
LINE
  5
301
330
1F
100
AcDbEntity
  8
0
  6
Continuous
 62
     7
370
    15
100
AcDbLine
 10
20.4580084623
 20
328.4464105375
 30
0.0
 11
32.3581656966
 21
328.4464105375
 31
0.0
  0
LINE
  5
302
330
1F
100
AcDbEntity
  8
0
  6
Continuous
 62
     7
370
    15
100
AcDbLine
 10
32.3581656966
 20
328.4464105375
 30
0.0
 11
32.3581656966
 21
339.1964105375
 31
0.0
  0
LINE
  5
303
330
1F
100
AcDbEntity
  8
0
  6
Continuous
 62
     7
370
    15
100
AcDbLine
 10
32.3581656966
 20
339.1964105375
 30
0.0
 11
134.8581656966
 21
339.1964105375
 31
0.0
  0
LINE
  5
304
330
1F
100
AcDbEntity
  8
0
  6
Continuous
 62
     7
370
    15
100
AcDbLine
 10
134.8581656966
 20
369.1964105375
 30
0.0
 11
134.8581656966
 21
339.1964105375
 31
0.0
  0
LINE
  5
305
330
1F
100
AcDbEntity
  8
0
  6
Continuous
 62
     7
370
    15
100
AcDbLine
 10
174.6581656966
 20
369.1964105375
 30
0.0
 11
134.8581656966
 21
369.1964105375
 31
0.0
  0
LINE
  5
306
330
1F
100
AcDbEntity
  8
0
  6
Continuous
 62
     7
370
    15
100
AcDbLine
 10
174.6581656966
 20
369.1964105375
 30
0.0
 11
174.6581656966
 21
339.1964105375
 31
0.0
  0
LINE
  5
307
330
1F
100
AcDbEntity
  8
0
  6
Continuous
 62
     7
370
    15
100
AcDbLine
 10
174.6581656966
 20
339.1964105375
 30
0.0
 11
224.8581656966
 21
339.1964105375
 31
0.0
  0
LINE
  5
308
330
1F
100
AcDbEntity
  8
0
  6
Continuous
 62
     7
370
    15
100
AcDbLine
 10
224.8581656966
 20
369.1964105375
 30
0.0
 11
224.8581656966
 21
339.1964105375
 31
0.0
  0
LINE
  5
309
330
1F
100
AcDbEntity
  8
0
  6
Continuous
 62
     7
370
    15
100
AcDbLine
 10
264.6581656966
 20
369.1964105375
 30
0.0
 11
224.8581656966
 21
369.1964105375
 31
0.0
  0
LINE
  5
30A
330
1F
100
AcDbEntity
  8
0
  6
Continuous
 62
     7
370
    15
100
AcDbLine
 10
264.6581656966
 20
369.1964105375
 30
0.0
 11
264.6581656966
 21
339.1964105375
 31
0.0
  0
LINE
  5
30B
330
1F
100
AcDbEntity
  8
0
  6
Continuous
 62
     7
370
    15
100
AcDbLine
 10
264.6581656966
 20
339.1964105375
 30
0.0
 11
314.8581656966
 21
339.1964105375
 31
0.0
  0
LINE
  5
30C
330
1F
100
AcDbEntity
  8
0
  6
Continuous
 62
     7
370
    15
100
AcDbLine
 10
314.8581656966
 20
369.1964105375
 30
0.0
 11
314.8581656966
 21
339.1964105375
 31
0.0
  0
LINE
  5
30D
330
1F
100
AcDbEntity
  8
0
  6
Continuous
 62
     7
370
    15
100
AcDbLine
 10
314.8581656966
 20
369.1964105375
 30
0.0
 11
354.6581656966
 21
369.1964105375
 31
0.0
  0
LINE
  5
30E
330
1F
100
AcDbEntity
  8
0
  6
Continuous
 62
     7
370
    15
100
AcDbLine
 10
354.6581656966
 20
369.1964105375
 30
0.0
 11
354.6581656966
 21
339.1964105375
 31
0.0
  0
LINE
  5
30F
330
1F
100
AcDbEntity
  8
0
  6
Continuous
 62
     7
370
    15
100
AcDbLine
 10
404.8581656966
 20
339.1964105375
 30
0.0
 11
354.6581656966
 21
339.1964105375
 31
0.0
  0
LINE
  5
310
330
1F
100
AcDbEntity
  8
0
  6
Continuous
 62
     7
370
    15
100
AcDbLine
 10
404.8581656966
 20
369.1964105375
 30
0.0
 11
404.8581656966
 21
339.1964105375
 31
0.0
  0
LINE
  5
311
330
1F
100
AcDbEntity
  8
0
  6
Continuous
 62
     7
370
    15
100
AcDbLine
 10
404.8581656966
 20
369.1964105375
 30
0.0
 11
444.6581656966
 21
369.1964105375
 31
0.0
  0
LINE
  5
312
330
1F
100
AcDbEntity
  8
0
  6
Continuous
 62
     7
370
    15
100
AcDbLine
 10
444.6581656966
 20
369.1964105375
 30
0.0
 11
444.6581656966
 21
339.1964105375
 31
0.0
  0
LINE
  5
313
330
1F
100
AcDbEntity
  8
0
  6
Continuous
 62
     7
370
    15
100
AcDbLine
 10
547.1581656966
 20
339.1964105375
 30
0.0
 11
444.6581656966
 21
339.1964105375
 31
0.0
  0
LINE
  5
314
330
1F
100
AcDbEntity
  8
0
  6
Continuous
 62
     7
370
    15
100
AcDbLine
 10
547.1581656966
 20
328.4464105375
 30
0.0
 11
547.1581656966
 21
339.1964105375
 31
0.0
  0
LINE
  5
315
330
1F
100
AcDbEntity
  8
0
  6
Continuous
 62
     7
370
    15
100
AcDbLine
 10
559.0583229309
 20
328.4464105375
 30
0.0
 11
547.1581656966
 21
328.4464105375
 31
0.0
  0
ARC
  5
316
330
1F
100
AcDbEntity
  8
0
  6
Continuous
 62
     7
370
    15
100
AcDbCircle
 10
567.0081656966
 20
322.5464105375
 30
0.0
 40
9.89999999999996
100
AcDbArc
 50
216.5810697903
 51
143.4189302097
  0
LINE
  5
317
330
1F
100
AcDbEntity
  8
0
  6
Continuous
 62
     7
370
    15
100
AcDbLine
 10
547.1581656966
 20
316.6464105375
 30
0.0
 11
559.0583229309
 21
316.6464105375
 31
0.0
  0
LINE
  5
318
330
1F
100
AcDbEntity
  8
0
  6
Continuous
 62
     7
370
    15
100
AcDbLine
 10
547.1581656966
 20
264.3198622917
 30
0.0
 11
547.1581656966
 21
316.6464105375
 31
0.0
  0
LINE
  5
319
330
1F
100
AcDbEntity
  8
0
  6
Continuous
 62
     7
370
    15
100
AcDbLine
 10
547.1581656966
 20
264.3198622917
 30
0.0
 11
559.0583229309
 21
264.3198622917
 31
0.0
  0
ARC
  5
31A
330
1F
100
AcDbEntity
  8
0
  6
Continuous
 62
     7
370
    15
100
AcDbCircle
 10
567.0081656966
 20
258.4198622917
 30
0.0
 40
9.89999999999996
100
AcDbArc
 50
216.5810697903
 51
143.4189302097
  0
LINE
  5
31B
330
1F
100
AcDbEntity
  8
0
  6
Continuous
 62
     7
370
    15
100
AcDbLine
 10
559.0583229309
 20
252.5198622917
 30
0.0
 11
547.1581656966
 21
252.5198622917
 31
0.0
  0
LINE
  5
31C
330
1F
100
AcDbEntity
  8
0
  6
Continuous
 62
     7
370
    15
100
AcDbLine
 10
547.1581656966
 20
252.5198622917
 30
0.0
 11
547.1581656966
 21
2.8565881689
 31
0.0
  0
LINE
  5
31D
330
1F
100
AcDbEntity
  8
0
  6
Continuous
 62
     7
370
    15
100
AcDbLine
 10
546.7581656966
 20
2.8565881689
 30
0.0
 11
547.1581656966
 21
2.8565881689
 31
0.0
  0
LINE
  5
31E
330
1F
100
AcDbEntity
  8
0
  6
Continuous
 62
     7
370
    15
100
AcDbLine
 10
32.7581656966
 20
1.1999511074
 30
0.0
 11
546.7581656966
 21
1.1999511074
 31
0.0
  0
LINE
  5
31F
330
1F
100
AcDbEntity
  8
0
  6
Continuous
 62
     7
370
    15
100
AcDbLine
 10
174.7581656966
 20
214.4565881689
 30
0.0
 11
134.7581656966
 21
214.4565881689
 31
0.0
  0
LINE
  5
320
330
1F
100
AcDbEntity
  8
0
  6
Continuous
 62
     7
370
    15
100
AcDbLine
 10
134.7581656966
 20
214.4565881689
 30
0.0
 11
134.7581656966
 21
211.2565881689
 31
0.0
  0
LINE
  5
321
330
1F
100
AcDbEntity
  8
0
  6
Continuous
 62
     7
370
    15
100
AcDbLine
 10
134.7581656966
 20
211.2565881689
 30
0.0
 11
174.7581656966
 21
211.2565881689
 31
0.0
  0
LINE
  5
322
330
1F
100
AcDbEntity
  8
0
  6
Continuous
 62
     7
370
    15
100
AcDbLine
 10
174.7581656966
 20
211.2565881689
 30
0.0
 11
174.7581656966
 21
214.4565881689
 31
0.0
  0
LINE
  5
323
330
1F
100
AcDbEntity
  8
0
  6
Continuous
 62
     7
370
    15
100
AcDbLine
 10
264.7581656966
 20
214.4565881689
 30
0.0
 11
224.7581656966
 21
214.4565881689
 31
0.0
  0
LINE
  5
324
330
1F
100
AcDbEntity
  8
0
  6
Continuous
 62
     7
370
    15
100
AcDbLine
 10
224.7581656966
 20
214.4565881689
 30
0.0
 11
224.7581656966
 21
211.2565881689
 31
0.0
  0
LINE
  5
325
330
1F
100
AcDbEntity
  8
0
  6
Continuous
 62
     7
370
    15
100
AcDbLine
 10
224.7581656966
 20
211.2565881689
 30
0.0
 11
264.7581656966
 21
211.2565881689
 31
0.0
  0
LINE
  5
326
330
1F
100
AcDbEntity
  8
0
  6
Continuous
 62
     7
370
    15
100
AcDbLine
 10
264.7581656966
 20
211.2565881689
 30
0.0
 11
264.7581656966
 21
214.4565881689
 31
0.0
  0
LINE
  5
327
330
1F
100
AcDbEntity
  8
0
  6
Continuous
 62
     7
370
    15
100
AcDbLine
 10
444.7581656966
 20
211.2565881689
 30
0.0
 11
404.7581656966
 21
211.2565881689
 31
0.0
  0
LINE
  5
328
330
1F
100
AcDbEntity
  8
0
  6
Continuous
 62
     7
370
    15
100
AcDbLine
 10
444.7581656966
 20
214.4565881689
 30
0.0
 11
444.7581656966
 21
211.2565881689
 31
0.0
  0
LINE
  5
329
330
1F
100
AcDbEntity
  8
0
  6
Continuous
 62
     7
370
    15
100
AcDbLine
 10
404.7581656966
 20
214.4565881689
 30
0.0
 11
444.7581656966
 21
214.4565881689
 31
0.0
  0
LINE
  5
32A
330
1F
100
AcDbEntity
  8
0
  6
Continuous
 62
     7
370
    15
100
AcDbLine
 10
404.7581656966
 20
211.2565881689
 30
0.0
 11
404.7581656966
 21
214.4565881689
 31
0.0
  0
LINE
  5
32B
330
1F
100
AcDbEntity
  8
0
  6
Continuous
 62
     7
370
    15
100
AcDbLine
 10
354.7581656966
 20
211.2565881689
 30
0.0
 11
314.7581656966
 21
211.2565881689
 31
0.0
  0
LINE
  5
32C
330
1F
100
AcDbEntity
  8
0
  6
Continuous
 62
     7
370
    15
100
AcDbLine
 10
354.7581656966
 20
214.4565881689
 30
0.0
 11
354.7581656966
 21
211.2565881689
 31
0.0
  0
LINE
  5
32D
330
1F
100
AcDbEntity
  8
0
  6
Continuous
 62
     7
370
    15
100
AcDbLine
 10
314.7581656966
 20
214.4565881689
 30
0.0
 11
354.7581656966
 21
214.4565881689
 31
0.0
  0
LINE
  5
32E
330
1F
100
AcDbEntity
  8
0
  6
Continuous
 62
     7
370
    15
100
AcDbLine
 10
314.7581656966
 20
211.2565881689
 30
0.0
 11
314.7581656966
 21
214.4565881689
 31
0.0
  0
LINE
  5
32F
330
1F
100
AcDbEntity
  8
0
  6
Continuous
 62
     7
370
    15
100
AcDbLine
 10
32.7581656966
 20
1.1999511074
 30
0.0
 11
32.7581656966
 21
2.8565881689
 31
0.0
  0
LINE
  5
330
330
1F
100
AcDbEntity
  8
0
  6
Continuous
 62
     7
370
    15
100
AcDbLine
 10
546.7581656966
 20
1.1999511074
 30
0.0
 11
546.7581656966
 21
2.8565881689
 31
0.0
  0
MTEXT
  5
332
330
1F
100
AcDbEntity
  8
0
  6
Continuous
 62
     7
100
AcDbMText
 10
0.0
 20
20.2653661972
 30
0.0
 40
7.266
 41
0.0
 71
     1
 72
     1
  1
SOLIDWORKS Student Edition.
  7
SLDTEXTSTYLE0
 73
     1
 44
1.0
  0
MTEXT
  5
333
330
1F
100
AcDbEntity
  8
0
  6
Continuous
 62
     7
100
AcDbMText
 10
0.0
 20
9.3663661972
 30
0.0
 40
7.266
 41
0.0
 71
     1
 72
     1
  1
For Academic Use Only.
  7
SLDTEXTSTYLE0
 73
     1
 44
1.0
  0
ENDSEC
  0
SECTION
  2
OBJECTS
  0
DICTIONARY
  5
C
330
0
100
AcDbDictionary
281
     1
  3
ACAD_GROUP
350
D
  3
ACAD_LAYOUT
350
1A
  3
ACAD_MLINESTYLE
350
17
  3
ACAD_PLOTSETTINGS
350
19
  3
ACAD_PLOTSTYLENAME
350
E
  3
ACAD_SCALELIST
350
47
  0
DICTIONARY
  5
D
102
{ACAD_REACTORS
330
C
102
}
330
C
100
AcDbDictionary
281
     1
  0
DICTIONARY
  5
1A
102
{ACAD_REACTORS
330
C
102
}
330
C
100
AcDbDictionary
281
     1
  3
Layout1
350
1E
  3
Layout2
350
26
  3
Model
350
22
  0
DICTIONARY
  5
17
102
{ACAD_REACTORS
330
C
102
}
330
C
100
AcDbDictionary
281
     1
  3
Standard
350
18
  0
DICTIONARY
  5
19
102
{ACAD_REACTORS
330
C
102
}
330
C
100
AcDbDictionary
281
     1
  0
ACDBDICTIONARYWDFLT
  5
E
102
{ACAD_REACTORS
330
C
102
}
330
C
100
AcDbDictionary
281
     1
  3
Normal
350
F
100
AcDbDictionaryWithDefault
340
F
  0
DICTIONARY
  5
47
102
{ACAD_REACTORS
330
C
102
}
330
C
100
AcDbDictionary
281
     1
  3
A0
350
48
  3
A1
350
49
  3
A2
350
4A
  3
A3
350
4B
  3
A4
350
4C
  3
A5
350
4D
  3
A6
350
4E
  3
A7
350
4F
  3
A8
350
50
  3
A9
350
51
  3
B0
350
52
  3
B1
350
53
  3
B2
350
54
  3
B3
350
55
  3
B4
350
56
  3
B5
350
57
  3
B6
350
58
  3
B7
350
59
  3
B8
350
5A
  3
B9
350
5B
  3
C0
350
5C
  3
C1
350
5D
  3
C2
350
5E
  3
C3
350
5F
  3
C4
350
60
  3
C5
350
61
  3
C6
350
62
  3
C7
350
63
  3
C8
350
64
  3
C9
350
65
  3
D0
350
66
  3
D1
350
67
  3
D2
350
68
  0
LAYOUT
  5
1E
102
{ACAD_REACTORS
330
1A
102
}
330
1A
100
AcDbPlotSettings
  1

  2
none_device
  4

  6

 40
0.0
 41
0.0
 42
0.0
 43
0.0
 44
0.0
 45
0.0
 46
0.0
 47
0.0
 48
0.0
 49
0.0
140
0.0
141
0.0
142
1.0
143
1.0
 70
   688
 72
     1
 73
     0
 74
     5
  7

 75
    16
147
1.0
148
0.0
149
0.0
100
AcDbLayout
  1
Layout1
 70
     1
 71
     1
 10
0.0
 20
0.0
 11
420.0
 21
297.0
 12
0.0
 22
0.0
 32
0.0
 14
1.0000000000E+20
 24
1.0000000000E+20
 34
1.0000000000E+20
 15
-1.0000000000E+20
 25
-1.0000000000E+20
 35
-1.0000000000E+20
146
0.0
 13
0.0
 23
0.0
 33
0.0
 16
1.0
 26
0.0
 36
0.0
 17
0.0
 27
1.0
 37
0.0
 76
     0
330
1B
  0
LAYOUT
  5
26
102
{ACAD_REACTORS
330
1A
102
}
330
1A
100
AcDbPlotSettings
  1

  2
none_device
  4

  6

 40
0.0
 41
0.0
 42
0.0
 43
0.0
 44
0.0
 45
0.0
 46
0.0
 47
0.0
 48
0.0
 49
0.0
140
0.0
141
0.0
142
1.0
143
1.0
 70
   688
 72
     1
 73
     0
 74
     5
  7

 75
    16
147
1.0
148
0.0
149
0.0
100
AcDbLayout
  1
Layout2
 70
     1
 71
     2
 10
0.0
 20
0.0
 11
0.0
 21
0.0
 12
0.0
 22
0.0
 32
0.0
 14
0.0
 24
0.0
 34
0.0
 15
0.0
 25
0.0
 35
0.0
146
0.0
 13
0.0
 23
0.0
 33
0.0
 16
1.0
 26
0.0
 36
0.0
 17
0.0
 27
1.0
 37
0.0
 76
     0
330
23
  0
LAYOUT
  5
22
102
{ACAD_REACTORS
330
1A
102
}
330
1A
100
AcDbPlotSettings
  1

  2
none_device
  4
Letter_(8.50_x_11.00_Inches)
  6

 40
6.35
 41
6.35
 42
6.35000508
 43
6.35000508
 44
215.9
 45
279.4
 46
0.0
 47
0.0
 48
0.0
 49
0.0
140
0.0
141
0.0
142
1.0
143
1.0
 70
  1712
 72
     1
 73
     0
 74
     0
  7

 75
     0
147
1.0
148
0.0
149
0.0
100
AcDbLayout
  1
Model
 70
     1
 71
     0
 10
0.0
 20
0.0
 11
720.0
 21
420.0
 12
0.0
 22
0.0
 32
0.0
 14
0.0
 24
0.0
 34
0.0
 15
720.0
 25
420.0
 35
0.0
146
0.0
 13
0.0
 23
0.0
 33
0.0
 16
1.0
 26
0.0
 36
0.0
 17
0.0
 27
1.0
 37
0.0
 76
     0
330
1F
331
29
  0
MLINESTYLE
  5
18
102
{ACAD_REACTORS
330
17
102
}
330
17
100
AcDbMlineStyle
  2
Standard
 70
     0
  3

 62
   256
 51
90.0
 52
90.0
 71
     2
 49
0.5
 62
   256
  6
BYLAYER
 49
-0.5
 62
   256
  6
BYLAYER
  0
ACDBPLACEHOLDER
  5
F
102
{ACAD_REACTORS
330
E
102
}
330
E
  0
SCALE
  5
48
102
{ACAD_REACTORS
330
47
102
}
330
47
100
AcDbScale
 70
     0
300
1:1
140
1.0
141
1.0
290
     1
  0
SCALE
  5
49
102
{ACAD_REACTORS
330
47
102
}
330
47
100
AcDbScale
 70
     0
300
1:2
140
1.0
141
2.0
290
     0
  0
SCALE
  5
4A
102
{ACAD_REACTORS
330
47
102
}
330
47
100
AcDbScale
 70
     0
300
1:4
140
1.0
141
4.0
290
     0
  0
SCALE
  5
4B
102
{ACAD_REACTORS
330
47
102
}
330
47
100
AcDbScale
 70
     0
300
1:5
140
1.0
141
5.0
290
     0
  0
SCALE
  5
4C
102
{ACAD_REACTORS
330
47
102
}
330
47
100
AcDbScale
 70
     0
300
1:8
140
1.0
141
8.0
290
     0
  0
SCALE
  5
4D
102
{ACAD_REACTORS
330
47
102
}
330
47
100
AcDbScale
 70
     0
300
1:10
140
1.0
141
10.0
290
     0
  0
SCALE
  5
4E
102
{ACAD_REACTORS
330
47
102
}
330
47
100
AcDbScale
 70
     0
300
1:16
140
1.0
141
16.0
290
     0
  0
SCALE
  5
4F
102
{ACAD_REACTORS
330
47
102
}
330
47
100
AcDbScale
 70
     0
300
1:20
140
1.0
141
20.0
290
     0
  0
SCALE
  5
50
102
{ACAD_REACTORS
330
47
102
}
330
47
100
AcDbScale
 70
     0
300
1:30
140
1.0
141
30.0
290
     0
  0
SCALE
  5
51
102
{ACAD_REACTORS
330
47
102
}
330
47
100
AcDbScale
 70
     0
300
1:40
140
1.0
141
40.0
290
     0
  0
SCALE
  5
52
102
{ACAD_REACTORS
330
47
102
}
330
47
100
AcDbScale
 70
     0
300
1:50
140
1.0
141
50.0
290
     0
  0
SCALE
  5
53
102
{ACAD_REACTORS
330
47
102
}
330
47
100
AcDbScale
 70
     0
300
1:100
140
1.0
141
100.0
290
     0
  0
SCALE
  5
54
102
{ACAD_REACTORS
330
47
102
}
330
47
100
AcDbScale
 70
     0
300
2:1
140
2.0
141
1.0
290
     0
  0
SCALE
  5
55
102
{ACAD_REACTORS
330
47
102
}
330
47
100
AcDbScale
 70
     0
300
4:1
140
4.0
141
1.0
290
     0
  0
SCALE
  5
56
102
{ACAD_REACTORS
330
47
102
}
330
47
100
AcDbScale
 70
     0
300
8:1
140
8.0
141
1.0
290
     0
  0
SCALE
  5
57
102
{ACAD_REACTORS
330
47
102
}
330
47
100
AcDbScale
 70
     0
300
10:1
140
10.0
141
1.0
290
     0
  0
SCALE
  5
58
102
{ACAD_REACTORS
330
47
102
}
330
47
100
AcDbScale
 70
     0
300
100:1
140
100.0
141
1.0
290
     0
  0
SCALE
  5
59
102
{ACAD_REACTORS
330
47
102
}
330
47
100
AcDbScale
 70
     0
300
1/128" = 1'-0"
140
0.0078125
141
12.0
290
     0
  0
SCALE
  5
5A
102
{ACAD_REACTORS
330
47
102
}
330
47
100
AcDbScale
 70
     0
300
1/64" = 1'-0"
140
0.015625
141
12.0
290
     0
  0
SCALE
  5
5B
102
{ACAD_REACTORS
330
47
102
}
330
47
100
AcDbScale
 70
     0
300
1/32" = 1'-0"
140
0.03125
141
12.0
290
     0
  0
SCALE
  5
5C
102
{ACAD_REACTORS
330
47
102
}
330
47
100
AcDbScale
 70
     0
300
1/16" = 1'-0"
140
0.0625
141
12.0
290
     0
  0
SCALE
  5
5D
102
{ACAD_REACTORS
330
47
102
}
330
47
100
AcDbScale
 70
     0
300
3/32" = 1'-0"
140
0.09375
141
12.0
290
     0
  0
SCALE
  5
5E
102
{ACAD_REACTORS
330
47
102
}
330
47
100
AcDbScale
 70
     0
300
1/8" = 1'-0"
140
0.125
141
12.0
290
     0
  0
SCALE
  5
5F
102
{ACAD_REACTORS
330
47
102
}
330
47
100
AcDbScale
 70
     0
300
3/16" = 1'-0"
140
0.1875
141
12.0
290
     0
  0
SCALE
  5
60
102
{ACAD_REACTORS
330
47
102
}
330
47
100
AcDbScale
 70
     0
300
1/4" = 1'-0"
140
0.25
141
12.0
290
     0
  0
SCALE
  5
61
102
{ACAD_REACTORS
330
47
102
}
330
47
100
AcDbScale
 70
     0
300
3/8" = 1'-0"
140
0.375
141
12.0
290
     0
  0
SCALE
  5
62
102
{ACAD_REACTORS
330
47
102
}
330
47
100
AcDbScale
 70
     0
300
1/2" = 1'-0"
140
0.5
141
12.0
290
     0
  0
SCALE
  5
63
102
{ACAD_REACTORS
330
47
102
}
330
47
100
AcDbScale
 70
     0
300
3/4" = 1'-0"
140
0.75
141
12.0
290
     0
  0
SCALE
  5
64
102
{ACAD_REACTORS
330
47
102
}
330
47
100
AcDbScale
 70
     0
300
1" = 1'-0"
140
1.0
141
12.0
290
     0
  0
SCALE
  5
65
102
{ACAD_REACTORS
330
47
102
}
330
47
100
AcDbScale
 70
     0
300
1-1/2" = 1'-0"
140
1.5
141
12.0
290
     0
  0
SCALE
  5
66
102
{ACAD_REACTORS
330
47
102
}
330
47
100
AcDbScale
 70
     0
300
3" = 1'-0"
140
3.0
141
12.0
290
     0
  0
SCALE
  5
67
102
{ACAD_REACTORS
330
47
102
}
330
47
100
AcDbScale
 70
     0
300
6" = 1'-0"
140
6.0
141
12.0
290
     0
  0
SCALE
  5
68
102
{ACAD_REACTORS
330
47
102
}
330
47
100
AcDbScale
 70
     0
300
1'-0" = 1'-0"
140
12.0
141
12.0
290
     0
  0
ENDSEC
  0
EOF
