  0
SECTION
  2
HEADER
  9
$ACADVER
  1
AC1015
  9
$ACADMAINTVER
 70
     6
  9
$DWGCODEPAGE
  3
ANSI_1252
  9
$INSBASE
 10
0.0
 20
0.0
 30
0.0
  9
$EXTMIN
 10
0.0
 20
0.0
 30
0.0
  9
$EXTMAX
 10
841.0
 20
594.0
 30
0.0
  9
$LIMMIN
 10
0.0
 20
0.0
  9
$LIMMAX
 10
841.0
 20
594.0
  9
$ORTHOMODE
 70
     0
  9
$REGENMODE
 70
     1
  9
$FILLMODE
 70
     1
  9
$QTEXTMODE
 70
     0
  9
$MIRRTEXT
 70
     1
  9
$LTSCALE
 40
1.0
  9
$ATTMODE
 70
     1
  9
$TEXTSIZE
 40
3.5
  9
$TRACEWID
 40
1.0
  9
$TEXTSTYLE
  7
Standard
  9
$CLAYER
  8
0
  9
$CELTYPE
  6
ByLayer
  9
$CECOLOR
 62
   256
  9
$CELTSCALE
 40
1.0
  9
$DISPSILH
 70
     0
  9
$DIMSCALE
 40
1.0
  9
$DIMASZ
 40
3.556
  9
$DIMEXO
 40
1.0
  9
$DIMDLI
 40
3.75
  9
$DIMRND
 40
0.0
  9
$DIMDLE
 40
0.0
  9
$DIMEXE
 40
1.0
  9
$DIMTP
 40
0.0
  9
$DIMTM
 40
0.0
  9
$DIMTXT
 40
3.5
  9
$DIMCEN
 40
2.5
  9
$DIMTSZ
 40
0.0
  9
$DIMTOL
 70
     0
  9
$DIMLIM
 70
     0
  9
$DIMTIH
 70
     1
  9
$DIMTOH
 70
     1
  9
$DIMSE1
 70
     0
  9
$DIMSE2
 70
     0
  9
$DIMTAD
 70
     1
  9
$DIMZIN
 70
     1
  9
$DIMBLK
  1

  9
$DIMASO
 70
     1
  9
$DIMSHO
 70
     1
  9
$DIMPOST
  1

  9
$DIMAPOST
  1

  9
$DIMALT
 70
     0
  9
$DIMALTD
 70
     3
  9
$DIMALTF
 40
0.0393700787
  9
$DIMLFAC
 40
1.0
  9
$DIMTOFL
 70
     1
  9
$DIMTVP
 40
0.0
  9
$DIMTIX
 70
     0
  9
$DIMSOXD
 70
     0
  9
$DIMSAH
 70
     0
  9
$DIMBLK1
  1

  9
$DIMBLK2
  1

  9
$DIMSTYLE
  2
ISO-25
  9
$DIMCLRD
 70
     0
  9
$DIMCLRE
 70
     0
  9
$DIMCLRT
 70
     0
  9
$DIMTFAC
 40
1.0
  9
$DIMGAP
 40
1.524
  9
$DIMJUST
 70
     0
  9
$DIMSD1
 70
     0
  9
$DIMSD2
 70
     0
  9
$DIMTOLJ
 70
     0
  9
$DIMTZIN
 70
     1
  9
$DIMALTZ
 70
     0
  9
$DIMALTTZ
 70
     0
  9
$DIMUPT
 70
     0
  9
$DIMDEC
 70
     2
  9
$DIMTDEC
 70
     2
  9
$DIMALTU
 70
     2
  9
$DIMALTTD
 70
     3
  9
$DIMTXSTY
  7
Standard
  9
$DIMAUNIT
 70
     0
  9
$DIMADEC
 70
     2
  9
$DIMALTRND
 40
0.0
  9
$DIMAZIN
 70
     0
  9
$DIMDSEP
 70
    44
  9
$DIMATFIT
 70
     3
  9
$DIMFRAC
 70
     0
  9
$DIMLDRBLK
  1

  9
$DIMLUNIT
 70
     2
  9
$DIMLWD
 70
    -2
  9
$DIMLWE
 70
    -2
  9
$DIMTMOVE
 70
     0
  9
$LUNITS
 70
     2
  9
$LUPREC
 70
     2
  9
$SKETCHINC
 40
1.0
  9
$FILLETRAD
 40
10.0
  9
$AUNITS
 70
     0
  9
$AUPREC
 70
     2
  9
$MENU
  1
.
  9
$ELEVATION
 40
0.0
  9
$PELEVATION
 40
0.0
  9
$THICKNESS
 40
0.0
  9
$LIMCHECK
 70
     0
  9
$CHAMFERA
 40
0.0
  9
$CHAMFERB
 40
0.0
  9
$CHAMFERC
 40
0.0
  9
$CHAMFERD
 40
0.0
  9
$SKPOLY
 70
     0
  9
$TDCREATE
 40
2457565.688852894
  9
$TDUCREATE
 40
2457565.60551956
  9
$TDUPDATE
 40
2457565.688854143
  9
$TDUUPDATE
 40
2457565.60552081
  9
$TDINDWG
 40
0.0000000116
  9
$TDUSRTIMER
 40
0.0000000116
  9
$USRTIMER
 70
     1
  9
$ANGBASE
 50
0.0
  9
$ANGDIR
 70
     0
  9
$PDMODE
 70
     0
  9
$PDSIZE
 40
-1.0
  9
$PLINEWID
 40
0.0
  9
$SPLFRAME
 70
     0
  9
$SPLINETYPE
 70
     6
  9
$SPLINESEGS
 70
     8
  9
$HANDSEED
  5
1AA
  9
$SURFTAB1
 70
     6
  9
$SURFTAB2
 70
     6
  9
$SURFTYPE
 70
     6
  9
$SURFU
 70
     6
  9
$SURFV
 70
     6
  9
$UCSBASE
  2

  9
$UCSNAME
  2

  9
$UCSORG
 10
0.0
 20
0.0
 30
0.0
  9
$UCSXDIR
 10
1.0
 20
0.0
 30
0.0
  9
$UCSYDIR
 10
0.0
 20
1.0
 30
0.0
  9
$UCSORTHOREF
  2

  9
$UCSORTHOVIEW
 70
     0
  9
$UCSORGTOP
 10
0.0
 20
0.0
 30
0.0
  9
$UCSORGBOTTOM
 10
0.0
 20
0.0
 30
0.0
  9
$UCSORGLEFT
 10
0.0
 20
0.0
 30
0.0
  9
$UCSORGRIGHT
 10
0.0
 20
0.0
 30
0.0
  9
$UCSORGFRONT
 10
0.0
 20
0.0
 30
0.0
  9
$UCSORGBACK
 10
0.0
 20
0.0
 30
0.0
  9
$PUCSBASE
  2

  9
$PUCSNAME
  2

  9
$PUCSORG
 10
0.0
 20
0.0
 30
0.0
  9
$PUCSXDIR
 10
1.0
 20
0.0
 30
0.0
  9
$PUCSYDIR
 10
0.0
 20
1.0
 30
0.0
  9
$PUCSORTHOREF
  2

  9
$PUCSORTHOVIEW
 70
     0
  9
$PUCSORGTOP
 10
0.0
 20
0.0
 30
0.0
  9
$PUCSORGBOTTOM
 10
0.0
 20
0.0
 30
0.0
  9
$PUCSORGLEFT
 10
0.0
 20
0.0
 30
0.0
  9
$PUCSORGRIGHT
 10
0.0
 20
0.0
 30
0.0
  9
$PUCSORGFRONT
 10
0.0
 20
0.0
 30
0.0
  9
$PUCSORGBACK
 10
0.0
 20
0.0
 30
0.0
  9
$USERI1
 70
     0
  9
$USERI2
 70
     0
  9
$USERI3
 70
     0
  9
$USERI4
 70
     0
  9
$USERI5
 70
     0
  9
$USERR1
 40
0.0
  9
$USERR2
 40
0.0
  9
$USERR3
 40
0.0
  9
$USERR4
 40
0.0
  9
$USERR5
 40
0.0
  9
$WORLDVIEW
 70
     1
  9
$SHADEDGE
 70
     3
  9
$SHADEDIF
 70
    70
  9
$TILEMODE
 70
     1
  9
$MAXACTVP
 70
    64
  9
$PINSBASE
 10
0.0
 20
0.0
 30
0.0
  9
$PLIMCHECK
 70
     0
  9
$PEXTMIN
 10
1.0000000000E+20
 20
1.0000000000E+20
 30
1.0000000000E+20
  9
$PEXTMAX
 10
-1.0000000000E+20
 20
-1.0000000000E+20
 30
-1.0000000000E+20
  9
$PLIMMIN
 10
0.0
 20
0.0
  9
$PLIMMAX
 10
420.0
 20
297.0
  9
$UNITMODE
 70
     0
  9
$VISRETAIN
 70
     1
  9
$PLINEGEN
 70
     0
  9
$PSLTSCALE
 70
     1
  9
$TREEDEPTH
 70
  3020
  9
$CMLSTYLE
  2
Standard
  9
$CMLJUST
 70
     0
  9
$CMLSCALE
 40
20.0
  9
$PROXYGRAPHICS
 70
     1
  9
$MEASUREMENT
 70
     1
  9
$CELWEIGHT
370
    -1
  9
$ENDCAPS
280
     0
  9
$JOINSTYLE
280
     0
  9
$LWDISPLAY
290
     1
  9
$INSUNITS
 70
     4
  9
$HYPERLINKBASE
  1

  9
$STYLESHEET
  1

  9
$XEDIT
290
     1
  9
$CEPSNTYPE
380
     0
  9
$PSTYLEMODE
290
     1
  9
$FINGERPRINTGUID
  2
{6F69D25E-2701-410B-9ECD-53908B7C8F63}
  9
$VERSIONGUID
  2
{FAEB1C32-E019-11D5-929B-00C0DF256EC4}
  9
$EXTNAMES
290
     1
  9
$PSVPSCALE
 40
0.0
  9
$OLESTARTUP
290
     0
  0
ENDSEC
  0
SECTION
  2
CLASSES
  0
CLASS
  1
ACDBDICTIONARYWDFLT
  2
AcDbDictionaryWithDefault
  3
ObjectDBX Classes
 90
        0
280
     0
281
     0
  0
CLASS
  1
VISUALSTYLE
  2
AcDbVisualStyle
  3
ObjectDBX Classes
 90
     4095
280
     0
281
     0
  0
CLASS
  1
MATERIAL
  2
AcDbMaterial
  3
ObjectDBX Classes
 90
     1153
280
     0
281
     0
  0
CLASS
  1
SCALE
  2
AcDbScale
  3
ObjectDBX Classes
 90
     1153
280
     0
281
     0
  0
CLASS
  1
TABLESTYLE
  2
AcDbTableStyle
  3
ObjectDBX Classes
 90
     4095
280
     0
281
     0
  0
CLASS
  1
MLEADERSTYLE
  2
AcDbMLeaderStyle
  3
ACDB_MLEADERSTYLE_CLASS
 90
     4095
280
     0
281
     0
  0
CLASS
  1
SUN
  2
AcDbSun
  3
SCENEOE
 90
     1153
280
     0
281
     0
  0
CLASS
  1
ACDBPLACEHOLDER
  2
AcDbPlaceHolder
  3
ObjectDBX Classes
 90
        0
280
     0
281
     0
  0
CLASS
  1
LAYOUT
  2
AcDbLayout
  3
ObjectDBX Classes
 90
        0
280
     0
281
     0
  0
ENDSEC
  0
SECTION
  2
TABLES
  0
TABLE
  2
VPORT
  5
8
330
0
100
AcDbSymbolTable
 70
     1
  0
VPORT
  5
29
330
8
100
AcDbSymbolTableRecord
100
AcDbViewportTableRecord
  2
*Active
 70
     0
 10
0.0
 20
0.0
 11
1.0
 21
1.0
 12
420.5
 22
297.0
 13
0.0
 23
0.0
 14
10.0
 24
10.0
 15
10.0
 25
10.0
 16
0.0
 26
0.0
 36
1.0
 17
0.0
 27
0.0
 37
0.0
 40
594.0
 41
1.4158249158
 42
50.0
 43
0.0
 44
0.0
 50
0.0
 51
0.0
 71
     0
 72
  2000
 73
     1
 74
     3
 75
     0
 76
     0
 77
     0
 78
     0
281
     0
 65
     1
110
0.0
120
0.0
130
0.0
111
1.0
121
0.0
131
0.0
112
0.0
122
1.0
132
0.0
 79
     0
146
0.0
  0
ENDTAB
  0
TABLE
  2
LTYPE
  5
5
330
0
100
AcDbSymbolTable
 70
     6
  0
LTYPE
  5
14
330
5
100
AcDbSymbolTableRecord
100
AcDbLinetypeTableRecord
  2
ByBlock
 70
     0
  3

 72
    65
 73
     0
 40
0.0
  0
LTYPE
  5
15
330
5
100
AcDbSymbolTableRecord
100
AcDbLinetypeTableRecord
  2
ByLayer
 70
     0
  3

 72
    65
 73
     0
 40
0.0
  0
LTYPE
  5
16
330
5
100
AcDbSymbolTableRecord
100
AcDbLinetypeTableRecord
  2
Continuous
 70
     0
  3
Solid line
 72
    65
 73
     0
 40
0.0
  0
LTYPE
  5
6E
330
5
100
AcDbSymbolTableRecord
100
AcDbLinetypeTableRecord
  2
HIDDEN
 70
     0
  3
Hidden __ __ __ __ __ __ __ __ __ __ __ __ __ __
 72
    65
 73
     2
 40
1.905
 49
1.27
 74
     0
 49
-0.635
 74
     0
  0
LTYPE
  5
6F
330
5
100
AcDbSymbolTableRecord
100
AcDbLinetypeTableRecord
  2
PHANTOM
 70
     0
  3
Phantom ______  __  __  ______  __  __  ______
 72
    65
 73
     6
 40
12.7
 49
6.35
 74
     0
 49
-1.27
 74
     0
 49
1.27
 74
     0
 49
-1.27
 74
     0
 49
1.27
 74
     0
 49
-1.27
 74
     0
  0
LTYPE
  5
70
330
5
100
AcDbSymbolTableRecord
100
AcDbLinetypeTableRecord
  2
CENTER
 70
     0
  3
Center ____ _ ____ _ ____ _ ____ _ ____ _ ____
 72
    65
 73
     4
 40
10.16
 49
6.35
 74
     0
 49
-1.27
 74
     0
 49
1.27
 74
     0
 49
-1.27
 74
     0
  0
LTYPE
  5
71
330
5
100
AcDbSymbolTableRecord
100
AcDbLinetypeTableRecord
  2
CENTERX2
 70
     0
  3
Center (2x) ________  __  ________  __  _____
 72
    65
 73
     4
 40
20.32
 49
12.7
 74
     0
 49
-2.54
 74
     0
 49
2.54
 74
     0
 49
-2.54
 74
     0
  0
LTYPE
  5
72
330
5
100
AcDbSymbolTableRecord
100
AcDbLinetypeTableRecord
  2
DOT2
 70
     0
  3
Dot (.5x) ........................................
 72
    65
 73
     2
 40
0.635
 49
0.0
 74
     0
 49
-0.635
 74
     0
  0
ENDTAB
  0
TABLE
  2
LAYER
  5
2
330
0
100
AcDbSymbolTable
 70
     2
  0
LAYER
  5
10
330
2
100
AcDbSymbolTableRecord
100
AcDbLayerTableRecord
  2
0
 70
     0
 62
     7
  6
Continuous
370
    -3
390
F
  0
LAYER
  5
73
330
2
100
AcDbSymbolTableRecord
100
AcDbLayerTableRecord
  2
SLD-0
 70
     0
 62
   179
  6
Continuous
370
    -3
390
F
  0
ENDTAB
  0
TABLE
  2
STYLE
  5
3
330
0
100
AcDbSymbolTable
 70
     2
  0
STYLE
  5
11
330
3
100
AcDbSymbolTableRecord
100
AcDbTextStyleTableRecord
  2
Standard
 70
     0
 40
0.0
 41
1.0
 50
0.0
 71
     0
 42
3.5
  3
txt
  4

  0
STYLE
  5
1A7
330
3
100
AcDbSymbolTableRecord
100
AcDbTextStyleTableRecord
  2
SLDTEXTSTYLE0
 70
     0
 40
0.0
 41
0.7
 50
0.0
 71
     0
 42
3.5
  3
TXT
  4

  0
ENDTAB
  0
TABLE
  2
VIEW
  5
6
330
0
100
AcDbSymbolTable
 70
     0
  0
ENDTAB
  0
TABLE
  2
UCS
  5
7
330
0
100
AcDbSymbolTable
 70
     0
  0
ENDTAB
  0
TABLE
  2
APPID
  5
9
330
0
100
AcDbSymbolTable
 70
     1
  0
APPID
  5
12
330
9
100
AcDbSymbolTableRecord
100
AcDbRegAppTableRecord
  2
ACAD
 70
     0
  0
ENDTAB
  0
TABLE
  2
DIMSTYLE
  5
A
330
0
100
AcDbSymbolTable
 70
     1
100
AcDbDimStyleTable
  0
DIMSTYLE
105
27
330
A
100
AcDbSymbolTableRecord
100
AcDbDimStyleTableRecord
  2
ISO-25
 70
     0
 41
2.5
 42
0.625
 43
3.75
 44
1.25
 73
     0
 74
     0
 77
     1
 78
     8
140
2.5
141
2.5
143
0.0393700787
147
0.625
171
     3
172
     1
178
     0
271
     2
272
     2
274
     3
278
    44
283
     0
284
     8
340
11
  0
ENDTAB
  0
TABLE
  2
BLOCK_RECORD
  5
1
330
0
100
AcDbSymbolTable
 70
     1
  0
BLOCK_RECORD
  5
1F
330
1
100
AcDbSymbolTableRecord
100
AcDbBlockTableRecord
  2
*Model_Space
340
22
  0
BLOCK_RECORD
  5
1B
330
1
100
AcDbSymbolTableRecord
100
AcDbBlockTableRecord
  2
*Paper_Space
340
1E
  0
BLOCK_RECORD
  5
23
330
1
100
AcDbSymbolTableRecord
100
AcDbBlockTableRecord
  2
*Paper_Space0
340
26
  0
ENDTAB
  0
ENDSEC
  0
SECTION
  2
BLOCKS
  0
BLOCK
  5
20
330
1F
100
AcDbEntity
  8
0
100
AcDbBlockBegin
  2
*Model_Space
 70
     0
 10
0.0
 20
0.0
 30
0.0
  3
*Model_Space
  1

  0
ENDBLK
  5
21
330
1F
100
AcDbEntity
  8
0
100
AcDbBlockEnd
  0
BLOCK
  5
1C
330
1B
100
AcDbEntity
 67
     1
  8
0
100
AcDbBlockBegin
  2
*Paper_Space
 70
     0
 10
0.0
 20
0.0
 30
0.0
  3
*Paper_Space
  1

  0
ENDBLK
  5
1D
330
1B
100
AcDbEntity
 67
     1
  8
0
100
AcDbBlockEnd
  0
BLOCK
  5
24
330
23
100
AcDbEntity
  8
0
100
AcDbBlockBegin
  2
*Paper_Space0
 70
     0
 10
0.0
 20
0.0
 30
0.0
  3
*Paper_Space0
  1

  0
ENDBLK
  5
25
330
23
100
AcDbEntity
  8
0
100
AcDbBlockEnd
  0
ENDSEC
  0
SECTION
  2
ENTITIES
  0
LINE
  5
74
330
1F
100
AcDbEntity
  8
SLD-0
  6
Continuous
 62
   179
370
    15
100
AcDbLine
 10
13.9324263052
 20
549.520170373
 30
0.0
 11
16.9324267969
 21
549.520170373
 31
0.0
  0
LINE
  5
75
330
1F
100
AcDbEntity
  8
SLD-0
  6
Continuous
 62
   179
370
    15
100
AcDbLine
 10
16.9324267969
 20
549.520170373
 30
0.0
 11
16.9324267969
 21
559.5201720121
 31
0.0
  0
LINE
  5
76
330
1F
100
AcDbEntity
  8
SLD-0
  6
Continuous
 62
   179
370
    15
100
AcDbLine
 10
13.9324263052
 20
559.5201720121
 30
0.0
 11
13.9324263052
 21
549.520170373
 31
0.0
  0
LINE
  5
77
330
1F
100
AcDbEntity
  8
SLD-0
  6
Continuous
 62
   179
370
    15
100
AcDbLine
 10
16.9324267969
 20
559.5201720121
 30
0.0
 11
13.9324263052
 21
559.5201720121
 31
0.0
  0
LINE
  5
78
330
1F
100
AcDbEntity
  8
SLD-0
  6
Continuous
 62
   179
370
    15
100
AcDbLine
 10
8.4409311728
 20
577.5201749625
 30
0.0
 11
9.3842715339
 21
559.5201720121
 31
0.0
  0
LINE
  5
79
330
1F
100
AcDbEntity
  8
SLD-0
  6
Continuous
 62
   179
370
    15
100
AcDbLine
 10
9.3842715339
 20
559.5201720121
 30
0.0
 11
10.3856444673
 21
559.5201720121
 31
0.0
  0
LINE
  5
7A
330
1F
100
AcDbEntity
  8
SLD-0
  6
Continuous
 62
   179
370
    15
100
AcDbLine
 10
10.3856444673
 20
559.5201720121
 30
0.0
 11
10.9080549643
 21
549.5519582751
 31
0.0
  0
LINE
  5
7B
330
1F
100
AcDbEntity
  8
SLD-0
  6
Continuous
 62
   179
370
    15
100
AcDbLine
 10
19.9567984704
 20
549.5519595481
 30
0.0
 11
20.4792104975
 21
559.5201720121
 31
0.0
  0
LINE
  5
7C
330
1F
100
AcDbEntity
  8
SLD-0
  6
Continuous
 62
   179
370
    15
100
AcDbLine
 10
20.4792104975
 20
559.5201720121
 30
0.0
 11
21.4805834309
 21
559.5201720121
 31
0.0
  0
LINE
  5
7D
330
1F
100
AcDbEntity
  8
SLD-0
  6
Continuous
 62
   179
370
    15
100
AcDbLine
 10
21.4805834309
 20
559.5201720121
 30
0.0
 11
22.423923792
 21
577.5201749625
 31
0.0
  0
LINE
  5
7E
330
1F
100
AcDbEntity
  8
SLD-0
  6
Continuous
 62
   179
370
    15
100
AcDbLine
 10
22.423923792
 20
577.5201749625
 30
0.0
 11
8.4409311728
 21
577.5201749625
 31
0.0
  0
LINE
  5
7F
330
1F
100
AcDbEntity
  8
SLD-0
  6
Continuous
 62
   179
370
    15
100
AcDbLine
 10
42.2561005612
 20
554.4831328679
 30
0.0
 11
45.256101053
 21
554.4831328679
 31
0.0
  0
LINE
  5
80
330
1F
100
AcDbEntity
  8
SLD-0
  6
Continuous
 62
   179
370
    15
100
AcDbLine
 10
45.256101053
 20
554.4831328679
 30
0.0
 11
45.256101053
 21
567.4831331361
 31
0.0
  0
LINE
  5
81
330
1F
100
AcDbEntity
  8
SLD-0
  6
Continuous
 62
   179
370
    15
100
AcDbLine
 10
45.256101053
 20
567.4831331361
 30
0.0
 11
42.2561005612
 21
567.4831331361
 31
0.0
  0
LINE
  5
82
330
1F
100
AcDbEntity
  8
SLD-0
  6
Continuous
 62
   179
370
    15
100
AcDbLine
 10
42.2561005612
 20
567.4831331361
 30
0.0
 11
42.2561005612
 21
554.4831328679
 31
0.0
  0
LINE
  5
83
330
1F
100
AcDbEntity
  8
SLD-0
  6
Continuous
 62
   179
370
    15
100
AcDbLine
 10
26.044704478
 20
577.4831347752
 30
0.0
 11
26.044704478
 21
569.4831334639
 31
0.0
  0
LINE
  5
84
330
1F
100
AcDbEntity
  8
SLD-0
  6
Continuous
 62
   179
370
    15
100
AcDbLine
 10
61.4674962049
 20
577.4831347752
 30
0.0
 11
26.044704478
 21
577.4831347752
 31
0.0
  0
LINE
  5
85
330
1F
100
AcDbEntity
  8
SLD-0
  6
Continuous
 62
   179
370
    15
100
AcDbLine
 10
61.4674962049
 20
569.4831334639
 30
0.0
 11
61.4674962049
 21
577.4831347752
 31
0.0
  0
LINE
  5
86
330
1F
100
AcDbEntity
  8
SLD-0
  6
Continuous
 62
   179
370
    15
100
AcDbLine
 10
59.4674958771
 20
569.4831334639
 30
0.0
 11
61.4674962049
 21
569.4831334639
 31
0.0
  0
LINE
  5
87
330
1F
100
AcDbEntity
  8
SLD-0
  6
Continuous
 62
   179
370
    15
100
AcDbLine
 10
59.4674958771
 20
544.4831330914
 30
0.0
 11
59.4674958771
 21
569.4831334639
 31
0.0
  0
LINE
  5
88
330
1F
100
AcDbEntity
  8
SLD-0
  6
Continuous
 62
   179
370
    15
100
AcDbLine
 10
28.0447048058
 20
544.4831330914
 30
0.0
 11
59.4674958771
 21
544.4831330914
 31
0.0
  0
LINE
  5
89
330
1F
100
AcDbEntity
  8
SLD-0
  6
Continuous
 62
   179
370
    15
100
AcDbLine
 10
28.0447048058
 20
569.4831334639
 30
0.0
 11
28.0447048058
 21
544.4831330914
 31
0.0
  0
LINE
  5
8A
330
1F
100
AcDbEntity
  8
SLD-0
  6
Continuous
 62
   179
370
    15
100
AcDbLine
 10
26.044704478
 20
569.4831334639
 30
0.0
 11
28.0447048058
 21
569.4831334639
 31
0.0
  0
LINE
  5
8B
330
1F
100
AcDbEntity
  8
SLD-0
  6
Continuous
 62
   179
370
    15
100
AcDbLine
 10
43.9794321835
 20
524.9684128878
 30
0.0
 11
30.9794319152
 21
528.8997140681
 31
0.0
  0
LINE
  5
8C
330
1F
100
AcDbEntity
  8
SLD-0
  6
Continuous
 62
   179
370
    15
100
AcDbLine
 10
30.9794319152
 20
528.8997140681
 30
0.0
 11
30.9794319152
 21
529.0999884685
 31
0.0
  0
LINE
  5
8D
330
1F
100
AcDbEntity
  8
SLD-0
  6
Continuous
 62
   179
370
    15
100
AcDbLine
 10
30.9794319152
 20
529.0999884685
 30
0.0
 11
12.6438883423
 21
530.0609135968
 31
0.0
  0
LINE
  5
8E
330
1F
100
AcDbEntity
  8
SLD-0
  6
Continuous
 62
   179
370
    15
100
AcDbLine
 10
43.9794321835
 20
541.1451917109
 30
0.0
 11
30.9794319152
 21
537.2138905307
 31
0.0
  0
LINE
  5
8F
330
1F
100
AcDbEntity
  8
SLD-0
  6
Continuous
 62
   179
370
    15
100
AcDbLine
 10
30.9794319152
 20
537.2138905307
 30
0.0
 11
30.9794319152
 21
537.0136161302
 31
0.0
  0
LINE
  5
90
330
1F
100
AcDbEntity
  8
SLD-0
  6
Continuous
 62
   179
370
    15
100
AcDbLine
 10
30.9794319152
 20
537.0136161302
 30
0.0
 11
12.6438878183
 21
536.0526909744
 31
0.0
  0
LINE
  5
91
330
1F
100
AcDbEntity
  8
SLD-0
  6
Continuous
 62
   179
370
    15
100
AcDbLine
 10
43.9794321835
 20
524.9684128878
 30
0.0
 11
43.9794321835
 21
541.1451917109
 31
0.0
  0
LINE
  5
92
330
1F
100
AcDbEntity
  8
SLD-0
  6
Continuous
 62
   179
370
    15
100
AcDbLine
 10
95.1355724283
 20
557.2543712903
 30
0.0
 11
95.1355724283
 21
551.2543703069
 31
0.0
  0
LINE
  5
93
330
1F
100
AcDbEntity
  8
SLD-0
  6
Continuous
 62
   179
370
    15
100
AcDbLine
 10
67.1355678388
 20
560.2543699194
 30
0.0
 11
67.1355678388
 21
557.2543712903
 31
0.0
  0
LINE
  5
94
330
1F
100
AcDbEntity
  8
SLD-0
  6
Continuous
 62
   179
370
    15
100
AcDbLine
 10
69.1355681666
 20
563.7184726645
 30
0.0
 11
67.1355678388
 21
560.2543699194
 31
0.0
  0
LINE
  5
95
330
1F
100
AcDbEntity
  8
SLD-0
  6
Continuous
 62
   179
370
    15
100
AcDbLine
 10
80.1355703421
 20
551.2543703069
 30
0.0
 11
80.1355703421
 21
572.2543718864
 31
0.0
  0
LINE
  5
96
330
1F
100
AcDbEntity
  8
SLD-0
  6
Continuous
 62
   179
370
    15
100
AcDbLine
 10
80.1355703421
 20
572.2543718864
 30
0.0
 11
78.7355727203
 21
572.2543718864
 31
0.0
  0
LINE
  5
97
330
1F
100
AcDbEntity
  8
SLD-0
  6
Continuous
 62
   179
370
    15
100
AcDbLine
 10
78.7355727203
 20
575.2543705155
 30
0.0
 11
80.7557194181
 21
578.7533717801
 31
0.0
  0
LINE
  5
98
330
1F
100
AcDbEntity
  8
SLD-0
  6
Continuous
 62
   179
370
    15
100
AcDbLine
 10
80.7557194181
 20
578.7533717801
 30
0.0
 11
88.1355716534
 21
578.7533717801
 31
0.0
  0
LINE
  5
99
330
1F
100
AcDbEntity
  8
SLD-0
  6
Continuous
 62
   179
370
    15
100
AcDbLine
 10
88.1355716534
 20
563.7184726645
 30
0.0
 11
90.1355719812
 21
560.2543699194
 31
0.0
  0
LINE
  5
9A
330
1F
100
AcDbEntity
  8
SLD-0
  6
Continuous
 62
   179
370
    15
100
AcDbLine
 10
90.1355719812
 20
560.2543699194
 30
0.0
 11
90.1355719812
 21
557.2543712903
 31
0.0
  0
LINE
  5
9B
330
1F
100
AcDbEntity
  8
SLD-0
  6
Continuous
 62
   179
370
    15
100
AcDbLine
 10
78.7355727203
 20
572.2543718864
 30
0.0
 11
78.7355727203
 21
575.2543705155
 31
0.0
  0
LINE
  5
9C
330
1F
100
AcDbEntity
  8
SLD-0
  6
Continuous
 62
   179
370
    15
100
AcDbLine
 10
77.135571713
 20
572.2543718864
 30
0.0
 11
78.5355670997
 21
572.2543718864
 31
0.0
  0
LINE
  5
9D
330
1F
100
AcDbEntity
  8
SLD-0
  6
Continuous
 62
   179
370
    15
100
AcDbLine
 10
78.5355670997
 20
572.2543718864
 30
0.0
 11
78.5355670997
 21
575.2543705155
 31
0.0
  0
LINE
  5
9E
330
1F
100
AcDbEntity
  8
SLD-0
  6
Continuous
 62
   179
370
    15
100
AcDbLine
 10
78.5355670997
 20
575.2543705155
 30
0.0
 11
76.5154204019
 21
578.7533717801
 31
0.0
  0
LINE
  5
9F
330
1F
100
AcDbEntity
  8
SLD-0
  6
Continuous
 62
   179
370
    15
100
AcDbLine
 10
76.5154204019
 20
578.7533717801
 30
0.0
 11
69.1355681666
 21
578.7533717801
 31
0.0
  0
LINE
  5
A0
330
1F
100
AcDbEntity
  8
SLD-0
  6
Continuous
 62
   179
370
    15
100
AcDbLine
 10
69.1355681666
 20
578.7533717801
 30
0.0
 11
69.1355681666
 21
563.7184726645
 31
0.0
  0
LINE
  5
A1
330
1F
100
AcDbEntity
  8
SLD-0
  6
Continuous
 62
   179
370
    15
100
AcDbLine
 10
67.1355678388
 20
557.2543712903
 30
0.0
 11
62.1355688818
 21
557.2543712903
 31
0.0
  0
LINE
  5
A2
330
1F
100
AcDbEntity
  8
SLD-0
  6
Continuous
 62
   179
370
    15
100
AcDbLine
 10
62.1355688818
 20
557.2543712903
 30
0.0
 11
62.1355688818
 21
551.2543706645
 31
0.0
  0
LINE
  5
A3
330
1F
100
AcDbEntity
  8
SLD-0
  6
Continuous
 62
   179
370
    15
100
AcDbLine
 10
77.1355709679
 20
551.2543707177
 30
0.0
 11
77.135571713
 21
572.2543718864
 31
0.0
  0
LINE
  5
A4
330
1F
100
AcDbEntity
  8
SLD-0
  6
Continuous
 62
   179
370
    15
100
AcDbLine
 10
88.1355716534
 20
578.7533717801
 30
0.0
 11
88.1355716534
 21
563.7184726645
 31
0.0
  0
LINE
  5
A5
330
1F
100
AcDbEntity
  8
SLD-0
  6
Continuous
 62
   179
370
    15
100
AcDbLine
 10
90.1355719812
 20
557.2543712903
 30
0.0
 11
95.1355724283
 21
557.2543712903
 31
0.0
  0
LINE
  5
A6
330
1F
100
AcDbEntity
  8
SLD-0
  6
Continuous
 62
   179
370
    15
100
AcDbLine
 10
129.7798809389
 20
557.2424846733
 30
0.0
 11
129.7798809389
 21
551.2424836898
 31
0.0
  0
LINE
  5
A7
330
1F
100
AcDbEntity
  8
SLD-0
  6
Continuous
 62
   179
370
    15
100
AcDbLine
 10
101.7798763494
 20
560.2424833024
 30
0.0
 11
101.7798763494
 21
557.2424846733
 31
0.0
  0
LINE
  5
A8
330
1F
100
AcDbEntity
  8
SLD-0
  6
Continuous
 62
   179
370
    15
100
AcDbLine
 10
103.7798766772
 20
563.7065860475
 30
0.0
 11
101.7798763494
 21
560.2424833024
 31
0.0
  0
LINE
  5
A9
330
1F
100
AcDbEntity
  8
SLD-0
  6
Continuous
 62
   179
370
    15
100
AcDbLine
 10
114.7798788527
 20
551.2424836898
 30
0.0
 11
114.7798788527
 21
572.2424852694
 31
0.0
  0
LINE
  5
AA
330
1F
100
AcDbEntity
  8
SLD-0
  6
Continuous
 62
   179
370
    15
100
AcDbLine
 10
114.7798788527
 20
572.2424852694
 30
0.0
 11
113.3798812309
 21
572.2424852694
 31
0.0
  0
LINE
  5
AB
330
1F
100
AcDbEntity
  8
SLD-0
  6
Continuous
 62
   179
370
    15
100
AcDbLine
 10
113.3798812309
 20
575.2424838985
 30
0.0
 11
115.4000279287
 21
578.741485163
 31
0.0
  0
LINE
  5
AC
330
1F
100
AcDbEntity
  8
SLD-0
  6
Continuous
 62
   179
370
    15
100
AcDbLine
 10
115.4000279287
 20
578.741485163
 30
0.0
 11
122.779880164
 21
578.741485163
 31
0.0
  0
LINE
  5
AD
330
1F
100
AcDbEntity
  8
SLD-0
  6
Continuous
 62
   179
370
    15
100
AcDbLine
 10
122.779880164
 20
563.7065860475
 30
0.0
 11
124.7798804918
 21
560.2424833024
 31
0.0
  0
LINE
  5
AE
330
1F
100
AcDbEntity
  8
SLD-0
  6
Continuous
 62
   179
370
    15
100
AcDbLine
 10
124.7798804918
 20
560.2424833024
 30
0.0
 11
124.7798804918
 21
557.2424846733
 31
0.0
  0
LINE
  5
AF
330
1F
100
AcDbEntity
  8
SLD-0
  6
Continuous
 62
   179
370
    15
100
AcDbLine
 10
113.3798812309
 20
572.2424852694
 30
0.0
 11
113.3798812309
 21
575.2424838985
 31
0.0
  0
LINE
  5
B0
330
1F
100
AcDbEntity
  8
SLD-0
  6
Continuous
 62
   179
370
    15
100
AcDbLine
 10
111.7798802236
 20
572.2424852694
 30
0.0
 11
113.1798756103
 21
572.2424852694
 31
0.0
  0
LINE
  5
B1
330
1F
100
AcDbEntity
  8
SLD-0
  6
Continuous
 62
   179
370
    15
100
AcDbLine
 10
113.1798756103
 20
572.2424852694
 30
0.0
 11
113.1798756103
 21
575.2424838985
 31
0.0
  0
LINE
  5
B2
330
1F
100
AcDbEntity
  8
SLD-0
  6
Continuous
 62
   179
370
    15
100
AcDbLine
 10
113.1798756103
 20
575.2424838985
 30
0.0
 11
111.1597289125
 21
578.741485163
 31
0.0
  0
LINE
  5
B3
330
1F
100
AcDbEntity
  8
SLD-0
  6
Continuous
 62
   179
370
    15
100
AcDbLine
 10
111.1597289125
 20
578.741485163
 30
0.0
 11
103.7798766772
 21
578.741485163
 31
0.0
  0
LINE
  5
B4
330
1F
100
AcDbEntity
  8
SLD-0
  6
Continuous
 62
   179
370
    15
100
AcDbLine
 10
103.7798766772
 20
578.741485163
 30
0.0
 11
103.7798766772
 21
563.7065860475
 31
0.0
  0
LINE
  5
B5
330
1F
100
AcDbEntity
  8
SLD-0
  6
Continuous
 62
   179
370
    15
100
AcDbLine
 10
101.7798763494
 20
557.2424846733
 30
0.0
 11
96.7798773924
 21
557.2424846733
 31
0.0
  0
LINE
  5
B6
330
1F
100
AcDbEntity
  8
SLD-0
  6
Continuous
 62
   179
370
    15
100
AcDbLine
 10
96.7798773924
 20
557.2424846733
 30
0.0
 11
96.7798773924
 21
551.2424840475
 31
0.0
  0
LINE
  5
B7
330
1F
100
AcDbEntity
  8
SLD-0
  6
Continuous
 62
   179
370
    15
100
AcDbLine
 10
111.7798794785
 20
551.2424841007
 30
0.0
 11
111.7798802236
 21
572.2424852694
 31
0.0
  0
LINE
  5
B8
330
1F
100
AcDbEntity
  8
SLD-0
  6
Continuous
 62
   179
370
    15
100
AcDbLine
 10
122.779880164
 20
578.741485163
 30
0.0
 11
122.779880164
 21
563.7065860475
 31
0.0
  0
LINE
  5
B9
330
1F
100
AcDbEntity
  8
SLD-0
  6
Continuous
 62
   179
370
    15
100
AcDbLine
 10
124.7798804918
 20
557.2424846733
 30
0.0
 11
129.7798809389
 21
557.2424846733
 31
0.0
  0
LINE
  5
BA
330
1F
100
AcDbEntity
  8
SLD-0
  6
Continuous
 62
   179
370
    15
100
AcDbLine
 10
140.4339227077
 20
548.9562405846
 30
0.0
 11
140.4339227077
 21
545.9562419555
 31
0.0
  0
LINE
  5
BB
330
1F
100
AcDbEntity
  8
SLD-0
  6
Continuous
 62
   179
370
    15
100
AcDbLine
 10
140.4339227077
 20
545.9562419555
 30
0.0
 11
136.9698236879
 21
539.956240972
 31
0.0
  0
LINE
  5
BC
330
1F
100
AcDbEntity
  8
SLD-0
  6
Continuous
 62
   179
370
    15
100
AcDbLine
 10
136.9698236879
 20
539.956240972
 30
0.0
 11
131.4339230951
 21
539.956240972
 31
0.0
  0
LINE
  5
BD
330
1F
100
AcDbEntity
  8
SLD-0
  6
Continuous
 62
   179
370
    15
100
AcDbLine
 10
131.4339230951
 20
539.956240972
 30
0.0
 11
131.4339230951
 21
579.9562419406
 31
0.0
  0
LINE
  5
BE
330
1F
100
AcDbEntity
  8
SLD-0
  6
Continuous
 62
   179
370
    15
100
AcDbLine
 10
131.4339230951
 20
579.9562419406
 30
0.0
 11
155.4339233037
 21
579.9562419406
 31
0.0
  0
LINE
  5
BF
330
1F
100
AcDbEntity
  8
SLD-0
  6
Continuous
 62
   179
370
    15
100
AcDbLine
 10
155.4339233037
 20
579.9562419406
 30
0.0
 11
155.4339233037
 21
539.956240972
 31
0.0
  0
LINE
  5
C0
330
1F
100
AcDbEntity
  8
SLD-0
  6
Continuous
 62
   179
370
    15
100
AcDbLine
 10
155.4339233037
 20
539.956240972
 30
0.0
 11
149.4339223202
 21
539.956240972
 31
0.0
  0
LINE
  5
C1
330
1F
100
AcDbEntity
  8
SLD-0
  6
Continuous
 62
   179
370
    15
100
AcDbLine
 10
149.4339223202
 20
539.956240972
 30
0.0
 11
146.4339236911
 21
545.9562419555
 31
0.0
  0
LINE
  5
C2
330
1F
100
AcDbEntity
  8
SLD-0
  6
Continuous
 62
   179
370
    15
100
AcDbLine
 10
146.4339236911
 20
545.9562419555
 30
0.0
 11
146.4339236911
 21
548.9562405846
 31
0.0
  0
LINE
  5
C3
330
1F
100
AcDbEntity
  8
SLD-0
  6
Continuous
 62
   179
370
    15
100
AcDbLine
 10
146.4339236911
 20
548.9562405846
 30
0.0
 11
149.4339223202
 21
548.9562405846
 31
0.0
  0
LINE
  5
C4
330
1F
100
AcDbEntity
  8
SLD-0
  6
Continuous
 62
   179
370
    15
100
AcDbLine
 10
149.4339223202
 20
548.9562405846
 30
0.0
 11
149.4339223202
 21
563.9562430433
 31
0.0
  0
LINE
  5
C5
330
1F
100
AcDbEntity
  8
SLD-0
  6
Continuous
 62
   179
370
    15
100
AcDbLine
 10
137.4339234527
 20
563.9562409451
 30
0.0
 11
137.4339240786
 21
548.9562405846
 31
0.0
  0
LINE
  5
C6
330
1F
100
AcDbEntity
  8
SLD-0
  6
Continuous
 62
   179
370
    15
100
AcDbLine
 10
137.4339240786
 20
548.9562405846
 30
0.0
 11
140.4339227077
 21
548.9562405846
 31
0.0
  0
LINE
  5
C7
330
1F
100
AcDbEntity
  8
SLD-0
  6
Continuous
 62
   179
370
    15
100
AcDbLine
 10
218.1969955099
 20
556.2189733809
 30
0.0
 11
195.1969954652
 21
556.2189733809
 31
0.0
  0
LINE
  5
C8
330
1F
100
AcDbEntity
  8
SLD-0
  6
Continuous
 62
   179
370
    15
100
AcDbLine
 10
218.1969955099
 20
536.2189733622
 30
0.0
 11
228.1969971491
 21
536.2189733622
 31
0.0
  0
LINE
  5
C9
330
1F
100
AcDbEntity
  8
SLD-0
  6
Continuous
 62
   179
370
    15
100
AcDbLine
 10
218.1969955099
 20
540.2189735522
 30
0.0
 11
218.1969955099
 21
536.2189733622
 31
0.0
  0
LINE
  5
CA
330
1F
100
AcDbEntity
  8
SLD-0
  6
Continuous
 62
   179
370
    15
100
AcDbLine
 10
215.1969968808
 20
543.2189731126
 30
0.0
 11
218.1969955099
 21
540.2189735522
 31
0.0
  0
LINE
  5
CB
330
1F
100
AcDbEntity
  8
SLD-0
  6
Continuous
 62
   179
370
    15
100
AcDbLine
 10
193.1969970001
 20
543.2189731126
 30
0.0
 11
215.1969968808
 21
543.2189731126
 31
0.0
  0
LINE
  5
CC
330
1F
100
AcDbEntity
  8
SLD-0
  6
Continuous
 62
   179
370
    15
100
AcDbLine
 10
193.1969970001
 20
548.2189730009
 30
0.0
 11
193.1969970001
 21
543.2189731126
 31
0.0
  0
LINE
  5
CD
330
1F
100
AcDbEntity
  8
SLD-0
  6
Continuous
 62
   179
370
    15
100
AcDbLine
 10
188.1969961805
 20
548.2189730009
 30
0.0
 11
193.1969970001
 21
548.2189730009
 31
0.0
  0
LINE
  5
CE
330
1F
100
AcDbEntity
  8
SLD-0
  6
Continuous
 62
   179
370
    15
100
AcDbLine
 10
178.9662269411
 20
544.372819384
 30
0.0
 11
188.1969961805
 21
548.2189730009
 31
0.0
  0
LINE
  5
CF
330
1F
100
AcDbEntity
  8
SLD-0
  6
Continuous
 62
   179
370
    15
100
AcDbLine
 10
218.1969955099
 20
556.2189733809
 30
0.0
 11
218.1969955099
 21
560.2189740365
 31
0.0
  0
LINE
  5
D0
330
1F
100
AcDbEntity
  8
SLD-0
  6
Continuous
 62
   179
370
    15
100
AcDbLine
 10
218.1969955099
 20
560.2189740365
 30
0.0
 11
195.1969954652
 21
560.2189740365
 31
0.0
  0
LINE
  5
D1
330
1F
100
AcDbEntity
  8
SLD-0
  6
Continuous
 62
   179
370
    15
100
AcDbLine
 10
195.1969954652
 20
560.2189740365
 30
0.0
 11
195.1969954652
 21
556.2189733809
 31
0.0
  0
LINE
  5
D2
330
1F
100
AcDbEntity
  8
SLD-0
  6
Continuous
 62
   179
370
    15
100
AcDbLine
 10
178.9662267336
 20
572.0651272716
 30
0.0
 11
188.1969962234
 21
568.2189734852
 31
0.0
  0
LINE
  5
D3
330
1F
100
AcDbEntity
  8
SLD-0
  6
Continuous
 62
   179
370
    15
100
AcDbLine
 10
188.1969962234
 20
568.2189734852
 30
0.0
 11
193.196997043
 21
568.2189734852
 31
0.0
  0
LINE
  5
D4
330
1F
100
AcDbEntity
  8
SLD-0
  6
Continuous
 62
   179
370
    15
100
AcDbLine
 10
193.196997043
 20
568.2189734852
 30
0.0
 11
193.196997043
 21
573.2189724421
 31
0.0
  0
LINE
  5
D5
330
1F
100
AcDbEntity
  8
SLD-0
  6
Continuous
 62
   179
370
    15
100
AcDbLine
 10
193.196997043
 20
573.2189724421
 30
0.0
 11
215.1969969237
 21
573.2189724421
 31
0.0
  0
LINE
  5
D6
330
1F
100
AcDbEntity
  8
SLD-0
  6
Continuous
 62
   179
370
    15
100
AcDbLine
 10
215.1969969237
 20
573.2189724421
 30
0.0
 11
218.1969955528
 21
576.2189747965
 31
0.0
  0
LINE
  5
D7
330
1F
100
AcDbEntity
  8
SLD-0
  6
Continuous
 62
   179
370
    15
100
AcDbLine
 10
218.1969955528
 20
576.2189747965
 30
0.0
 11
218.1969955528
 21
580.2189717268
 31
0.0
  0
LINE
  5
D8
330
1F
100
AcDbEntity
  8
SLD-0
  6
Continuous
 62
   179
370
    15
100
AcDbLine
 10
218.1969955528
 20
580.2189717268
 30
0.0
 11
228.1969971491
 21
580.2189717268
 31
0.0
  0
LINE
  5
D9
330
1F
100
AcDbEntity
  8
SLD-0
  6
Continuous
 62
   179
370
    15
100
AcDbLine
 10
228.1969971491
 20
580.2189717268
 30
0.0
 11
228.1969971491
 21
536.2189733622
 31
0.0
  0
LINE
  5
DA
330
1F
100
AcDbEntity
  8
SLD-0
  6
Continuous
 62
   179
370
    15
100
AcDbLine
 10
50.7296463868
 20
525.1884801322
 30
0.0
 11
105.7296442261
 21
525.1884801322
 31
0.0
  0
LINE
  5
DB
330
1F
100
AcDbEntity
  8
SLD-0
  6
Continuous
 62
   179
370
    15
100
AcDbLine
 10
105.7296442261
 20
525.1884801322
 30
0.0
 11
105.7296442261
 21
533.1884795809
 31
0.0
  0
LINE
  5
DC
330
1F
100
AcDbEntity
  8
SLD-0
  6
Continuous
 62
   179
370
    15
100
AcDbLine
 10
105.7296442261
 20
533.1884795809
 30
0.0
 11
98.2296476534
 21
533.1884795809
 31
0.0
  0
LINE
  5
DD
330
1F
100
AcDbEntity
  8
SLD-0
  6
Continuous
 62
   179
370
    15
100
AcDbLine
 10
98.2296476534
 20
533.1884795809
 30
0.0
 11
98.2296476534
 21
538.1884804004
 31
0.0
  0
LINE
  5
DE
330
1F
100
AcDbEntity
  8
SLD-0
  6
Continuous
 62
   179
370
    15
100
AcDbLine
 10
98.2296476534
 20
538.1884804004
 30
0.0
 11
97.7296466401
 21
538.1884804004
 31
0.0
  0
LINE
  5
DF
330
1F
100
AcDbEntity
  8
SLD-0
  6
Continuous
 62
   179
370
    15
100
AcDbLine
 10
97.7296466401
 20
538.1884804004
 30
0.0
 11
89.0693935028
 21
533.1884795809
 31
0.0
  0
LINE
  5
E0
330
1F
100
AcDbEntity
  8
SLD-0
  6
Continuous
 62
   179
370
    15
100
AcDbLine
 10
89.0693935028
 20
533.1884795809
 30
0.0
 11
50.7296466103
 21
533.1884795809
 31
0.0
  0
LINE
  5
E1
330
1F
100
AcDbEntity
  8
SLD-0
  6
Continuous
 62
   179
370
    15
100
AcDbLine
 10
264.7191639139
 20
565.0354035014
 30
0.0
 11
231.719165024
 21
565.0354035014
 31
0.0
  0
LINE
  5
E2
330
1F
100
AcDbEntity
  8
SLD-0
  6
Continuous
 62
   179
370
    15
100
AcDbLine
 10
231.719165024
 20
565.0354035014
 30
0.0
 11
231.719165024
 21
575.33253582
 31
0.0
  0
LINE
  5
E3
330
1F
100
AcDbEntity
  8
SLD-0
  6
Continuous
 62
   179
370
    15
100
AcDbLine
 10
231.719165024
 20
575.33253582
 30
0.0
 11
264.7191639139
 21
581.1513257742
 31
0.0
  0
LINE
  5
E4
330
1F
100
AcDbEntity
  8
SLD-0
  6
Continuous
 62
   179
370
    15
100
AcDbLine
 10
264.7191639139
 20
581.1513257742
 30
0.0
 11
264.7191639139
 21
565.0354035014
 31
0.0
  0
LINE
  5
E5
330
1F
100
AcDbEntity
  8
SLD-0
  6
Continuous
 62
   179
370
    15
100
AcDbLine
 10
294.9045301228
 20
555.9428624195
 30
0.0
 11
292.7832101284
 21
553.8215405626
 31
0.0
  0
LINE
  5
E6
330
1F
100
AcDbEntity
  8
SLD-0
  6
Continuous
 62
   179
370
    15
100
AcDbLine
 10
282.8837149589
 20
567.9636757207
 30
0.0
 11
294.9045301228
 21
555.9428624195
 31
0.0
  0
LINE
  5
E7
330
1F
100
AcDbEntity
  8
SLD-0
  6
Continuous
 62
   179
370
    15
100
AcDbLine
 10
280.7623968272
 20
565.8423557264
 30
0.0
 11
282.8837149589
 21
567.9636757207
 31
0.0
  0
LINE
  5
E8
330
1F
100
AcDbEntity
  8
SLD-0
  6
Continuous
 62
   179
370
    15
100
AcDbLine
 10
292.7832101284
 20
553.8215405626
 30
0.0
 11
280.7623968272
 21
565.8423557264
 31
0.0
  0
LINE
  5
E9
330
1F
100
AcDbEntity
  8
SLD-0
  6
Continuous
 62
   179
370
    15
100
AcDbLine
 10
313.0651531554
 20
527.740064202
 30
0.0
 11
278.0540474503
 21
527.740064202
 31
0.0
  0
LINE
  5
EA
330
1F
100
AcDbEntity
  8
SLD-0
  6
Continuous
 62
   179
370
    15
100
AcDbLine
 10
278.0540474503
 20
527.740064202
 30
0.0
 11
285.5596002935
 21
540.7400644702
 31
0.0
  0
LINE
  5
EB
330
1F
100
AcDbEntity
  8
SLD-0
  6
Continuous
 62
   179
370
    15
100
AcDbLine
 10
285.5596002935
 20
540.7400644702
 30
0.0
 11
285.559599623
 21
546.9532686509
 31
0.0
  0
LINE
  5
EC
330
1F
100
AcDbEntity
  8
SLD-0
  6
Continuous
 62
   179
370
    15
100
AcDbLine
 10
284.0951335289
 20
550.4888025568
 30
0.0
 11
269.0951335289
 21
565.4888025568
 31
0.0
  0
LINE
  5
ED
330
1F
100
AcDbEntity
  8
SLD-0
  6
Continuous
 62
   179
370
    15
100
AcDbLine
 10
269.0951335289
 20
572.5598703687
 30
0.0
 11
276.1662013408
 21
579.6309381806
 31
0.0
  0
LINE
  5
EE
330
1F
100
AcDbEntity
  8
SLD-0
  6
Continuous
 62
   179
370
    15
100
AcDbLine
 10
283.2372691526
 20
579.6309381806
 30
0.0
 11
298.2372691526
 21
564.6309381806
 31
0.0
  0
LINE
  5
EF
330
1F
100
AcDbEntity
  8
SLD-0
  6
Continuous
 62
   179
370
    15
100
AcDbLine
 10
305.559599623
 20
546.9532686509
 30
0.0
 11
305.5595998465
 21
540.7400644702
 31
0.0
  0
LINE
  5
F0
330
1F
100
AcDbEntity
  8
SLD-0
  6
Continuous
 62
   179
370
    15
100
AcDbLine
 10
305.5595998465
 20
540.7400644702
 30
0.0
 11
313.0651531554
 21
527.740064202
 31
0.0
  0
LINE
  5
F1
330
1F
100
AcDbEntity
  8
SLD-0
  6
Continuous
 62
   179
370
    15
100
AcDbLine
 10
332.601348532
 20
552.6529003098
 30
0.0
 11
347.6013483596
 21
537.6528991782
 31
0.0
  0
LINE
  5
F2
330
1F
100
AcDbEntity
  8
SLD-0
  6
Continuous
 62
   179
370
    15
100
AcDbLine
 10
322.852610599
 20
554.1173667299
 30
0.0
 11
329.0658153193
 21
554.1173660593
 31
0.0
  0
LINE
  5
F3
330
1F
100
AcDbEntity
  8
SLD-0
  6
Continuous
 62
   179
370
    15
100
AcDbLine
 10
309.8526103308
 20
546.6118138867
 30
0.0
 11
322.852610599
 21
554.1173667299
 31
0.0
  0
LINE
  5
F4
330
1F
100
AcDbEntity
  8
SLD-0
  6
Continuous
 62
   179
370
    15
100
AcDbLine
 10
309.8526103308
 20
581.6229195917
 30
0.0
 11
309.8526103308
 21
546.6118138867
 31
0.0
  0
LINE
  5
F5
330
1F
100
AcDbEntity
  8
SLD-0
  6
Continuous
 62
   179
370
    15
100
AcDbLine
 10
322.852610599
 20
574.1173662829
 30
0.0
 11
309.8526103308
 21
581.6229195917
 31
0.0
  0
LINE
  5
F6
330
1F
100
AcDbEntity
  8
SLD-0
  6
Continuous
 62
   179
370
    15
100
AcDbLine
 10
329.0658136716
 20
574.1173662829
 30
0.0
 11
322.852610599
 21
574.1173662829
 31
0.0
  0
LINE
  5
F7
330
1F
100
AcDbEntity
  8
SLD-0
  6
Continuous
 62
   179
370
    15
100
AcDbLine
 10
361.7434850964
 20
551.7950338194
 30
0.0
 11
346.7434856713
 21
566.7950347342
 31
0.0
  0
LINE
  5
F8
330
1F
100
AcDbEntity
  8
SLD-0
  6
Continuous
 62
   179
370
    15
100
AcDbLine
 10
354.6724161715
 20
537.6528991782
 30
0.0
 11
361.7434844211
 21
544.7239674277
 31
0.0
  0
LINE
  5
F9
330
1F
100
AcDbEntity
  8
SLD-0
  6
Continuous
 62
   179
370
    15
100
AcDbLine
 10
350.0762218496
 20
551.4414813953
 30
0.0
 11
338.0554085483
 21
563.4622965591
 31
0.0
  0
LINE
  5
FA
330
1F
100
AcDbEntity
  8
SLD-0
  6
Continuous
 62
   179
370
    15
100
AcDbLine
 10
338.0554085483
 20
563.4622965591
 30
0.0
 11
335.9340866914
 21
561.3409765648
 31
0.0
  0
LINE
  5
FB
330
1F
100
AcDbEntity
  8
SLD-0
  6
Continuous
 62
   179
370
    15
100
AcDbLine
 10
335.9340866914
 20
561.3409765648
 30
0.0
 11
347.9549018552
 21
549.3201632636
 31
0.0
  0
LINE
  5
FC
330
1F
100
AcDbEntity
  8
SLD-0
  6
Continuous
 62
   179
370
    15
100
AcDbLine
 10
347.9549018552
 20
549.3201632636
 30
0.0
 11
350.0762218496
 21
551.4414813953
 31
0.0
  0
LINE
  5
FD
330
1F
100
AcDbEntity
  8
SLD-0
  6
Continuous
 62
   179
370
    15
100
AcDbLine
 10
231.7385038055
 20
561.0305736949
 30
0.0
 11
267.7385031871
 21
561.0305736949
 31
0.0
  0
LINE
  5
FE
330
1F
100
AcDbEntity
  8
SLD-0
  6
Continuous
 62
   179
370
    15
100
AcDbLine
 10
267.7385031871
 20
552.8678330769
 30
0.0
 11
231.7385038055
 21
549.7182416906
 31
0.0
  0
LINE
  5
FF
330
1F
100
AcDbEntity
  8
SLD-0
  6
Continuous
 62
   179
370
    15
100
AcDbLine
 10
267.7385031871
 20
561.0305736949
 30
0.0
 11
267.7385031871
 21
552.8678330769
 31
0.0
  0
LINE
  5
100
330
1F
100
AcDbEntity
  8
SLD-0
  6
Continuous
 62
   179
370
    15
100
AcDbLine
 10
231.7385038055
 20
549.7182416906
 30
0.0
 11
231.7385038055
 21
561.0305736949
 31
0.0
  0
LINE
  5
101
330
1F
100
AcDbEntity
  8
SLD-0
  6
Continuous
 62
   179
370
    15
100
AcDbLine
 10
234.6103139404
 20
547.1501580429
 30
0.0
 11
270.610313322
 21
547.1501580429
 31
0.0
  0
LINE
  5
102
330
1F
100
AcDbEntity
  8
SLD-0
  6
Continuous
 62
   179
370
    15
100
AcDbLine
 10
270.610313322
 20
538.9874174249
 30
0.0
 11
234.6103139404
 21
535.8378260386
 31
0.0
  0
LINE
  5
103
330
1F
100
AcDbEntity
  8
SLD-0
  6
Continuous
 62
   179
370
    15
100
AcDbLine
 10
270.610313322
 20
547.1501580429
 30
0.0
 11
270.610313322
 21
538.9874174249
 31
0.0
  0
LINE
  5
104
330
1F
100
AcDbEntity
  8
SLD-0
  6
Continuous
 62
   179
370
    15
100
AcDbLine
 10
234.6103139404
 20
535.8378260386
 30
0.0
 11
234.6103139404
 21
547.1501580429
 31
0.0
  0
LINE
  5
105
330
1F
100
AcDbEntity
  8
SLD-0
  6
Continuous
 62
   179
370
    15
100
AcDbLine
 10
217.6358177299
 20
531.530776984
 30
0.0
 11
182.6358194435
 21
531.530776984
 31
0.0
  0
LINE
  5
106
330
1F
100
AcDbEntity
  8
SLD-0
  6
Continuous
 62
   179
370
    15
100
AcDbLine
 10
217.6358177299
 20
513.5430153375
 30
0.0
 11
217.6358177299
 21
531.530776984
 31
0.0
  0
LINE
  5
107
330
1F
100
AcDbEntity
  8
SLD-0
  6
Continuous
 62
   179
370
    15
100
AcDbLine
 10
182.6358194435
 20
510.4809123938
 30
0.0
 11
217.6358177299
 21
513.5430153375
 31
0.0
  0
LINE
  5
108
330
1F
100
AcDbEntity
  8
SLD-0
  6
Continuous
 62
   179
370
    15
100
AcDbLine
 10
182.6358194435
 20
531.530776984
 30
0.0
 11
182.6358194435
 21
510.4809123938
 31
0.0
  0
LINE
  5
109
330
1F
100
AcDbEntity
  8
SLD-0
  6
Continuous
 62
   179
370
    15
100
AcDbLine
 10
23.9052459339
 20
523.3743134014
 30
0.0
 11
48.9052462894
 21
523.3743134014
 31
0.0
  0
LINE
  5
10A
330
1F
100
AcDbEntity
  8
SLD-0
  6
Continuous
 62
   179
370
    15
100
AcDbLine
 10
48.9052462894
 20
523.3743134014
 30
0.0
 11
48.9052462894
 21
515.8743131576
 31
0.0
  0
LINE
  5
10B
330
1F
100
AcDbEntity
  8
SLD-0
  6
Continuous
 62
   179
370
    15
100
AcDbLine
 10
48.9052462894
 20
515.8743131576
 30
0.0
 11
45.9052457976
 21
514.8743148563
 31
0.0
  0
LINE
  5
10C
330
1F
100
AcDbEntity
  8
SLD-0
  6
Continuous
 62
   179
370
    15
100
AcDbLine
 10
43.9052454698
 20
514.8743148563
 30
0.0
 11
43.9052454698
 21
515.8743131576
 31
0.0
  0
LINE
  5
10D
330
1F
100
AcDbEntity
  8
SLD-0
  6
Continuous
 62
   179
370
    15
100
AcDbLine
 10
43.9052454698
 20
515.8743131576
 30
0.0
 11
28.6749437022
 21
515.8743131576
 31
0.0
  0
LINE
  5
10E
330
1F
100
AcDbEntity
  8
SLD-0
  6
Continuous
 62
   179
370
    15
100
AcDbLine
 10
45.9052457976
 20
514.8743148563
 30
0.0
 11
43.9052454698
 21
514.8743148563
 31
0.0
  0
LINE
  5
10F
330
1F
100
AcDbEntity
  8
SLD-0
  6
Continuous
 62
   179
370
    15
100
AcDbLine
 10
23.9052459935
 20
505.3743141762
 30
0.0
 11
48.9052463235
 21
505.3743141762
 31
0.0
  0
LINE
  5
110
330
1F
100
AcDbEntity
  8
SLD-0
  6
Continuous
 62
   179
370
    15
100
AcDbLine
 10
48.9052463235
 20
505.3743141762
 30
0.0
 11
48.9052463235
 21
512.8743145285
 31
0.0
  0
LINE
  5
111
330
1F
100
AcDbEntity
  8
SLD-0
  6
Continuous
 62
   179
370
    15
100
AcDbLine
 10
48.9052463235
 20
512.8743145285
 30
0.0
 11
45.9052458317
 21
513.8743128297
 31
0.0
  0
LINE
  5
112
330
1F
100
AcDbEntity
  8
SLD-0
  6
Continuous
 62
   179
370
    15
100
AcDbLine
 10
45.9052458317
 20
513.8743128297
 30
0.0
 11
43.9052455039
 21
513.8743128297
 31
0.0
  0
LINE
  5
113
330
1F
100
AcDbEntity
  8
SLD-0
  6
Continuous
 62
   179
370
    15
100
AcDbLine
 10
43.9052455039
 20
513.8743128297
 30
0.0
 11
43.9052455039
 21
512.8743145285
 31
0.0
  0
LINE
  5
114
330
1F
100
AcDbEntity
  8
SLD-0
  6
Continuous
 62
   179
370
    15
100
AcDbLine
 10
43.9052455039
 20
512.8743145285
 30
0.0
 11
28.6749437363
 21
512.8743145285
 31
0.0
  0
LINE
  5
115
330
1F
100
AcDbEntity
  8
SLD-0
  6
Continuous
 62
   179
370
    15
100
AcDbLine
 10
404.1398929556
 20
571.027988587
 30
0.0
 11
404.1398929556
 21
546.0279882316
 31
0.0
  0
LINE
  5
116
330
1F
100
AcDbEntity
  8
SLD-0
  6
Continuous
 62
   179
370
    15
100
AcDbLine
 10
404.1398929556
 20
546.0279882316
 30
0.0
 11
396.6398927119
 21
546.0279882316
 31
0.0
  0
LINE
  5
117
330
1F
100
AcDbEntity
  8
SLD-0
  6
Continuous
 62
   179
370
    15
100
AcDbLine
 10
396.6398927119
 20
546.0279882316
 30
0.0
 11
395.6398944106
 21
549.0279887233
 31
0.0
  0
LINE
  5
118
330
1F
100
AcDbEntity
  8
SLD-0
  6
Continuous
 62
   179
370
    15
100
AcDbLine
 10
395.6398944106
 20
551.0279890512
 30
0.0
 11
396.6398927119
 21
551.0279890512
 31
0.0
  0
LINE
  5
119
330
1F
100
AcDbEntity
  8
SLD-0
  6
Continuous
 62
   179
370
    15
100
AcDbLine
 10
396.6398927119
 20
551.0279890512
 30
0.0
 11
396.6398927119
 21
566.2582908188
 31
0.0
  0
LINE
  5
11A
330
1F
100
AcDbEntity
  8
SLD-0
  6
Continuous
 62
   179
370
    15
100
AcDbLine
 10
395.6398944106
 20
549.0279887233
 30
0.0
 11
395.6398944106
 21
551.0279890512
 31
0.0
  0
LINE
  5
11B
330
1F
100
AcDbEntity
  8
SLD-0
  6
Continuous
 62
   179
370
    15
100
AcDbLine
 10
386.1398937305
 20
571.0279885274
 30
0.0
 11
386.1398937305
 21
546.0279882145
 31
0.0
  0
LINE
  5
11C
330
1F
100
AcDbEntity
  8
SLD-0
  6
Continuous
 62
   179
370
    15
100
AcDbLine
 10
386.1398937305
 20
546.0279882145
 30
0.0
 11
393.6398940285
 21
546.0279882145
 31
0.0
  0
LINE
  5
11D
330
1F
100
AcDbEntity
  8
SLD-0
  6
Continuous
 62
   179
370
    15
100
AcDbLine
 10
393.6398940285
 20
546.0279882145
 30
0.0
 11
394.6398923298
 21
549.0279887062
 31
0.0
  0
LINE
  5
11E
330
1F
100
AcDbEntity
  8
SLD-0
  6
Continuous
 62
   179
370
    15
100
AcDbLine
 10
394.6398923298
 20
549.0279887062
 30
0.0
 11
394.6398923298
 21
551.027989017
 31
0.0
  0
LINE
  5
11F
330
1F
100
AcDbEntity
  8
SLD-0
  6
Continuous
 62
   179
370
    15
100
AcDbLine
 10
394.6398923298
 20
551.027989017
 30
0.0
 11
393.6398940828
 21
551.027989017
 31
0.0
  0
LINE
  5
120
330
1F
100
AcDbEntity
  8
SLD-0
  6
Continuous
 62
   179
370
    15
100
AcDbLine
 10
393.6398940828
 20
551.027989017
 30
0.0
 11
393.6398940828
 21
566.2582907846
 31
0.0
  0
LINE
  5
121
330
1F
100
AcDbEntity
  8
SLD-0
  6
Continuous
 62
   179
370
    15
100
AcDbLine
 10
424.0797840949
 20
571.6779212309
 30
0.0
 11
424.0797840949
 21
546.6779208755
 31
0.0
  0
LINE
  5
122
330
1F
100
AcDbEntity
  8
SLD-0
  6
Continuous
 62
   179
370
    15
100
AcDbLine
 10
424.0797840949
 20
546.6779208755
 30
0.0
 11
416.5797838511
 21
546.6779208755
 31
0.0
  0
LINE
  5
123
330
1F
100
AcDbEntity
  8
SLD-0
  6
Continuous
 62
   179
370
    15
100
AcDbLine
 10
416.5797838511
 20
546.6779208755
 30
0.0
 11
415.5797855498
 21
549.6779213673
 31
0.0
  0
LINE
  5
124
330
1F
100
AcDbEntity
  8
SLD-0
  6
Continuous
 62
   179
370
    15
100
AcDbLine
 10
415.5797855498
 20
551.6779216951
 30
0.0
 11
416.5797838511
 21
551.6779216951
 31
0.0
  0
LINE
  5
125
330
1F
100
AcDbEntity
  8
SLD-0
  6
Continuous
 62
   179
370
    15
100
AcDbLine
 10
416.5797838511
 20
551.6779216951
 30
0.0
 11
416.5797838511
 21
566.9082234627
 31
0.0
  0
LINE
  5
126
330
1F
100
AcDbEntity
  8
SLD-0
  6
Continuous
 62
   179
370
    15
100
AcDbLine
 10
415.5797855498
 20
549.6779213673
 30
0.0
 11
415.5797855498
 21
551.6779216951
 31
0.0
  0
LINE
  5
127
330
1F
100
AcDbEntity
  8
SLD-0
  6
Continuous
 62
   179
370
    15
100
AcDbLine
 10
406.0797848697
 20
571.6779211713
 30
0.0
 11
406.0797848697
 21
546.6779208584
 31
0.0
  0
LINE
  5
128
330
1F
100
AcDbEntity
  8
SLD-0
  6
Continuous
 62
   179
370
    15
100
AcDbLine
 10
406.0797848697
 20
546.6779208584
 30
0.0
 11
413.5797851678
 21
546.6779208584
 31
0.0
  0
LINE
  5
129
330
1F
100
AcDbEntity
  8
SLD-0
  6
Continuous
 62
   179
370
    15
100
AcDbLine
 10
413.5797851678
 20
546.6779208584
 30
0.0
 11
414.579783469
 21
549.6779213502
 31
0.0
  0
LINE
  5
12A
330
1F
100
AcDbEntity
  8
SLD-0
  6
Continuous
 62
   179
370
    15
100
AcDbLine
 10
414.579783469
 20
549.6779213502
 30
0.0
 11
414.579783469
 21
551.6779216609
 31
0.0
  0
LINE
  5
12B
330
1F
100
AcDbEntity
  8
SLD-0
  6
Continuous
 62
   179
370
    15
100
AcDbLine
 10
414.579783469
 20
551.6779216609
 30
0.0
 11
413.579785222
 21
551.6779216609
 31
0.0
  0
LINE
  5
12C
330
1F
100
AcDbEntity
  8
SLD-0
  6
Continuous
 62
   179
370
    15
100
AcDbLine
 10
413.579785222
 20
551.6779216609
 30
0.0
 11
413.579785222
 21
566.9082234285
 31
0.0
  0
LINE
  5
12D
330
1F
100
AcDbEntity
  8
SLD-0
  6
Continuous
 62
   179
370
    15
100
AcDbLine
 10
444.6838054163
 20
571.4660095291
 30
0.0
 11
444.6838054163
 21
546.4660091736
 31
0.0
  0
LINE
  5
12E
330
1F
100
AcDbEntity
  8
SLD-0
  6
Continuous
 62
   179
370
    15
100
AcDbLine
 10
444.6838054163
 20
546.4660091736
 30
0.0
 11
437.1838051726
 21
546.4660091736
 31
0.0
  0
LINE
  5
12F
330
1F
100
AcDbEntity
  8
SLD-0
  6
Continuous
 62
   179
370
    15
100
AcDbLine
 10
437.1838051726
 20
546.4660091736
 30
0.0
 11
436.1838068713
 21
549.4660096654
 31
0.0
  0
LINE
  5
130
330
1F
100
AcDbEntity
  8
SLD-0
  6
Continuous
 62
   179
370
    15
100
AcDbLine
 10
436.1838068713
 20
551.4660099932
 30
0.0
 11
437.1838051726
 21
551.4660099932
 31
0.0
  0
LINE
  5
131
330
1F
100
AcDbEntity
  8
SLD-0
  6
Continuous
 62
   179
370
    15
100
AcDbLine
 10
437.1838051726
 20
551.4660099932
 30
0.0
 11
437.1838051726
 21
566.6963117608
 31
0.0
  0
LINE
  5
132
330
1F
100
AcDbEntity
  8
SLD-0
  6
Continuous
 62
   179
370
    15
100
AcDbLine
 10
436.1838068713
 20
549.4660096654
 30
0.0
 11
436.1838068713
 21
551.4660099932
 31
0.0
  0
LINE
  5
133
330
1F
100
AcDbEntity
  8
SLD-0
  6
Continuous
 62
   179
370
    15
100
AcDbLine
 10
426.6838061912
 20
571.4660094695
 30
0.0
 11
426.6838061912
 21
546.4660091565
 31
0.0
  0
LINE
  5
134
330
1F
100
AcDbEntity
  8
SLD-0
  6
Continuous
 62
   179
370
    15
100
AcDbLine
 10
426.6838061912
 20
546.4660091565
 30
0.0
 11
434.1838064892
 21
546.4660091565
 31
0.0
  0
LINE
  5
135
330
1F
100
AcDbEntity
  8
SLD-0
  6
Continuous
 62
   179
370
    15
100
AcDbLine
 10
434.1838064892
 20
546.4660091565
 30
0.0
 11
435.1838047905
 21
549.4660096483
 31
0.0
  0
LINE
  5
136
330
1F
100
AcDbEntity
  8
SLD-0
  6
Continuous
 62
   179
370
    15
100
AcDbLine
 10
435.1838047905
 20
549.4660096483
 30
0.0
 11
435.1838047905
 21
551.466009959
 31
0.0
  0
LINE
  5
137
330
1F
100
AcDbEntity
  8
SLD-0
  6
Continuous
 62
   179
370
    15
100
AcDbLine
 10
435.1838047905
 20
551.466009959
 30
0.0
 11
434.1838065435
 21
551.466009959
 31
0.0
  0
LINE
  5
138
330
1F
100
AcDbEntity
  8
SLD-0
  6
Continuous
 62
   179
370
    15
100
AcDbLine
 10
434.1838065435
 20
551.466009959
 30
0.0
 11
434.1838065435
 21
566.6963117266
 31
0.0
  0
LINE
  5
139
330
1F
100
AcDbEntity
  8
SLD-0
  6
Continuous
 62
   179
370
    15
100
AcDbLine
 10
465.0645570053
 20
571.6836002463
 30
0.0
 11
465.0645570053
 21
546.6835998908
 31
0.0
  0
LINE
  5
13A
330
1F
100
AcDbEntity
  8
SLD-0
  6
Continuous
 62
   179
370
    15
100
AcDbLine
 10
465.0645570053
 20
546.6835998908
 30
0.0
 11
457.5645567615
 21
546.6835998908
 31
0.0
  0
LINE
  5
13B
330
1F
100
AcDbEntity
  8
SLD-0
  6
Continuous
 62
   179
370
    15
100
AcDbLine
 10
457.5645567615
 20
546.6835998908
 30
0.0
 11
456.5645584602
 21
549.6836003826
 31
0.0
  0
LINE
  5
13C
330
1F
100
AcDbEntity
  8
SLD-0
  6
Continuous
 62
   179
370
    15
100
AcDbLine
 10
456.5645584602
 20
551.6836007104
 30
0.0
 11
457.5645567615
 21
551.6836007104
 31
0.0
  0
LINE
  5
13D
330
1F
100
AcDbEntity
  8
SLD-0
  6
Continuous
 62
   179
370
    15
100
AcDbLine
 10
457.5645567615
 20
551.6836007104
 30
0.0
 11
457.5645567615
 21
566.913902478
 31
0.0
  0
LINE
  5
13E
330
1F
100
AcDbEntity
  8
SLD-0
  6
Continuous
 62
   179
370
    15
100
AcDbLine
 10
456.5645584602
 20
549.6836003826
 30
0.0
 11
456.5645584602
 21
551.6836007104
 31
0.0
  0
LINE
  5
13F
330
1F
100
AcDbEntity
  8
SLD-0
  6
Continuous
 62
   179
370
    15
100
AcDbLine
 10
447.0645577801
 20
571.6836001867
 30
0.0
 11
447.0645577801
 21
546.6835998737
 31
0.0
  0
LINE
  5
140
330
1F
100
AcDbEntity
  8
SLD-0
  6
Continuous
 62
   179
370
    15
100
AcDbLine
 10
447.0645577801
 20
546.6835998737
 30
0.0
 11
454.5645580782
 21
546.6835998737
 31
0.0
  0
LINE
  5
141
330
1F
100
AcDbEntity
  8
SLD-0
  6
Continuous
 62
   179
370
    15
100
AcDbLine
 10
454.5645580782
 20
546.6835998737
 30
0.0
 11
455.5645563794
 21
549.6836003655
 31
0.0
  0
LINE
  5
142
330
1F
100
AcDbEntity
  8
SLD-0
  6
Continuous
 62
   179
370
    15
100
AcDbLine
 10
455.5645563794
 20
549.6836003655
 30
0.0
 11
455.5645563794
 21
551.6836006762
 31
0.0
  0
LINE
  5
143
330
1F
100
AcDbEntity
  8
SLD-0
  6
Continuous
 62
   179
370
    15
100
AcDbLine
 10
455.5645563794
 20
551.6836006762
 30
0.0
 11
454.5645581324
 21
551.6836006762
 31
0.0
  0
LINE
  5
144
330
1F
100
AcDbEntity
  8
SLD-0
  6
Continuous
 62
   179
370
    15
100
AcDbLine
 10
454.5645581324
 20
551.6836006762
 30
0.0
 11
454.5645581324
 21
566.9139024438
 31
0.0
  0
LINE
  5
145
330
1F
100
AcDbEntity
  8
SLD-0
  6
Continuous
 62
   179
370
    15
100
AcDbLine
 10
379.8301944488
 20
532.9973745871
 30
0.0
 11
379.8301944488
 21
507.9973742315
 31
0.0
  0
LINE
  5
146
330
1F
100
AcDbEntity
  8
SLD-0
  6
Continuous
 62
   179
370
    15
100
AcDbLine
 10
379.8301944488
 20
507.9973742315
 30
0.0
 11
372.330194205
 21
507.9973742315
 31
0.0
  0
LINE
  5
147
330
1F
100
AcDbEntity
  8
SLD-0
  6
Continuous
 62
   179
370
    15
100
AcDbLine
 10
372.330194205
 20
507.9973742315
 30
0.0
 11
371.3301959038
 21
510.9973747233
 31
0.0
  0
LINE
  5
148
330
1F
100
AcDbEntity
  8
SLD-0
  6
Continuous
 62
   179
370
    15
100
AcDbLine
 10
371.3301959038
 20
512.9973750511
 30
0.0
 11
372.330194205
 21
512.9973750511
 31
0.0
  0
LINE
  5
149
330
1F
100
AcDbEntity
  8
SLD-0
  6
Continuous
 62
   179
370
    15
100
AcDbLine
 10
372.330194205
 20
512.9973750511
 30
0.0
 11
372.330194205
 21
528.2276768187
 31
0.0
  0
LINE
  5
14A
330
1F
100
AcDbEntity
  8
SLD-0
  6
Continuous
 62
   179
370
    15
100
AcDbLine
 10
371.3301959038
 20
510.9973747233
 30
0.0
 11
371.3301959038
 21
512.9973750511
 31
0.0
  0
LINE
  5
14B
330
1F
100
AcDbEntity
  8
SLD-0
  6
Continuous
 62
   179
370
    15
100
AcDbLine
 10
361.8301952237
 20
532.9973745275
 30
0.0
 11
361.8301952237
 21
507.9973742145
 31
0.0
  0
LINE
  5
14C
330
1F
100
AcDbEntity
  8
SLD-0
  6
Continuous
 62
   179
370
    15
100
AcDbLine
 10
361.8301952237
 20
507.9973742145
 30
0.0
 11
369.3301955217
 21
507.9973742145
 31
0.0
  0
LINE
  5
14D
330
1F
100
AcDbEntity
  8
SLD-0
  6
Continuous
 62
   179
370
    15
100
AcDbLine
 10
369.3301955217
 20
507.9973742145
 30
0.0
 11
370.330193823
 21
510.9973747063
 31
0.0
  0
LINE
  5
14E
330
1F
100
AcDbEntity
  8
SLD-0
  6
Continuous
 62
   179
370
    15
100
AcDbLine
 10
370.330193823
 20
510.9973747063
 30
0.0
 11
370.330193823
 21
512.9973750171
 31
0.0
  0
LINE
  5
14F
330
1F
100
AcDbEntity
  8
SLD-0
  6
Continuous
 62
   179
370
    15
100
AcDbLine
 10
370.330193823
 20
512.9973750171
 30
0.0
 11
369.3301955759
 21
512.9973750171
 31
0.0
  0
LINE
  5
150
330
1F
100
AcDbEntity
  8
SLD-0
  6
Continuous
 62
   179
370
    15
100
AcDbLine
 10
369.3301955759
 20
512.9973750171
 30
0.0
 11
369.3301955759
 21
528.2276767847
 31
0.0
  0
LINE
  5
151
330
1F
100
AcDbEntity
  8
SLD-0
  6
Continuous
 62
   179
370
    15
100
AcDbLine
 10
399.9720578282
 20
533.2149653042
 30
0.0
 11
399.9720578282
 21
508.2149649487
 31
0.0
  0
LINE
  5
152
330
1F
100
AcDbEntity
  8
SLD-0
  6
Continuous
 62
   179
370
    15
100
AcDbLine
 10
399.9720578282
 20
508.2149649487
 30
0.0
 11
392.4720575844
 21
508.2149649487
 31
0.0
  0
LINE
  5
153
330
1F
100
AcDbEntity
  8
SLD-0
  6
Continuous
 62
   179
370
    15
100
AcDbLine
 10
392.4720575844
 20
508.2149649487
 30
0.0
 11
391.4720592831
 21
511.2149654405
 31
0.0
  0
LINE
  5
154
330
1F
100
AcDbEntity
  8
SLD-0
  6
Continuous
 62
   179
370
    15
100
AcDbLine
 10
391.4720592831
 20
513.2149657683
 30
0.0
 11
392.4720575844
 21
513.2149657683
 31
0.0
  0
LINE
  5
155
330
1F
100
AcDbEntity
  8
SLD-0
  6
Continuous
 62
   179
370
    15
100
AcDbLine
 10
392.4720575844
 20
513.2149657683
 30
0.0
 11
392.4720575844
 21
528.4452675359
 31
0.0
  0
LINE
  5
156
330
1F
100
AcDbEntity
  8
SLD-0
  6
Continuous
 62
   179
370
    15
100
AcDbLine
 10
391.4720592831
 20
511.2149654405
 30
0.0
 11
391.4720592831
 21
513.2149657683
 31
0.0
  0
LINE
  5
157
330
1F
100
AcDbEntity
  8
SLD-0
  6
Continuous
 62
   179
370
    15
100
AcDbLine
 10
381.9720586031
 20
533.2149652446
 30
0.0
 11
381.9720586031
 21
508.2149649317
 31
0.0
  0
LINE
  5
158
330
1F
100
AcDbEntity
  8
SLD-0
  6
Continuous
 62
   179
370
    15
100
AcDbLine
 10
381.9720586031
 20
508.2149649317
 30
0.0
 11
389.4720589011
 21
508.2149649317
 31
0.0
  0
LINE
  5
159
330
1F
100
AcDbEntity
  8
SLD-0
  6
Continuous
 62
   179
370
    15
100
AcDbLine
 10
389.4720589011
 20
508.2149649317
 30
0.0
 11
390.4720572024
 21
511.2149654235
 31
0.0
  0
LINE
  5
15A
330
1F
100
AcDbEntity
  8
SLD-0
  6
Continuous
 62
   179
370
    15
100
AcDbLine
 10
390.4720572024
 20
511.2149654235
 30
0.0
 11
390.4720572024
 21
513.2149657343
 31
0.0
  0
LINE
  5
15B
330
1F
100
AcDbEntity
  8
SLD-0
  6
Continuous
 62
   179
370
    15
100
AcDbLine
 10
390.4720572024
 20
513.2149657343
 30
0.0
 11
389.4720589553
 21
513.2149657343
 31
0.0
  0
LINE
  5
15C
330
1F
100
AcDbEntity
  8
SLD-0
  6
Continuous
 62
   179
370
    15
100
AcDbLine
 10
389.4720589553
 20
513.2149657343
 30
0.0
 11
389.4720589553
 21
528.4452675019
 31
0.0
  0
LINE
  5
15D
330
1F
100
AcDbEntity
  8
SLD-0
  6
Continuous
 62
   179
370
    15
100
AcDbLine
 10
383.6862245204
 20
570.2739882131
 30
0.0
 11
383.6862245204
 21
545.2739878576
 31
0.0
  0
LINE
  5
15E
330
1F
100
AcDbEntity
  8
SLD-0
  6
Continuous
 62
   179
370
    15
100
AcDbLine
 10
383.6862245204
 20
545.2739878576
 30
0.0
 11
376.1862242766
 21
545.2739878576
 31
0.0
  0
LINE
  5
15F
330
1F
100
AcDbEntity
  8
SLD-0
  6
Continuous
 62
   179
370
    15
100
AcDbLine
 10
376.1862242766
 20
545.2739878576
 30
0.0
 11
375.1862259753
 21
548.2739883494
 31
0.0
  0
LINE
  5
160
330
1F
100
AcDbEntity
  8
SLD-0
  6
Continuous
 62
   179
370
    15
100
AcDbLine
 10
375.1862259753
 20
550.2739886772
 30
0.0
 11
376.1862242766
 21
550.2739886772
 31
0.0
  0
LINE
  5
161
330
1F
100
AcDbEntity
  8
SLD-0
  6
Continuous
 62
   179
370
    15
100
AcDbLine
 10
376.1862242766
 20
550.2739886772
 30
0.0
 11
376.1862242766
 21
565.5042904448
 31
0.0
  0
LINE
  5
162
330
1F
100
AcDbEntity
  8
SLD-0
  6
Continuous
 62
   179
370
    15
100
AcDbLine
 10
375.1862259753
 20
548.2739883494
 30
0.0
 11
375.1862259753
 21
550.2739886772
 31
0.0
  0
LINE
  5
163
330
1F
100
AcDbEntity
  8
SLD-0
  6
Continuous
 62
   179
370
    15
100
AcDbLine
 10
365.6862252953
 20
570.2739881535
 30
0.0
 11
365.6862252953
 21
545.2739878406
 31
0.0
  0
LINE
  5
164
330
1F
100
AcDbEntity
  8
SLD-0
  6
Continuous
 62
   179
370
    15
100
AcDbLine
 10
365.6862252953
 20
545.2739878406
 30
0.0
 11
373.1862255933
 21
545.2739878406
 31
0.0
  0
LINE
  5
165
330
1F
100
AcDbEntity
  8
SLD-0
  6
Continuous
 62
   179
370
    15
100
AcDbLine
 10
373.1862255933
 20
545.2739878406
 30
0.0
 11
374.1862238946
 21
548.2739883324
 31
0.0
  0
LINE
  5
166
330
1F
100
AcDbEntity
  8
SLD-0
  6
Continuous
 62
   179
370
    15
100
AcDbLine
 10
374.1862238946
 20
548.2739883324
 30
0.0
 11
374.1862238946
 21
550.2739886432
 31
0.0
  0
LINE
  5
167
330
1F
100
AcDbEntity
  8
SLD-0
  6
Continuous
 62
   179
370
    15
100
AcDbLine
 10
374.1862238946
 20
550.2739886432
 30
0.0
 11
373.1862256475
 21
550.2739886432
 31
0.0
  0
LINE
  5
168
330
1F
100
AcDbEntity
  8
SLD-0
  6
Continuous
 62
   179
370
    15
100
AcDbLine
 10
373.1862256475
 20
550.2739886432
 30
0.0
 11
373.1862256475
 21
565.5042904108
 31
0.0
  0
LINE
  5
169
330
1F
100
AcDbEntity
  8
SLD-0
  6
Continuous
 62
   179
370
    15
100
AcDbLine
 10
65.078249218
 20
524.0356293533
 30
0.0
 11
90.0782495734
 21
524.0356293533
 31
0.0
  0
LINE
  5
16A
330
1F
100
AcDbEntity
  8
SLD-0
  6
Continuous
 62
   179
370
    15
100
AcDbLine
 10
90.0782495734
 20
524.0356293533
 30
0.0
 11
90.0782495734
 21
516.5356291095
 31
0.0
  0
LINE
  5
16B
330
1F
100
AcDbEntity
  8
SLD-0
  6
Continuous
 62
   179
370
    15
100
AcDbLine
 10
90.0782495734
 20
516.5356291095
 30
0.0
 11
87.0782490816
 21
515.5356308082
 31
0.0
  0
LINE
  5
16C
330
1F
100
AcDbEntity
  8
SLD-0
  6
Continuous
 62
   179
370
    15
100
AcDbLine
 10
85.0782487538
 20
515.5356308082
 30
0.0
 11
85.0782487538
 21
516.5356291095
 31
0.0
  0
LINE
  5
16D
330
1F
100
AcDbEntity
  8
SLD-0
  6
Continuous
 62
   179
370
    15
100
AcDbLine
 10
85.0782487538
 20
516.5356291095
 30
0.0
 11
69.8479469862
 21
516.5356291095
 31
0.0
  0
LINE
  5
16E
330
1F
100
AcDbEntity
  8
SLD-0
  6
Continuous
 62
   179
370
    15
100
AcDbLine
 10
87.0782490816
 20
515.5356308082
 30
0.0
 11
85.0782487538
 21
515.5356308082
 31
0.0
  0
LINE
  5
16F
330
1F
100
AcDbEntity
  8
SLD-0
  6
Continuous
 62
   179
370
    15
100
AcDbLine
 10
65.0782492776
 20
506.0356301282
 30
0.0
 11
90.0782496075
 21
506.0356301282
 31
0.0
  0
LINE
  5
170
330
1F
100
AcDbEntity
  8
SLD-0
  6
Continuous
 62
   179
370
    15
100
AcDbLine
 10
90.0782496075
 20
506.0356301282
 30
0.0
 11
90.0782496075
 21
513.5356304804
 31
0.0
  0
LINE
  5
171
330
1F
100
AcDbEntity
  8
SLD-0
  6
Continuous
 62
   179
370
    15
100
AcDbLine
 10
90.0782496075
 20
513.5356304804
 30
0.0
 11
87.0782491157
 21
514.5356287817
 31
0.0
  0
LINE
  5
172
330
1F
100
AcDbEntity
  8
SLD-0
  6
Continuous
 62
   179
370
    15
100
AcDbLine
 10
87.0782491157
 20
514.5356287817
 30
0.0
 11
85.0782487879
 21
514.5356287817
 31
0.0
  0
LINE
  5
173
330
1F
100
AcDbEntity
  8
SLD-0
  6
Continuous
 62
   179
370
    15
100
AcDbLine
 10
85.0782487879
 20
514.5356287817
 30
0.0
 11
85.0782487879
 21
513.5356304804
 31
0.0
  0
LINE
  5
174
330
1F
100
AcDbEntity
  8
SLD-0
  6
Continuous
 62
   179
370
    15
100
AcDbLine
 10
85.0782487879
 20
513.5356304804
 30
0.0
 11
69.8479470203
 21
513.5356304804
 31
0.0
  0
LINE
  5
175
330
1F
100
AcDbEntity
  8
SLD-0
  6
Continuous
 62
   179
370
    15
100
AcDbLine
 10
466.310653034
 20
536.4493819834
 30
0.0
 11
466.310653034
 21
511.4493816279
 31
0.0
  0
LINE
  5
176
330
1F
100
AcDbEntity
  8
SLD-0
  6
Continuous
 62
   179
370
    15
100
AcDbLine
 10
466.310653034
 20
511.4493816279
 30
0.0
 11
458.8106527902
 21
511.4493816279
 31
0.0
  0
LINE
  5
177
330
1F
100
AcDbEntity
  8
SLD-0
  6
Continuous
 62
   179
370
    15
100
AcDbLine
 10
458.8106527902
 20
511.4493816279
 30
0.0
 11
457.8106544889
 21
514.4493821196
 31
0.0
  0
LINE
  5
178
330
1F
100
AcDbEntity
  8
SLD-0
  6
Continuous
 62
   179
370
    15
100
AcDbLine
 10
457.8106544889
 20
516.4493824475
 30
0.0
 11
458.8106527902
 21
516.4493824475
 31
0.0
  0
LINE
  5
179
330
1F
100
AcDbEntity
  8
SLD-0
  6
Continuous
 62
   179
370
    15
100
AcDbLine
 10
458.8106527902
 20
516.4493824475
 30
0.0
 11
458.8106527902
 21
531.679684215
 31
0.0
  0
LINE
  5
17A
330
1F
100
AcDbEntity
  8
SLD-0
  6
Continuous
 62
   179
370
    15
100
AcDbLine
 10
457.8106544889
 20
514.4493821196
 30
0.0
 11
457.8106544889
 21
516.4493824475
 31
0.0
  0
LINE
  5
17B
330
1F
100
AcDbEntity
  8
SLD-0
  6
Continuous
 62
   179
370
    15
100
AcDbLine
 10
448.3106538089
 20
536.4493819238
 30
0.0
 11
448.3106538089
 21
511.4493816109
 31
0.0
  0
LINE
  5
17C
330
1F
100
AcDbEntity
  8
SLD-0
  6
Continuous
 62
   179
370
    15
100
AcDbLine
 10
448.3106538089
 20
511.4493816109
 30
0.0
 11
455.8106541069
 21
511.4493816109
 31
0.0
  0
LINE
  5
17D
330
1F
100
AcDbEntity
  8
SLD-0
  6
Continuous
 62
   179
370
    15
100
AcDbLine
 10
455.8106541069
 20
511.4493816109
 30
0.0
 11
456.8106524082
 21
514.4493821026
 31
0.0
  0
LINE
  5
17E
330
1F
100
AcDbEntity
  8
SLD-0
  6
Continuous
 62
   179
370
    15
100
AcDbLine
 10
456.8106524082
 20
514.4493821026
 30
0.0
 11
456.8106524082
 21
516.4493824135
 31
0.0
  0
LINE
  5
17F
330
1F
100
AcDbEntity
  8
SLD-0
  6
Continuous
 62
   179
370
    15
100
AcDbLine
 10
456.8106524082
 20
516.4493824135
 30
0.0
 11
455.8106541611
 21
516.4493824135
 31
0.0
  0
LINE
  5
180
330
1F
100
AcDbEntity
  8
SLD-0
  6
Continuous
 62
   179
370
    15
100
AcDbLine
 10
455.8106541611
 20
516.4493824135
 30
0.0
 11
455.8106541611
 21
531.679684181
 31
0.0
  0
ARC
  5
181
330
1F
100
AcDbEntity
  8
SLD-0
  6
Continuous
 62
   179
370
    15
100
AcDbCircle
 10
15.432426684
 20
549.7890718934
 30
0.0
 40
4.530580793471449
100
AcDbArc
 50
183.0000169713
 51
356.9999991494
  0
ARC
  5
182
330
1F
100
AcDbEntity
  8
SLD-0
  6
Continuous
 62
   179
370
    15
100
AcDbCircle
 10
12.800895692
 20
533.0568022994
 30
0.0
 40
3.000000070987801
100
AcDbArc
 50
93.000000024
 51
267.0000099974
  0
ARC
  5
183
330
1F
100
AcDbEntity
  8
SLD-0
  6
Continuous
 62
   179
370
    15
100
AcDbCircle
 10
78.635570655
 20
551.2543706645
 30
0.0
 40
16.50000177325001
100
AcDbArc
 50
180.0
 51
359.9999987582
  0
ARC
  5
184
330
1F
100
AcDbEntity
  8
SLD-0
  6
Continuous
 62
   179
370
    15
100
AcDbCircle
 10
78.635570655
 20
551.2543706645
 30
0.0
 40
1.49999968710003
100
AcDbArc
 50
179.9999979671
 51
359.9999863407
  0
ARC
  5
185
330
1F
100
AcDbEntity
  8
SLD-0
  6
Continuous
 62
   179
370
    15
100
AcDbCircle
 10
113.2798791656
 20
551.2424840475
 30
0.0
 40
16.50000177325002
100
AcDbArc
 50
180.0
 51
359.9999987579
  0
ARC
  5
186
330
1F
100
AcDbEntity
  8
SLD-0
  6
Continuous
 62
   179
370
    15
100
AcDbCircle
 10
113.2798791656
 20
551.2424840475
 30
0.0
 40
1.499999687100029
100
AcDbArc
 50
179.9999979671
 51
359.9999863369
  0
ARC
  5
187
330
1F
100
AcDbEntity
  8
SLD-0
  6
Continuous
 62
   179
370
    15
100
AcDbCircle
 10
143.4339228864
 20
563.9562411955
 30
0.0
 40
5.999999433750196
100
AcDbArc
 50
0.0000176452
 51
180.0000023908
  0
CIRCLE
  5
188
330
1F
100
AcDbEntity
  8
SLD-0
  6
Continuous
 62
   179
370
    15
100
AcDbCircle
 10
173.1969961572
 20
558.2189732846
 30
0.0
 40
7.99999999999998
  0
ARC
  5
189
330
1F
100
AcDbEntity
  8
SLD-0
  6
Continuous
 62
   179
370
    15
100
AcDbCircle
 10
173.1969961572
 20
558.2189732846
 30
0.0
 40
15.00000005583469
100
AcDbArc
 50
67.380135939
 51
292.6198649196
  0
ARC
  5
18A
330
1F
100
AcDbEntity
  8
SLD-0
  6
Continuous
 62
   179
370
    15
100
AcDbCircle
 10
50.7296466103
 20
529.1884798566
 30
0.0
 40
3.999999724350011
100
AcDbArc
 50
90.0
 51
269.9999967986
  0
ARC
  5
18B
330
1F
100
AcDbEntity
  8
SLD-0
  6
Continuous
 62
   179
370
    15
100
AcDbCircle
 10
280.559599623
 20
546.9532686509
 30
0.0
 40
25.00000000000016
100
AcDbArc
 50
0.0
 51
45.0
  0
ARC
  5
18C
330
1F
100
AcDbEntity
  8
SLD-0
  6
Continuous
 62
   179
370
    15
100
AcDbCircle
 10
280.559599623
 20
546.9532686509
 30
0.0
 40
5.0
100
AcDbArc
 50
0.0
 51
45.0
  0
ARC
  5
18D
330
1F
100
AcDbEntity
  8
SLD-0
  6
Continuous
 62
   179
370
    15
100
AcDbCircle
 10
272.6306674348
 20
569.0243364628
 30
0.0
 40
5.000000000000121
100
AcDbArc
 50
135.0
 51
225.0
  0
ARC
  5
18E
330
1F
100
AcDbEntity
  8
SLD-0
  6
Continuous
 62
   179
370
    15
100
AcDbCircle
 10
279.7017352467
 20
576.0954042746
 30
0.0
 40
5.000000000000121
100
AcDbArc
 50
45.0
 51
135.0
  0
ARC
  5
18F
330
1F
100
AcDbEntity
  8
SLD-0
  6
Continuous
 62
   179
370
    15
100
AcDbCircle
 10
351.1368822655
 20
541.1884330841
 30
0.0
 40
5.000000000000161
100
AcDbArc
 50
225.0
 51
315.0
  0
ARC
  5
190
330
1F
100
AcDbEntity
  8
SLD-0
  6
Continuous
 62
   179
370
    15
100
AcDbCircle
 10
329.0658147797
 20
549.1173655982
 30
0.0
 40
5.000000461081215
100
AcDbArc
 50
45.0000077723
 51
89.999993816
  0
ARC
  5
191
330
1F
100
AcDbEntity
  8
SLD-0
  6
Continuous
 62
   179
370
    15
100
AcDbCircle
 10
329.0658147797
 20
549.1173655982
 30
0.0
 40
25.00000068468133
100
AcDbArc
 50
44.9999971548
 51
90.0000025396
  0
ARC
  5
192
330
1F
100
AcDbEntity
  8
SLD-0
  6
Continuous
 62
   179
370
    15
100
AcDbCircle
 10
358.2079508876
 20
548.2595009612
 30
0.0
 40
4.999999473288525
100
AcDbArc
 50
315.0
 51
44.9999890553
  0
ARC
  5
193
330
1F
100
AcDbEntity
  8
SLD-0
  6
Continuous
 62
   179
370
    15
100
AcDbCircle
 10
23.9052459935
 20
514.3743137888
 30
0.0
 40
5.000001433915028
100
AcDbArc
 50
17.4575903744
 51
342.5424109297
  0
ARC
  5
194
330
1F
100
AcDbEntity
  8
SLD-0
  6
Continuous
 62
   179
370
    15
100
AcDbCircle
 10
23.9052459935
 20
514.3743137888
 30
0.0
 40
8.99999961260005
100
AcDbArc
 50
90.0000003794
 51
270.0
  0
ARC
  5
195
330
1F
100
AcDbEntity
  8
SLD-0
  6
Continuous
 62
   179
370
    15
100
AcDbCircle
 10
395.139893343
 20
571.0279885274
 30
0.0
 40
5.000001433819728
100
AcDbArc
 50
287.4575903747
 51
252.5424109294
  0
ARC
  5
196
330
1F
100
AcDbEntity
  8
SLD-0
  6
Continuous
 62
   179
370
    15
100
AcDbCircle
 10
395.139893343
 20
571.0279885274
 30
0.0
 40
8.999999612550084
100
AcDbArc
 50
0.0000003794
 51
180.0
  0
ARC
  5
197
330
1F
100
AcDbEntity
  8
SLD-0
  6
Continuous
 62
   179
370
    15
100
AcDbCircle
 10
415.0797844823
 20
571.6779211713
 30
0.0
 40
5.000001433819711
100
AcDbArc
 50
287.4575903747
 51
252.5424109294
  0
ARC
  5
198
330
1F
100
AcDbEntity
  8
SLD-0
  6
Continuous
 62
   179
370
    15
100
AcDbCircle
 10
415.0797844823
 20
571.6779211713
 30
0.0
 40
8.99999961260005
100
AcDbArc
 50
0.0000003794
 51
180.0
  0
ARC
  5
199
330
1F
100
AcDbEntity
  8
SLD-0
  6
Continuous
 62
   179
370
    15
100
AcDbCircle
 10
435.6838058037
 20
571.4660094695
 30
0.0
 40
5.000001433915055
100
AcDbArc
 50
287.4575903744
 51
252.5424109297
  0
ARC
  5
19A
330
1F
100
AcDbEntity
  8
SLD-0
  6
Continuous
 62
   179
370
    15
100
AcDbCircle
 10
435.6838058037
 20
571.4660094695
 30
0.0
 40
8.999999612550027
100
AcDbArc
 50
0.0000003794
 51
180.0
  0
ARC
  5
19B
330
1F
100
AcDbEntity
  8
SLD-0
  6
Continuous
 62
   179
370
    15
100
AcDbCircle
 10
456.0645573927
 20
571.6836001867
 30
0.0
 40
5.000001433915002
100
AcDbArc
 50
287.4575903744
 51
252.5424109297
  0
ARC
  5
19C
330
1F
100
AcDbEntity
  8
SLD-0
  6
Continuous
 62
   179
370
    15
100
AcDbCircle
 10
456.0645573927
 20
571.6836001867
 30
0.0
 40
8.999999612599993
100
AcDbArc
 50
0.0000003794
 51
180.0
  0
ARC
  5
19D
330
1F
100
AcDbEntity
  8
SLD-0
  6
Continuous
 62
   179
370
    15
100
AcDbCircle
 10
370.8301948362
 20
532.9973745275
 30
0.0
 40
5.000001433915063
100
AcDbArc
 50
287.4575903733
 51
252.5424109286
  0
ARC
  5
19E
330
1F
100
AcDbEntity
  8
SLD-0
  6
Continuous
 62
   179
370
    15
100
AcDbCircle
 10
370.8301948362
 20
532.9973745275
 30
0.0
 40
8.999999612550084
100
AcDbArc
 50
0.0000003794
 51
180.0
  0
ARC
  5
19F
330
1F
100
AcDbEntity
  8
SLD-0
  6
Continuous
 62
   179
370
    15
100
AcDbCircle
 10
390.9720582156
 20
533.2149652446
 30
0.0
 40
5.000001433819717
100
AcDbArc
 50
287.4575903736
 51
252.5424109283
  0
ARC
  5
1A0
330
1F
100
AcDbEntity
  8
SLD-0
  6
Continuous
 62
   179
370
    15
100
AcDbCircle
 10
390.9720582156
 20
533.2149652446
 30
0.0
 40
8.999999612550084
100
AcDbArc
 50
0.0000003794
 51
180.0
  0
ARC
  5
1A1
330
1F
100
AcDbEntity
  8
SLD-0
  6
Continuous
 62
   179
370
    15
100
AcDbCircle
 10
374.6862249078
 20
570.2739881535
 30
0.0
 40
5.000001433819501
100
AcDbArc
 50
287.4575903736
 51
252.5424109283
  0
ARC
  5
1A2
330
1F
100
AcDbEntity
  8
SLD-0
  6
Continuous
 62
   179
370
    15
100
AcDbCircle
 10
374.6862249078
 20
570.2739881535
 30
0.0
 40
8.999999612550084
100
AcDbArc
 50
0.0000003794
 51
180.0
  0
ARC
  5
1A3
330
1F
100
AcDbEntity
  8
SLD-0
  6
Continuous
 62
   179
370
    15
100
AcDbCircle
 10
65.0782492776
 20
515.0356297408
 30
0.0
 40
5.000001433819612
100
AcDbArc
 50
17.4575903736
 51
342.5424109283
  0
ARC
  5
1A4
330
1F
100
AcDbEntity
  8
SLD-0
  6
Continuous
 62
   179
370
    15
100
AcDbCircle
 10
65.0782492776
 20
515.0356297408
 30
0.0
 40
8.999999612549914
100
AcDbArc
 50
90.0000003794
 51
270.0
  0
ARC
  5
1A5
330
1F
100
AcDbEntity
  8
SLD-0
  6
Continuous
 62
   179
370
    15
100
AcDbCircle
 10
457.3106534214
 20
536.4493819238
 30
0.0
 40
5.000001433915063
100
AcDbArc
 50
287.4575903733
 51
252.5424109286
  0
ARC
  5
1A6
330
1F
100
AcDbEntity
  8
SLD-0
  6
Continuous
 62
   179
370
    15
100
AcDbCircle
 10
457.3106534214
 20
536.4493819238
 30
0.0
 40
8.999999612550084
100
AcDbArc
 50
0.0000003794
 51
180.0
  0
MTEXT
  5
1A8
330
1F
100
AcDbEntity
  8
0
  6
Continuous
 62
     7
100
AcDbMText
 10
0.0
 20
28.6610179074
 30
0.0
 40
10.2762
 41
0.0
 71
     1
 72
     1
  1
SOLIDWORKS Student Edition.
  7
SLDTEXTSTYLE0
 73
     1
 44
1.0
  0
MTEXT
  5
1A9
330
1F
100
AcDbEntity
  8
0
  6
Continuous
 62
     7
100
AcDbMText
 10
0.0
 20
13.2467179074
 30
0.0
 40
10.2762
 41
0.0
 71
     1
 72
     1
  1
For Academic Use Only.
  7
SLDTEXTSTYLE0
 73
     1
 44
1.0
  0
ENDSEC
  0
SECTION
  2
OBJECTS
  0
DICTIONARY
  5
C
330
0
100
AcDbDictionary
281
     1
  3
ACAD_GROUP
350
D
  3
ACAD_LAYOUT
350
1A
  3
ACAD_MLINESTYLE
350
17
  3
ACAD_PLOTSETTINGS
350
19
  3
ACAD_PLOTSTYLENAME
350
E
  3
ACAD_SCALELIST
350
47
  0
DICTIONARY
  5
D
102
{ACAD_REACTORS
330
C
102
}
330
C
100
AcDbDictionary
281
     1
  0
DICTIONARY
  5
1A
102
{ACAD_REACTORS
330
C
102
}
330
C
100
AcDbDictionary
281
     1
  3
Layout1
350
1E
  3
Layout2
350
26
  3
Model
350
22
  0
DICTIONARY
  5
17
102
{ACAD_REACTORS
330
C
102
}
330
C
100
AcDbDictionary
281
     1
  3
Standard
350
18
  0
DICTIONARY
  5
19
102
{ACAD_REACTORS
330
C
102
}
330
C
100
AcDbDictionary
281
     1
  0
ACDBDICTIONARYWDFLT
  5
E
102
{ACAD_REACTORS
330
C
102
}
330
C
100
AcDbDictionary
281
     1
  3
Normal
350
F
100
AcDbDictionaryWithDefault
340
F
  0
DICTIONARY
  5
47
102
{ACAD_REACTORS
330
C
102
}
330
C
100
AcDbDictionary
281
     1
  3
A0
350
48
  3
A1
350
49
  3
A2
350
4A
  3
A3
350
4B
  3
A4
350
4C
  3
A5
350
4D
  3
A6
350
4E
  3
A7
350
4F
  3
A8
350
50
  3
A9
350
51
  3
B0
350
52
  3
B1
350
53
  3
B2
350
54
  3
B3
350
55
  3
B4
350
56
  3
B5
350
57
  3
B6
350
58
  3
B7
350
59
  3
B8
350
5A
  3
B9
350
5B
  3
C0
350
5C
  3
C1
350
5D
  3
C2
350
5E
  3
C3
350
5F
  3
C4
350
60
  3
C5
350
61
  3
C6
350
62
  3
C7
350
63
  3
C8
350
64
  3
C9
350
65
  3
D0
350
66
  3
D1
350
67
  3
D2
350
68
  0
LAYOUT
  5
1E
102
{ACAD_REACTORS
330
1A
102
}
330
1A
100
AcDbPlotSettings
  1

  2
none_device
  4

  6

 40
0.0
 41
0.0
 42
0.0
 43
0.0
 44
0.0
 45
0.0
 46
0.0
 47
0.0
 48
0.0
 49
0.0
140
0.0
141
0.0
142
1.0
143
1.0
 70
   688
 72
     1
 73
     0
 74
     5
  7

 75
    16
147
1.0
148
0.0
149
0.0
100
AcDbLayout
  1
Layout1
 70
     1
 71
     1
 10
0.0
 20
0.0
 11
420.0
 21
297.0
 12
0.0
 22
0.0
 32
0.0
 14
1.0000000000E+20
 24
1.0000000000E+20
 34
1.0000000000E+20
 15
-1.0000000000E+20
 25
-1.0000000000E+20
 35
-1.0000000000E+20
146
0.0
 13
0.0
 23
0.0
 33
0.0
 16
1.0
 26
0.0
 36
0.0
 17
0.0
 27
1.0
 37
0.0
 76
     0
330
1B
  0
LAYOUT
  5
26
102
{ACAD_REACTORS
330
1A
102
}
330
1A
100
AcDbPlotSettings
  1

  2
none_device
  4

  6

 40
0.0
 41
0.0
 42
0.0
 43
0.0
 44
0.0
 45
0.0
 46
0.0
 47
0.0
 48
0.0
 49
0.0
140
0.0
141
0.0
142
1.0
143
1.0
 70
   688
 72
     1
 73
     0
 74
     5
  7

 75
    16
147
1.0
148
0.0
149
0.0
100
AcDbLayout
  1
Layout2
 70
     1
 71
     2
 10
0.0
 20
0.0
 11
0.0
 21
0.0
 12
0.0
 22
0.0
 32
0.0
 14
0.0
 24
0.0
 34
0.0
 15
0.0
 25
0.0
 35
0.0
146
0.0
 13
0.0
 23
0.0
 33
0.0
 16
1.0
 26
0.0
 36
0.0
 17
0.0
 27
1.0
 37
0.0
 76
     0
330
23
  0
LAYOUT
  5
22
102
{ACAD_REACTORS
330
1A
102
}
330
1A
100
AcDbPlotSettings
  1

  2
none_device
  4
Letter_(8.50_x_11.00_Inches)
  6

 40
6.35
 41
6.35
 42
6.35000508
 43
6.35000508
 44
215.9
 45
279.4
 46
0.0
 47
0.0
 48
0.0
 49
0.0
140
0.0
141
0.0
142
1.0
143
1.0
 70
  1712
 72
     1
 73
     0
 74
     0
  7

 75
     0
147
1.0
148
0.0
149
0.0
100
AcDbLayout
  1
Model
 70
     1
 71
     0
 10
0.0
 20
0.0
 11
841.0
 21
594.0
 12
0.0
 22
0.0
 32
0.0
 14
0.0
 24
0.0
 34
0.0
 15
841.0
 25
594.0
 35
0.0
146
0.0
 13
0.0
 23
0.0
 33
0.0
 16
1.0
 26
0.0
 36
0.0
 17
0.0
 27
1.0
 37
0.0
 76
     0
330
1F
331
29
  0
MLINESTYLE
  5
18
102
{ACAD_REACTORS
330
17
102
}
330
17
100
AcDbMlineStyle
  2
Standard
 70
     0
  3

 62
   256
 51
90.0
 52
90.0
 71
     2
 49
0.5
 62
   256
  6
BYLAYER
 49
-0.5
 62
   256
  6
BYLAYER
  0
ACDBPLACEHOLDER
  5
F
102
{ACAD_REACTORS
330
E
102
}
330
E
  0
SCALE
  5
48
102
{ACAD_REACTORS
330
47
102
}
330
47
100
AcDbScale
 70
     0
300
1:1
140
1.0
141
1.0
290
     1
  0
SCALE
  5
49
102
{ACAD_REACTORS
330
47
102
}
330
47
100
AcDbScale
 70
     0
300
1:2
140
1.0
141
2.0
290
     0
  0
SCALE
  5
4A
102
{ACAD_REACTORS
330
47
102
}
330
47
100
AcDbScale
 70
     0
300
1:4
140
1.0
141
4.0
290
     0
  0
SCALE
  5
4B
102
{ACAD_REACTORS
330
47
102
}
330
47
100
AcDbScale
 70
     0
300
1:5
140
1.0
141
5.0
290
     0
  0
SCALE
  5
4C
102
{ACAD_REACTORS
330
47
102
}
330
47
100
AcDbScale
 70
     0
300
1:8
140
1.0
141
8.0
290
     0
  0
SCALE
  5
4D
102
{ACAD_REACTORS
330
47
102
}
330
47
100
AcDbScale
 70
     0
300
1:10
140
1.0
141
10.0
290
     0
  0
SCALE
  5
4E
102
{ACAD_REACTORS
330
47
102
}
330
47
100
AcDbScale
 70
     0
300
1:16
140
1.0
141
16.0
290
     0
  0
SCALE
  5
4F
102
{ACAD_REACTORS
330
47
102
}
330
47
100
AcDbScale
 70
     0
300
1:20
140
1.0
141
20.0
290
     0
  0
SCALE
  5
50
102
{ACAD_REACTORS
330
47
102
}
330
47
100
AcDbScale
 70
     0
300
1:30
140
1.0
141
30.0
290
     0
  0
SCALE
  5
51
102
{ACAD_REACTORS
330
47
102
}
330
47
100
AcDbScale
 70
     0
300
1:40
140
1.0
141
40.0
290
     0
  0
SCALE
  5
52
102
{ACAD_REACTORS
330
47
102
}
330
47
100
AcDbScale
 70
     0
300
1:50
140
1.0
141
50.0
290
     0
  0
SCALE
  5
53
102
{ACAD_REACTORS
330
47
102
}
330
47
100
AcDbScale
 70
     0
300
1:100
140
1.0
141
100.0
290
     0
  0
SCALE
  5
54
102
{ACAD_REACTORS
330
47
102
}
330
47
100
AcDbScale
 70
     0
300
2:1
140
2.0
141
1.0
290
     0
  0
SCALE
  5
55
102
{ACAD_REACTORS
330
47
102
}
330
47
100
AcDbScale
 70
     0
300
4:1
140
4.0
141
1.0
290
     0
  0
SCALE
  5
56
102
{ACAD_REACTORS
330
47
102
}
330
47
100
AcDbScale
 70
     0
300
8:1
140
8.0
141
1.0
290
     0
  0
SCALE
  5
57
102
{ACAD_REACTORS
330
47
102
}
330
47
100
AcDbScale
 70
     0
300
10:1
140
10.0
141
1.0
290
     0
  0
SCALE
  5
58
102
{ACAD_REACTORS
330
47
102
}
330
47
100
AcDbScale
 70
     0
300
100:1
140
100.0
141
1.0
290
     0
  0
SCALE
  5
59
102
{ACAD_REACTORS
330
47
102
}
330
47
100
AcDbScale
 70
     0
300
1/128" = 1'-0"
140
0.0078125
141
12.0
290
     0
  0
SCALE
  5
5A
102
{ACAD_REACTORS
330
47
102
}
330
47
100
AcDbScale
 70
     0
300
1/64" = 1'-0"
140
0.015625
141
12.0
290
     0
  0
SCALE
  5
5B
102
{ACAD_REACTORS
330
47
102
}
330
47
100
AcDbScale
 70
     0
300
1/32" = 1'-0"
140
0.03125
141
12.0
290
     0
  0
SCALE
  5
5C
102
{ACAD_REACTORS
330
47
102
}
330
47
100
AcDbScale
 70
     0
300
1/16" = 1'-0"
140
0.0625
141
12.0
290
     0
  0
SCALE
  5
5D
102
{ACAD_REACTORS
330
47
102
}
330
47
100
AcDbScale
 70
     0
300
3/32" = 1'-0"
140
0.09375
141
12.0
290
     0
  0
SCALE
  5
5E
102
{ACAD_REACTORS
330
47
102
}
330
47
100
AcDbScale
 70
     0
300
1/8" = 1'-0"
140
0.125
141
12.0
290
     0
  0
SCALE
  5
5F
102
{ACAD_REACTORS
330
47
102
}
330
47
100
AcDbScale
 70
     0
300
3/16" = 1'-0"
140
0.1875
141
12.0
290
     0
  0
SCALE
  5
60
102
{ACAD_REACTORS
330
47
102
}
330
47
100
AcDbScale
 70
     0
300
1/4" = 1'-0"
140
0.25
141
12.0
290
     0
  0
SCALE
  5
61
102
{ACAD_REACTORS
330
47
102
}
330
47
100
AcDbScale
 70
     0
300
3/8" = 1'-0"
140
0.375
141
12.0
290
     0
  0
SCALE
  5
62
102
{ACAD_REACTORS
330
47
102
}
330
47
100
AcDbScale
 70
     0
300
1/2" = 1'-0"
140
0.5
141
12.0
290
     0
  0
SCALE
  5
63
102
{ACAD_REACTORS
330
47
102
}
330
47
100
AcDbScale
 70
     0
300
3/4" = 1'-0"
140
0.75
141
12.0
290
     0
  0
SCALE
  5
64
102
{ACAD_REACTORS
330
47
102
}
330
47
100
AcDbScale
 70
     0
300
1" = 1'-0"
140
1.0
141
12.0
290
     0
  0
SCALE
  5
65
102
{ACAD_REACTORS
330
47
102
}
330
47
100
AcDbScale
 70
     0
300
1-1/2" = 1'-0"
140
1.5
141
12.0
290
     0
  0
SCALE
  5
66
102
{ACAD_REACTORS
330
47
102
}
330
47
100
AcDbScale
 70
     0
300
3" = 1'-0"
140
3.0
141
12.0
290
     0
  0
SCALE
  5
67
102
{ACAD_REACTORS
330
47
102
}
330
47
100
AcDbScale
 70
     0
300
6" = 1'-0"
140
6.0
141
12.0
290
     0
  0
SCALE
  5
68
102
{ACAD_REACTORS
330
47
102
}
330
47
100
AcDbScale
 70
     0
300
1'-0" = 1'-0"
140
12.0
141
12.0
290
     0
  0
ENDSEC
  0
EOF
